<?xml version="1.0" encoding="UTF-8"?>
<svg version="1.1" xmlns="http://www.w3.org/2000/svg" width="511" height="511">
<path d="M0 0 C0 60.06 0 120.12 0 182 C-4.29132074 181.14173585 -8.29640862 179.98066676 -12.4375 178.625 C-60.13721834 163.37781144 -112.13844026 173.31513015 -159.58032227 184.76464844 C-160.78358154 185.05500977 -161.98684082 185.34537109 -163.2265625 185.64453125 C-164.82878662 186.03668823 -164.82878662 186.03668823 -166.46337891 186.43676758 C-169 187 -169 187 -171 187 C-170.37349462 179.12543724 -168.69364573 171.54982501 -166.95360947 163.86402702 C-166.39724623 161.40617944 -165.84724525 158.94697203 -165.29837036 156.48744202 C-163.45091521 148.22459992 -161.57731096 139.96783381 -159.6880188 131.71446419 C-158.57745051 126.86124806 -157.47157349 122.00697001 -156.3671875 117.15234375 C-156.14300644 116.16854359 -155.91882538 115.18474342 -155.68785095 114.17113113 C-152.50000573 100.14369515 -149.59942266 86.08278492 -146.89193344 71.95530128 C-145.77064281 66.16585001 -144.59499005 60.38718702 -143.41655922 54.60912991 C-142.48007609 49.99178943 -141.58312883 45.37345031 -140.77227783 40.73226929 C-135.84665358 12.70211978 -135.84665358 12.70211978 -129.54309082 6.63540649 C-123.96689576 3.1181958 -118.1416029 1.59770918 -111.6932373 0.49261475 C-108.07877038 -0.1685003 -104.93489227 -1.36869409 -101.515625 -2.70703125 C-65.35785361 -15.05202513 -34.79551808 -17.39775904 0 0 Z " fill="#8D8D8D" transform="translate(247,247)"/>
<path d="M0 0 C0.75821045 0.16033722 1.5164209 0.32067444 2.29760742 0.48587036 C5.24164187 1.11802214 8.08598092 1.78907697 10.9453125 2.7421875 C11.76679993 4.79676819 11.76679993 4.79676819 12.41137695 7.58618164 C12.66469284 8.65549423 12.91800873 9.72480682 13.17900085 10.82652283 C13.58346184 12.62749168 13.58346184 12.62749168 13.99609375 14.46484375 C14.29292557 15.74053726 14.58975739 17.01623077 14.89558411 18.33058167 C15.7451186 21.99130249 16.57517264 25.6562041 17.40033722 29.32248688 C17.96095114 31.81162335 18.52479274 34.30001156 19.08929443 36.78826904 C21.90627138 49.21593414 24.68085724 61.65291277 27.44614029 74.0921669 C28.60648171 79.30947142 29.76959995 84.52615692 30.93237305 89.74291992 C32.98457287 98.95198059 35.03428617 108.16159239 37.08283138 117.37146664 C38.89574562 125.52125773 40.71215416 133.67026677 42.52944756 141.81908226 C43.5178163 146.25179256 44.50513175 150.68473743 45.49234009 155.1177063 C46.00021999 157.39809374 46.50833538 159.67842875 47.01669312 161.95870972 C47.69840673 165.01780707 48.37874921 168.07720557 49.05859375 171.13671875 C49.25438019 172.01419769 49.45016663 172.89167664 49.65188599 173.79574585 C50.9453125 179.62740287 50.9453125 179.62740287 50.9453125 180.7421875 C44.51818028 180.14624498 38.14123612 179.39037081 31.7578125 178.4375 C30.00758519 178.18186249 28.25725524 177.92692696 26.50683594 177.67260742 C25.60058472 177.54083099 24.6943335 177.40905457 23.76062012 177.27328491 C-24.16395762 170.36034692 -72.93113613 166.28798045 -121.0546875 173.7421875 C-122.10181157 164.73323091 -122.19718527 155.77313821 -122.18408203 146.7175293 C-122.18543972 145.12960266 -122.18722171 143.54167634 -122.18939209 141.95375061 C-122.19392083 137.67313597 -122.19219624 133.39254563 -122.189013 129.11193061 C-122.18646794 124.61977053 -122.18883269 120.12761243 -122.19039917 115.63545227 C-122.19221368 108.09965646 -122.18983246 100.56387049 -122.18505859 93.02807617 C-122.17960747 84.32278747 -122.18138768 75.61752215 -122.186885 66.91223401 C-122.19142483 59.42238181 -122.1920627 51.93253665 -122.18944633 44.44268352 C-122.18788963 39.97581493 -122.18767338 35.50895734 -122.19098282 31.04208946 C-122.19387451 26.84692858 -122.19186196 22.65179787 -122.18608856 18.45664024 C-122.18476836 16.91915944 -122.18514251 15.3816761 -122.18735123 13.84419632 C-122.19009158 11.74271036 -122.18664653 9.64132057 -122.18167114 7.5398407 C-122.18129412 6.36501475 -122.18091709 5.19018881 -122.18052864 3.97976208 C-122.05764918 0.81838412 -121.64789763 -2.153329 -121.0546875 -5.2578125 C-79.0888414 -10.6750842 -41.40026418 -8.78163539 0 0 Z M-99.0546875 10.7421875 C-99.0642749 11.44206787 -99.0738623 12.14194824 -99.08374023 12.86303711 C-99.10660807 14.53238932 -99.12947591 16.20174154 -99.15234375 17.87109375 C-99.0386874 21.21259052 -98.54627005 24.43718784 -98.0546875 27.7421875 C-96.34865356 27.63716919 -96.34865356 27.63716919 -94.6081543 27.5300293 C-82.6878319 26.82958411 -70.8069025 26.54459262 -58.8671875 26.5546875 C-57.98025208 26.5539624 -57.09331665 26.5532373 -56.17950439 26.55249023 C-42.76162413 26.55369631 -29.57023955 27.11947905 -16.22167969 28.5546875 C-13.15214932 28.82028003 -10.1337003 28.80894116 -7.0546875 28.7421875 C-7.50529411 26.63635263 -7.96544706 24.53255878 -8.4296875 22.4296875 C-8.68492187 21.25792969 -8.94015625 20.08617187 -9.203125 18.87890625 C-9.91164281 15.61298305 -9.91164281 15.61298305 -12.0546875 12.7421875 C-15.04072757 11.94538774 -15.04072757 11.94538774 -18.640625 11.57421875 C-19.31708572 11.4894075 -19.99354645 11.40459625 -20.69050598 11.31721497 C-22.93517745 11.04463672 -25.1815864 10.79727027 -27.4296875 10.5546875 C-28.58617294 10.42486481 -28.58617294 10.42486481 -29.76602173 10.29241943 C-41.92580106 8.95101537 -54.0112753 8.35986204 -66.2421875 8.3671875 C-66.9730658 8.36546539 -67.70394409 8.36374329 -68.45697021 8.36196899 C-78.78934012 8.36473797 -88.83349193 9.25125692 -99.0546875 10.7421875 Z M-98.0546875 72.7421875 C-98.0546875 78.3521875 -98.0546875 83.9621875 -98.0546875 89.7421875 C-95.58363525 89.57992676 -93.11258301 89.41766602 -90.56665039 89.25048828 C-81.99435417 88.72654407 -73.45010625 88.59516447 -64.86328125 88.609375 C-63.37891118 88.60869779 -61.89454121 88.60772434 -60.41017151 88.60647583 C-57.33048424 88.60501887 -54.25082637 88.60708812 -51.17114258 88.61181641 C-47.27321504 88.61751751 -43.37535634 88.61421932 -39.4774313 88.60824394 C-36.42205815 88.60458788 -33.36670067 88.60579968 -30.31132698 88.60837173 C-28.87597711 88.60902688 -27.44062569 88.60826365 -26.00527763 88.60589218 C-15.98509055 88.59295701 -6.04484444 89.01360819 3.9453125 89.7421875 C3.85902588 88.82179688 3.85902588 88.82179688 3.77099609 87.8828125 C3.63378906 86.41927083 3.49658203 84.95572917 3.359375 83.4921875 C2.80796493 79.8299923 1.87923533 76.32602145 0.9453125 72.7421875 C-32.24789843 70.52832545 -64.861463 70.55405263 -98.0546875 72.7421875 Z M-98.0546875 104.7421875 C-98.06678414 113.38805218 -98.06678414 113.38805218 -97.0546875 121.7421875 C-77.69275173 121.85007655 -58.39327828 121.85519992 -39.0546875 120.7421875 C-39.19578736 118.63769812 -39.34272925 116.5335998 -39.4921875 114.4296875 C-39.57339844 113.25792969 -39.65460938 112.08617187 -39.73828125 110.87890625 C-39.9414246 107.71627792 -39.9414246 107.71627792 -41.0546875 104.7421875 C-59.8646875 104.7421875 -78.6746875 104.7421875 -98.0546875 104.7421875 Z M-21.0546875 104.7421875 C-20.53811339 110.42450276 -19.99270663 116.11407275 -19.0546875 121.7421875 C-8.8246875 121.7421875 1.4053125 121.7421875 11.9453125 121.7421875 C11.4184306 113.165411 11.4184306 113.165411 9.9453125 104.7421875 C-0.2846875 104.7421875 -10.5146875 104.7421875 -21.0546875 104.7421875 Z M-97.0546875 138.7421875 C-97.0546875 144.3521875 -97.0546875 149.9621875 -97.0546875 155.7421875 C-95.16347168 155.72647705 -93.27225586 155.7107666 -91.32373047 155.69458008 C-22.97690769 155.17617208 -22.97690769 155.17617208 9.9453125 158.7421875 C13.61074326 159.08989007 17.27754503 159.42014197 20.9453125 159.7421875 C20.80247158 157.72114045 20.65588867 155.70035773 20.5078125 153.6796875 C20.42660156 152.55433594 20.34539062 151.42898438 20.26171875 150.26953125 C19.94473688 146.73577036 19.47699089 143.24947773 18.9453125 139.7421875 C-19.12514234 134.47875549 -58.83114675 135.86150267 -97.0546875 138.7421875 Z " fill="#8E8E8E" transform="translate(386.0546875,254.2578125)"/>
<path d="M0 0 C151.8 0 303.6 0 460 0 C460 5.94 460 11.88 460 18 C308.2 18 156.4 18 0 18 C0 12.06 0 6.12 0 0 Z " fill="#8E8E8E" transform="translate(26,475)"/>
<path d="M0 0 C3.63025467 3.48864899 6.71489534 7.08811243 9.75 11.125 C10.62931771 12.27672219 11.50954306 13.42775191 12.390625 14.578125 C14.03344107 16.72902851 15.66761237 18.88560824 17.296875 21.046875 C26.25972418 32.55237643 35.64747294 38.11633394 50 40 C52.48639955 40.20293396 54.9749945 40.38018638 57.46484375 40.53515625 C58.14301651 40.57813339 58.82118927 40.62111053 59.51991272 40.66539001 C61.65895527 40.80035439 63.79821177 40.93149363 65.9375 41.0625 C67.39910448 41.15404268 68.86069322 41.24583723 70.32226562 41.33789062 C73.88133316 41.56150303 77.44060291 41.78168862 81 42 C78.24691797 44.81666702 75.55827048 47.48921033 72.36328125 49.796875 C71.70827637 50.27592285 71.05327148 50.7549707 70.37841797 51.24853516 C69.69666504 51.74401855 69.01491211 52.23950195 68.3125 52.75 C53.61032686 63.66195223 44.22898535 72.38840346 41 91 C40.34515093 96.58459924 40.08977492 102.19911056 39.8125 107.8125 C39.73085245 109.29497923 39.64817574 110.77740214 39.56445312 112.25976562 C39.36448036 115.83927552 39.17828102 119.41933623 39 123 C36.18333298 120.24691797 33.51078967 117.55827048 31.203125 114.36328125 C30.72407715 113.70827637 30.2450293 113.05327148 29.75146484 112.37841797 C29.25598145 111.69666504 28.76049805 111.01491211 28.25 110.3125 C17.74440111 96.15782534 8.95033422 86.28298454 -9 83 C-14.72811482 82.32385046 -20.49161003 82.086083 -26.25 81.8125 C-27.78521352 81.73088804 -29.32037089 81.64821245 -30.85546875 81.56445312 C-34.56974724 81.36406801 -38.28457216 81.177975 -42 81 C-38.62431218 77.57124645 -35.26741297 74.58275337 -31.375 71.75 C-17.22486663 61.23747779 -5.50289734 52.44443164 -2.3515625 34.2578125 C-0.77253642 22.91257155 -0.42473153 11.4342199 0 0 Z " fill="#8E8E8E" transform="translate(189,94)"/>
<path d="M0 0 C7.92 0 15.84 0 24 0 C25.4313403 3.57835074 26.43372802 6.47610216 27.22947693 10.16215515 C27.45192581 11.18219635 27.67437469 12.20223755 27.90356445 13.25318909 C28.14091309 14.36290573 28.37826172 15.47262238 28.62280273 16.6159668 C28.87852554 17.7945929 29.13424835 18.97321899 29.39772034 20.18756104 C30.09980312 23.42746127 30.79799132 26.66815605 31.49455523 29.9092443 C32.23619154 33.35522695 32.98299767 36.80008891 33.72926331 40.24507141 C35.15387359 46.82509435 36.57416808 53.40604071 37.99279028 59.98735696 C40.48728132 71.55894892 42.99034524 83.12868956 45.49264395 94.69859517 C46.41012547 98.94113178 47.32670499 103.1838621 48.24263203 107.42673457 C51.25434037 121.3763518 54.28156021 135.32210591 57.36376953 149.25634766 C57.62553639 150.44058854 57.88730326 151.62482943 58.15700245 152.8449564 C59.37656745 158.35902584 60.60008392 163.87217392 61.8299408 169.38395691 C62.25527305 171.30128344 62.68053499 173.21862557 63.10571289 175.13598633 C63.39720687 176.4323939 63.39720687 176.4323939 63.69458961 177.75499153 C64.38834544 180.89329567 65 183.77517637 65 187 C57.08 187 49.16 187 41 187 C40.25540527 183.68952637 39.51081055 180.37905273 38.74365234 176.96826172 C37.12330463 169.76424547 35.50285501 162.56025216 33.88218689 155.35630798 C33.44066251 153.39370597 32.99913854 151.43110387 32.55761492 149.46850169 C32.25497618 148.12325461 31.9523358 146.7780079 31.64969385 145.43276155 C29.77905755 137.11769143 27.90891751 128.80250999 26.03949696 120.48716646 C24.3405515 112.93015235 22.64118817 105.37323227 20.94140625 97.81640625 C20.78909129 97.13923451 20.63677633 96.46206277 20.47984576 95.76437068 C16.87882748 79.75556152 13.27087759 63.74840022 9.62474823 47.74979401 C9.10344448 45.46203111 8.58276602 43.17412688 8.06231689 40.88616943 C7.73963674 39.46789261 7.41694426 38.0496186 7.09423828 36.63134766 C6.86627815 35.62944019 6.86627815 35.62944019 6.63371277 34.60729218 C5.6310583 30.20352832 4.62061624 25.80158849 3.60888672 21.39990234 C3.11010999 19.210667 2.61155634 17.02138082 2.11328125 14.83203125 C1.89276596 13.88263168 1.67225067 12.93323212 1.4450531 11.95506287 C1.2508931 11.09695511 1.05673309 10.23884735 0.85668945 9.35473633 C0.68941849 8.62636063 0.52214752 7.89798492 0.34980774 7.14753723 C0 5 0 5 0 0 Z " fill="#8D8D8D" transform="translate(417,267)"/>
<path d="M0 0 C2.52916351 0.00316846 5.05716034 -0.02046435 7.58618164 -0.0456543 C29.06288553 -0.12929502 49.27650285 3.69688265 68.59594727 13.31567383 C68.59594727 15.95567383 68.59594727 18.59567383 68.59594727 21.31567383 C57.70033911 21.49824202 46.80450733 21.66263299 35.90844727 21.81567383 C34.64095201 21.8334897 34.64095201 21.8334897 33.3478508 21.8516655 C-1.0485726 22.32924428 -35.44218393 22.40217269 -69.84155273 22.37817383 C-71.07732937 22.37731781 -72.313106 22.37646179 -73.58633041 22.37557983 C-88.85891919 22.36421241 -104.13148662 22.34417019 -119.40405273 22.31567383 C-116.57450567 20.42930912 -114.73603499 19.71137735 -111.51342773 18.83520508 C-110.50973145 18.56168213 -109.50603516 18.28815918 -108.47192383 18.00634766 C-107.37702637 17.71655029 -106.28212891 17.42675293 -105.15405273 17.12817383 C-104.00888184 16.82355225 -102.86371094 16.51893066 -101.68383789 16.20507812 C-79.85799648 10.4837553 -57.78141416 5.33449839 -35.40405273 2.31567383 C-34.77081085 2.22953827 -34.13756897 2.14340271 -33.48513794 2.05465698 C-22.30822973 0.57035833 -11.27221648 -0.02935756 0 0 Z " fill="#8D8D8D" transform="translate(178.404052734375,434.684326171875)"/>
<path d="M0 0 C4.80517805 0.53187085 8.27085404 2.82756291 12.25 5.375 C20.88358614 10.70753987 28.67828151 14.66051982 39.12524414 12.57592773 C41.29183641 12.00166524 43.42524265 11.36252517 45.5625 10.6875 C46.27857422 10.47416016 46.99464844 10.26082031 47.73242188 10.04101562 C51.20039698 8.98389856 54.52839832 7.81083637 57.83984375 6.33203125 C61 5 61 5 64 5 C62.58264253 8.85212501 60.76413344 12.18922283 58.625 15.6875 C53.17495194 25.00605816 49.20894566 32.98617883 51 44 C52.74226706 50.37966301 54.96052631 56.60549134 57.24389648 62.80859375 C57.95081888 64.85745892 58.51004178 66.88996533 59 69 C57.22778159 68.12780874 55.45732345 67.25204085 53.6875 66.375 C52.58921875 65.83101563 51.4909375 65.28703125 50.359375 64.7265625 C47.31631234 63.16256983 44.38735091 61.48069288 41.4375 59.75 C32.34956389 54.7881958 24.85608404 54.48370446 15 57 C11.41712545 58.1010164 7.89618109 59.34172511 4.375 60.625 C3.01181641 61.11226562 3.01181641 61.11226562 1.62109375 61.609375 C-0.58824123 62.40008436 -2.79511041 63.19699654 -5 64 C-3.61975986 59.29431081 -1.57418088 55.30233397 0.9375 51.125 C6.26633203 41.9430493 9.62865562 34.85021606 8 24 C6.27471996 17.5791505 4.03809076 11.31871703 1.75610352 5.07788086 C1.14368029 3.39485403 0.56636044 1.69908133 0 0 Z " fill="#8E8E8E" transform="translate(319,21)"/>
<path d="M0 0 C1.5631897 0.00785522 1.5631897 0.00785522 3.15795898 0.01586914 C4.28266602 0.0190918 5.40737305 0.02231445 6.56616211 0.02563477 C7.75016602 0.03401367 8.93416992 0.04239258 10.15405273 0.05102539 C11.34192383 0.05553711 12.52979492 0.06004883 13.75366211 0.06469727 C16.69967499 0.07652864 19.64558954 0.09301252 22.59155273 0.11352539 C21.83429703 8.02849919 19.99826251 15.7045899 18.24780273 23.44555664 C17.91503912 24.92902856 17.58256505 26.41256545 17.25036621 27.89616394 C16.55667651 30.99054633 15.86050769 34.08435626 15.16235352 37.17773438 C14.26759572 41.14249514 13.37754776 45.10829422 12.48914337 49.07448292 C11.80415822 52.13135535 11.11748718 55.18784693 10.43022156 58.24420738 C10.10135541 59.70697102 9.77283139 61.16981163 9.44465637 62.63273048 C8.98675537 64.67202144 8.52677618 66.71083209 8.06616211 68.74951172 C7.80492554 69.90896805 7.54368896 71.06842438 7.27453613 72.26301575 C6.59155273 75.11352539 6.59155273 75.11352539 5.59155273 78.11352539 C-2.98844727 78.11352539 -11.56844727 78.11352539 -20.40844727 78.11352539 C-18.15787512 64.61009249 -18.15787512 64.61009249 -16.8203125 58.80029297 C-16.67532318 58.16616486 -16.53033386 57.53203674 -16.38095093 56.87869263 C-15.91325148 54.8376321 -15.44038242 52.79781543 -14.96704102 50.75805664 C-14.6357788 49.32033604 -14.30473322 47.88256551 -13.97389221 46.44474792 C-13.2862303 43.46000879 -12.59597771 40.47588451 -11.90380859 37.4921875 C-11.01554079 33.66220024 -10.13394925 29.83071121 -9.25422573 25.99875355 C-8.57487031 23.04287562 -7.89206047 20.08780421 -7.20817757 17.13297081 C-6.8813557 15.71896808 -6.55562083 14.30471366 -6.23098564 12.89020729 C-5.77991063 10.92713102 -5.32368355 8.96524071 -4.8671875 7.00341797 C-4.60896713 5.88711502 -4.35074677 4.77081207 -4.08470154 3.62068176 C-3.14812194 0.14839095 -3.14812194 0.14839095 0 0 Z " fill="#8D8D8D" transform="translate(47.408447265625,378.886474609375)"/>
<path d="M0 0 C1.34054446 0.00534505 2.68109019 0.0103773 4.02163696 0.0151062 C24.42151626 0.09733475 44.51317534 0.67278485 64.75 3.375 C66.17363861 3.56376709 66.17363861 3.56376709 67.6260376 3.75634766 C79.51230857 5.34009818 91.38721188 7.00284045 103.25 8.75390625 C104.16211746 8.88720337 105.07423492 9.02050049 106.01399231 9.15783691 C111.96703852 10.04809687 117.85853306 11.14215636 123.75 12.375 C120.36151733 14.63398845 119.18717797 14.63155855 115.21369934 14.6534729 C114.06101059 14.66463638 112.90832184 14.67579987 111.72070312 14.68730164 C110.45395752 14.68946182 109.18721191 14.69162201 107.88208008 14.69384766 C106.53455505 14.70314795 105.18703577 14.71331678 103.83952332 14.72428894 C100.16826024 14.75167788 96.49703584 14.76677884 92.82569718 14.77971697 C88.95420418 14.79540585 85.08278775 14.82220646 81.21134949 14.8477478 C74.67843943 14.88932242 68.14552479 14.92376707 61.61254883 14.953125 C52.51720044 14.99399798 43.4219529 15.04673564 34.32668459 15.10240483 C5.13423042 15.27969467 -24.05695133 15.40369276 -53.25 15.375 C-53.49954005 13.94089632 -53.72392642 12.50239928 -53.9375 11.0625 C-54.06511719 10.26199219 -54.19273437 9.46148437 -54.32421875 8.63671875 C-54.25 6.375 -54.25 6.375 -52.88802719 4.62015724 C-49.71304714 2.20667508 -45.75354821 2.20337125 -41.890625 1.7109375 C-40.92392883 1.58480072 -39.95723267 1.45866394 -38.96124268 1.32870483 C-26.01045382 -0.19743298 -13.02118501 -0.08233314 0 0 Z " fill="#8E8E8E" transform="translate(318.25,440.625)"/>
<path d="M0 0 C1.00023193 0.00523682 2.00046387 0.01047363 3.03100586 0.01586914 C4.1105957 0.0190918 5.19018555 0.02231445 6.30249023 0.02563477 C8.00695312 0.03820312 8.00695312 0.03820312 9.74584961 0.05102539 C11.45611328 0.05779297 11.45611328 0.05779297 13.20092773 0.06469727 C16.02845312 0.07652792 18.85587601 0.09301129 21.68334961 0.11352539 C21.09437555 6.1371237 20.20373815 11.93219818 18.87084961 17.83227539 C18.69706787 18.61622681 18.52328613 19.40017822 18.34423828 20.20788574 C17.98009076 21.84524147 17.61361376 23.48208077 17.24487305 25.1184082 C16.67882913 27.63361206 16.12201852 30.15074017 15.56616211 32.66821289 C15.20993247 34.26468791 14.85318089 35.86104658 14.49584961 37.45727539 C14.32915771 38.21133667 14.16246582 38.96539795 13.99072266 39.74230957 C12.79866211 44.99821289 12.79866211 44.99821289 11.68334961 46.11352539 C9.8296535 46.20090184 7.9726742 46.22050692 6.11694336 46.21118164 C4.99223633 46.20795898 3.8675293 46.20473633 2.70874023 46.20141602 C1.52473633 46.19303711 0.34073242 46.1846582 -0.87915039 46.17602539 C-2.06702148 46.17151367 -3.25489258 46.16700195 -4.47875977 46.16235352 C-7.42477265 46.15052214 -10.3706872 46.13403826 -13.31665039 46.11352539 C-11.17196979 34.82241283 -8.798596 23.60563782 -6.12915039 12.42602539 C-5.86730957 11.32137939 -5.60546875 10.2167334 -5.33569336 9.07861328 C-5.08835449 8.05501709 -4.84101562 7.0314209 -4.58618164 5.97680664 C-4.36551025 5.0619751 -4.14483887 4.14714355 -3.91748047 3.20458984 C-3.0941732 0.33923966 -3.02275796 0.14812756 0 0 Z " fill="#8D8D8D" transform="translate(73.316650390625,266.886474609375)"/>
<path d="M0 0 C0.66 0 1.32 0 2 0 C3.5110253 1.88803947 4.92332636 3.77530689 6.3125 5.75 C10.81922643 12.08543207 14.47912791 16.15229873 22.17578125 17.62890625 C28.09047111 18.4060785 34.04504564 18.70185999 40 19 C37.17287267 21.85632313 34.34560599 24.67472018 31.3125 27.3125 C30.73113281 27.82425781 30.14976562 28.33601563 29.55078125 28.86328125 C28 30 28 30 26 30 C25.31379969 31.32338632 24.65213539 32.65949948 24 34 C23.67 34.6703125 23.34 35.340625 23 36.03125 C21.58496633 40.23213122 21.27520011 44.41357908 20.875 48.8125 C20.78863281 49.69615234 20.70226562 50.57980469 20.61328125 51.49023438 C20.40221556 53.65952058 20.20020574 55.82968458 20 58 C16.84940472 54.90946806 13.90040943 51.75263454 11.0625 48.375 C5.01719852 41.53426412 -0.89540463 40.11951397 -9.77148438 39.55664062 C-10.44501953 39.51732422 -11.11855469 39.47800781 -11.8125 39.4375 C-12.85180664 39.37272461 -12.85180664 39.37272461 -13.91210938 39.30664062 C-15.60788686 39.20138547 -17.30392052 39.10027137 -19 39 C-15.76450411 35.68912518 -12.42380888 32.65569336 -8.875 29.6875 C-0.92440733 22.44572688 -0.68833991 15.95431867 -0.20092773 5.63867188 C-0.12609913 3.75941083 -0.06194564 1.8797298 0 0 Z " fill="#8D8D8D" transform="translate(380,150)"/>
<path d="M0 0 C0.66 0 1.32 0 2 0 C2.18175781 1.15757813 2.36351562 2.31515625 2.55078125 3.5078125 C2.80417733 5.04695908 3.05811219 6.58601702 3.3125 8.125 C3.48942383 9.26582031 3.48942383 9.26582031 3.66992188 10.4296875 C4.80446097 17.17874057 6.46920793 22.36233857 12.1875 26.5625 C12.97382812 27.14257812 13.76015625 27.72265625 14.5703125 28.3203125 C17.97357459 30.67304996 21.43884908 32.89436035 25 35 C21.8412581 38.1587419 17.4109173 38.06629753 13.1171875 38.6796875 C7.40233563 39.61445881 3.30834671 41.50845117 -0.72265625 45.859375 C-1.16480469 46.48328125 -1.60695312 47.1071875 -2.0625 47.75 C-2.55105469 48.43578125 -3.03960937 49.1215625 -3.54296875 49.828125 C-5.78261476 53.16657858 -7.92904889 56.55452382 -10 60 C-12.91316789 55.63024817 -13.16867546 50.98794723 -14.0234375 45.859375 C-15.91784981 38.37265756 -18.56583638 34.74343755 -25.0390625 30.83007812 C-25.76867187 30.41177734 -26.49828125 29.99347656 -27.25 29.5625 C-27.99507813 29.11712891 -28.74015625 28.67175781 -29.5078125 28.21289062 C-31.329617 27.12681487 -33.16362517 26.06125382 -35 25 C-31.09335023 22.39556682 -27.16298123 21.98136604 -22.625 21.23242188 C-18.47355104 20.48400329 -15.51674252 19.29547375 -12 17 C-11.34 17 -10.68 17 -10 17 C-9.7525 16.47921875 -9.505 15.9584375 -9.25 15.421875 C-7.63053927 12.28416983 -5.83028549 9.26731847 -4 6.25 C-3.64421875 5.64800781 -3.2884375 5.04601563 -2.921875 4.42578125 C-2.00381869 2.91509904 -1.00753807 1.45253405 0 0 Z " fill="#8D8D8D" transform="translate(112,38)"/>
<path d="M0 0 C1.5631897 0.00785522 1.5631897 0.00785522 3.15795898 0.01586914 C4.28266602 0.0190918 5.40737305 0.02231445 6.56616211 0.02563477 C7.75016602 0.03401367 8.93416992 0.04239258 10.15405273 0.05102539 C11.34192383 0.05553711 12.52979492 0.06004883 13.75366211 0.06469727 C16.69967499 0.07652864 19.64558954 0.09301252 22.59155273 0.11352539 C21.33564182 7.20359045 19.97161184 14.25981694 18.46655273 21.30102539 C17.84780273 24.20915039 17.22905273 27.11727539 16.59155273 30.11352539 C8.01155273 30.11352539 -0.56844727 30.11352539 -9.40844727 30.11352539 C-8.78969727 26.99915039 -8.17094727 23.88477539 -7.53344727 20.67602539 C-7.34282715 19.7138208 -7.15220703 18.75161621 -6.95581055 17.76025391 C-6.10785179 13.50700733 -5.24404499 9.25717612 -4.33813477 5.01586914 C-4.18328613 4.28746826 -4.0284375 3.55906738 -3.86889648 2.80859375 C-3.14520007 0.14442396 -2.82908405 0.13335267 0 0 Z " fill="#8D8D8D" transform="translate(58.408447265625,330.886474609375)"/>
</svg>
