<?xml version="1.0" encoding="UTF-8"?>
<svg xmlns="http://www.w3.org/2000/svg" xmlns:xlink="http://www.w3.org/1999/xlink" width="200px" height="px" viewBox="0 0 200 200" version="1.1">
<g id="surface1">
<path style=" stroke:none;fill-rule:nonzero;fill:rgb(55.29412%,55.29412%,55.29412%);fill-opacity:1;" d="M 96.671875 96.671875 C 96.671875 120.179688 96.671875 143.6875 96.671875 167.90625 C 94.992188 167.570312 93.425781 167.117188 91.804688 166.585938 C 73.136719 160.617188 52.785156 164.507812 34.214844 168.988281 C 33.746094 169.101562 33.273438 169.214844 32.789062 169.332031 C 32.160156 169.484375 32.160156 169.484375 31.519531 169.640625 C 30.527344 169.863281 30.527344 169.863281 29.746094 169.863281 C 29.992188 166.78125 30.648438 163.816406 31.328125 160.808594 C 31.546875 159.847656 31.761719 158.882812 31.976562 157.921875 C 32.699219 154.6875 33.433594 151.457031 34.171875 148.226562 C 34.609375 146.324219 35.039062 144.425781 35.472656 142.523438 C 35.558594 142.140625 35.648438 141.753906 35.738281 141.359375 C 36.984375 135.867188 38.121094 130.363281 39.179688 124.835938 C 39.621094 122.570312 40.082031 120.308594 40.542969 118.046875 C 40.90625 116.238281 41.257812 114.433594 41.578125 112.617188 C 43.503906 101.644531 43.503906 101.644531 45.972656 99.269531 C 48.152344 97.894531 50.433594 97.296875 52.957031 96.867188 C 54.371094 96.605469 55.601562 96.136719 56.941406 95.613281 C 71.09375 90.78125 83.054688 89.863281 96.671875 96.671875 Z M 96.671875 96.671875 "/>
<path style=" stroke:none;fill-rule:nonzero;fill:rgb(55.686277%,55.686277%,55.686277%);fill-opacity:1;" d="M 151.097656 99.515625 C 151.394531 99.578125 151.691406 99.640625 151.996094 99.703125 C 153.148438 99.953125 154.261719 100.214844 155.382812 100.585938 C 155.703125 101.390625 155.703125 101.390625 155.957031 102.484375 C 156.054688 102.902344 156.152344 103.320312 156.253906 103.75 C 156.414062 104.457031 156.414062 104.457031 156.574219 105.175781 C 156.691406 105.675781 156.808594 106.171875 156.925781 106.6875 C 157.261719 108.121094 157.585938 109.554688 157.90625 110.992188 C 158.128906 111.964844 158.347656 112.9375 158.570312 113.914062 C 159.671875 118.777344 160.757812 123.644531 161.839844 128.511719 C 162.292969 130.554688 162.75 132.597656 163.203125 134.636719 C 164.007812 138.242188 164.808594 141.847656 165.613281 145.453125 C 166.320312 148.640625 167.03125 151.832031 167.742188 155.019531 C 168.128906 156.753906 168.515625 158.492188 168.902344 160.226562 C 169.101562 161.117188 169.300781 162.011719 169.5 162.902344 C 169.765625 164.101562 170.03125 165.296875 170.296875 166.496094 C 170.375 166.839844 170.453125 167.183594 170.53125 167.535156 C 171.039062 169.816406 171.039062 169.816406 171.039062 170.253906 C 168.523438 170.019531 166.027344 169.726562 163.527344 169.351562 C 162.84375 169.253906 162.15625 169.152344 161.472656 169.054688 C 161.117188 169 160.761719 168.949219 160.398438 168.898438 C 141.640625 166.191406 122.554688 164.597656 103.71875 167.515625 C 103.308594 163.988281 103.269531 160.480469 103.277344 156.9375 C 103.277344 156.316406 103.273438 155.695312 103.273438 155.074219 C 103.273438 153.398438 103.273438 151.722656 103.273438 150.046875 C 103.273438 148.289062 103.273438 146.53125 103.273438 144.773438 C 103.273438 141.824219 103.273438 138.875 103.277344 135.925781 C 103.277344 132.515625 103.277344 129.109375 103.273438 125.703125 C 103.273438 122.769531 103.273438 119.839844 103.273438 116.910156 C 103.273438 115.160156 103.273438 113.410156 103.273438 111.664062 C 103.273438 110.019531 103.273438 108.378906 103.273438 106.738281 C 103.277344 106.136719 103.277344 105.535156 103.273438 104.933594 C 103.273438 104.109375 103.273438 103.289062 103.277344 102.464844 C 103.277344 102.003906 103.277344 101.546875 103.277344 101.070312 C 103.324219 99.835938 103.484375 98.671875 103.71875 97.457031 C 120.144531 95.335938 134.894531 96.078125 151.097656 99.515625 Z M 112.328125 103.71875 C 112.324219 103.992188 112.320312 104.265625 112.316406 104.546875 C 112.308594 105.203125 112.300781 105.855469 112.289062 106.507812 C 112.335938 107.816406 112.527344 109.078125 112.71875 110.371094 C 113.386719 110.332031 113.386719 110.332031 114.070312 110.289062 C 118.734375 110.015625 123.382812 109.902344 128.058594 109.90625 C 128.40625 109.90625 128.753906 109.90625 129.109375 109.90625 C 134.359375 109.90625 139.523438 110.128906 144.75 110.691406 C 145.949219 110.792969 147.132812 110.789062 148.335938 110.761719 C 148.160156 109.9375 147.980469 109.117188 147.796875 108.292969 C 147.699219 107.832031 147.597656 107.375 147.496094 106.902344 C 147.21875 105.625 147.21875 105.625 146.378906 104.5 C 145.210938 104.1875 145.210938 104.1875 143.800781 104.042969 C 143.539062 104.011719 143.273438 103.976562 143 103.941406 C 142.121094 103.835938 141.242188 103.738281 140.363281 103.644531 C 139.910156 103.59375 139.910156 103.59375 139.449219 103.542969 C 134.6875 103.015625 129.957031 102.785156 125.171875 102.789062 C 124.886719 102.789062 124.597656 102.789062 124.304688 102.785156 C 120.261719 102.789062 116.328125 103.132812 112.328125 103.71875 Z M 112.71875 127.984375 C 112.71875 130.179688 112.71875 132.375 112.71875 134.636719 C 113.6875 134.574219 114.65625 134.511719 115.652344 134.445312 C 119.007812 134.242188 122.351562 134.1875 125.710938 134.195312 C 126.292969 134.195312 126.871094 134.195312 127.453125 134.195312 C 128.660156 134.191406 129.863281 134.195312 131.070312 134.195312 C 132.59375 134.199219 134.121094 134.195312 135.648438 134.195312 C 136.84375 134.191406 138.039062 134.191406 139.234375 134.195312 C 139.796875 134.195312 140.359375 134.195312 140.917969 134.191406 C 144.839844 134.1875 148.730469 134.351562 152.640625 134.636719 C 152.609375 134.277344 152.609375 134.277344 152.574219 133.910156 C 152.519531 133.335938 152.464844 132.765625 152.414062 132.191406 C 152.195312 130.757812 151.832031 129.386719 151.46875 127.984375 C 138.476562 127.117188 125.710938 127.128906 112.71875 127.984375 Z M 112.71875 140.507812 C 112.714844 143.894531 112.714844 143.894531 113.113281 147.164062 C 120.691406 147.203125 128.242188 147.207031 135.8125 146.769531 C 135.757812 145.949219 135.699219 145.125 135.640625 144.300781 C 135.609375 143.839844 135.578125 143.382812 135.542969 142.910156 C 135.464844 141.671875 135.464844 141.671875 135.03125 140.507812 C 127.667969 140.507812 120.304688 140.507812 112.71875 140.507812 Z M 142.855469 140.507812 C 143.058594 142.734375 143.273438 144.960938 143.640625 147.164062 C 147.644531 147.164062 151.648438 147.164062 155.773438 147.164062 C 155.566406 143.804688 155.566406 143.804688 154.988281 140.507812 C 150.984375 140.507812 146.980469 140.507812 142.855469 140.507812 Z M 113.113281 153.816406 C 113.113281 156.011719 113.113281 158.207031 113.113281 160.46875 C 113.851562 160.464844 114.59375 160.457031 115.355469 160.449219 C 142.105469 160.25 142.105469 160.25 154.988281 161.644531 C 156.425781 161.78125 157.859375 161.910156 159.296875 162.035156 C 159.238281 161.246094 159.183594 160.453125 159.125 159.664062 C 159.09375 159.222656 159.0625 158.78125 159.027344 158.328125 C 158.902344 156.945312 158.722656 155.582031 158.511719 154.207031 C 143.613281 152.148438 128.070312 152.6875 113.113281 153.816406 Z M 113.113281 153.816406 "/>
<path style=" stroke:none;fill-rule:nonzero;fill:rgb(55.686277%,55.686277%,55.686277%);fill-opacity:1;" d="M 10.175781 185.910156 C 69.589844 185.910156 129.003906 185.910156 190.214844 185.910156 C 190.214844 188.234375 190.214844 190.558594 190.214844 192.953125 C 130.800781 192.953125 71.390625 192.953125 10.175781 192.953125 C 10.175781 190.628906 10.175781 188.304688 10.175781 185.910156 Z M 10.175781 185.910156 "/>
<path style=" stroke:none;fill-rule:nonzero;fill:rgb(55.686277%,55.686277%,55.686277%);fill-opacity:1;" d="M 73.972656 36.789062 C 75.394531 38.15625 76.601562 39.566406 77.789062 41.144531 C 78.132812 41.59375 78.476562 42.046875 78.820312 42.496094 C 79.464844 43.339844 80.105469 44.183594 80.742188 45.027344 C 84.25 49.53125 87.925781 51.707031 93.542969 52.445312 C 94.515625 52.527344 95.488281 52.59375 96.464844 52.65625 C 96.730469 52.671875 96.996094 52.6875 97.269531 52.707031 C 98.105469 52.757812 98.941406 52.8125 99.78125 52.863281 C 100.351562 52.898438 100.925781 52.933594 101.496094 52.96875 C 102.890625 53.058594 104.28125 53.144531 105.675781 53.230469 C 104.597656 54.332031 103.546875 55.378906 102.292969 56.28125 C 102.039062 56.46875 101.78125 56.65625 101.519531 56.847656 C 101.25 57.042969 100.984375 57.238281 100.710938 57.4375 C 94.957031 61.707031 91.285156 65.121094 90.019531 72.40625 C 89.761719 74.59375 89.664062 76.789062 89.554688 78.988281 C 89.523438 79.566406 89.492188 80.148438 89.457031 80.726562 C 89.378906 82.128906 89.304688 83.53125 89.238281 84.929688 C 88.132812 83.855469 87.089844 82.800781 86.183594 81.550781 C 85.996094 81.292969 85.808594 81.039062 85.617188 80.773438 C 85.421875 80.507812 85.230469 80.242188 85.03125 79.964844 C 80.917969 74.425781 77.476562 70.5625 70.449219 69.277344 C 68.207031 69.011719 65.953125 68.917969 63.699219 68.8125 C 63.097656 68.777344 62.496094 68.746094 61.894531 68.714844 C 60.441406 68.636719 58.988281 68.5625 57.535156 68.492188 C 58.855469 67.152344 60.167969 65.980469 61.691406 64.871094 C 67.230469 60.757812 71.820312 57.316406 73.050781 50.199219 C 73.671875 45.757812 73.804688 41.265625 73.972656 36.789062 Z M 73.972656 36.789062 "/>
<path style=" stroke:none;fill-rule:nonzero;fill:rgb(55.29412%,55.29412%,55.29412%);fill-opacity:1;" d="M 163.210938 104.5 C 166.308594 104.5 169.410156 104.5 172.601562 104.5 C 173.164062 105.902344 173.554688 107.035156 173.867188 108.476562 C 173.953125 108.878906 174.039062 109.277344 174.128906 109.6875 C 174.222656 110.121094 174.316406 110.558594 174.410156 111.003906 C 174.511719 111.464844 174.613281 111.925781 174.714844 112.402344 C 174.988281 113.671875 175.261719 114.9375 175.535156 116.207031 C 175.828125 117.554688 176.117188 118.902344 176.410156 120.253906 C 176.96875 122.828125 177.523438 125.402344 178.078125 127.980469 C 179.054688 132.507812 180.035156 137.035156 181.015625 141.566406 C 181.375 143.226562 181.734375 144.886719 182.089844 146.546875 C 183.269531 152.007812 184.453125 157.464844 185.660156 162.917969 C 185.761719 163.382812 185.867188 163.84375 185.972656 164.324219 C 186.449219 166.480469 186.925781 168.640625 187.410156 170.796875 C 187.574219 171.546875 187.742188 172.296875 187.910156 173.046875 C 188.023438 173.554688 188.023438 173.554688 188.140625 174.074219 C 188.410156 175.300781 188.648438 176.429688 188.648438 177.691406 C 185.550781 177.691406 182.449219 177.691406 179.257812 177.691406 C 178.964844 176.394531 178.671875 175.097656 178.375 173.765625 C 177.738281 170.945312 177.105469 168.125 176.46875 165.304688 C 176.296875 164.539062 176.125 163.769531 175.953125 163 C 175.832031 162.476562 175.714844 161.949219 175.597656 161.421875 C 174.863281 158.167969 174.132812 154.914062 173.402344 151.660156 C 172.734375 148.699219 172.070312 145.742188 171.40625 142.785156 C 171.347656 142.519531 171.285156 142.253906 171.226562 141.980469 C 169.816406 135.714844 168.402344 129.453125 166.976562 123.191406 C 166.773438 122.292969 166.570312 121.398438 166.363281 120.503906 C 166.238281 119.949219 166.113281 119.394531 165.984375 118.839844 C 165.898438 118.445312 165.898438 118.445312 165.804688 118.046875 C 165.414062 116.324219 165.019531 114.597656 164.621094 112.875 C 164.425781 112.019531 164.230469 111.164062 164.035156 110.304688 C 163.949219 109.933594 163.863281 109.5625 163.773438 109.179688 C 163.699219 108.84375 163.621094 108.507812 163.542969 108.164062 C 163.480469 107.878906 163.414062 107.59375 163.347656 107.296875 C 163.210938 106.457031 163.210938 106.457031 163.210938 104.5 Z M 163.210938 104.5 "/>
<path style=" stroke:none;fill-rule:nonzero;fill:rgb(55.29412%,55.29412%,55.29412%);fill-opacity:1;" d="M 69.824219 170.128906 C 70.816406 170.132812 71.804688 170.121094 72.792969 170.113281 C 81.199219 170.082031 89.113281 171.578125 96.671875 175.34375 C 96.671875 176.375 96.671875 177.410156 96.671875 178.472656 C 92.410156 178.546875 88.144531 178.609375 83.878906 178.667969 C 83.382812 178.675781 83.382812 178.675781 82.878906 178.683594 C 69.414062 178.871094 55.953125 178.898438 42.488281 178.890625 C 42.007812 178.890625 41.523438 178.890625 41.023438 178.886719 C 35.046875 178.882812 29.070312 178.875 23.09375 178.863281 C 24.199219 178.125 24.917969 177.84375 26.179688 177.503906 C 26.574219 177.394531 26.964844 177.289062 27.371094 177.179688 C 27.800781 177.066406 28.226562 176.953125 28.667969 176.835938 C 29.117188 176.714844 29.566406 176.597656 30.027344 176.472656 C 38.570312 174.234375 47.210938 172.21875 55.96875 171.039062 C 56.214844 171.003906 56.464844 170.96875 56.71875 170.933594 C 61.09375 170.355469 65.414062 170.121094 69.824219 170.128906 Z M 69.824219 170.128906 "/>
<path style=" stroke:none;fill-rule:nonzero;fill:rgb(55.686277%,55.686277%,55.686277%);fill-opacity:1;" d="M 124.851562 8.21875 C 126.734375 8.425781 128.089844 9.324219 129.648438 10.324219 C 133.027344 12.410156 136.078125 13.957031 140.167969 13.140625 C 141.015625 12.917969 141.847656 12.667969 142.6875 12.402344 C 142.964844 12.320312 143.246094 12.234375 143.535156 12.148438 C 144.890625 11.734375 146.195312 11.277344 147.492188 10.699219 C 148.726562 10.175781 148.726562 10.175781 149.902344 10.175781 C 149.347656 11.683594 148.636719 12.988281 147.796875 14.359375 C 145.664062 18.007812 144.113281 21.128906 144.8125 25.441406 C 145.496094 27.9375 146.363281 30.375 147.257812 32.800781 C 147.535156 33.605469 147.753906 34.398438 147.945312 35.226562 C 147.25 34.882812 146.558594 34.539062 145.867188 34.199219 C 145.4375 33.984375 145.007812 33.773438 144.5625 33.550781 C 143.371094 32.941406 142.226562 32.28125 141.070312 31.605469 C 137.515625 29.664062 134.582031 29.542969 130.722656 30.527344 C 129.320312 30.960938 127.945312 31.445312 126.566406 31.945312 C 126.03125 32.136719 126.03125 32.136719 125.488281 32.332031 C 124.621094 32.640625 123.757812 32.953125 122.894531 33.269531 C 123.4375 31.425781 124.238281 29.863281 125.21875 28.230469 C 127.304688 24.636719 128.621094 21.859375 127.984375 17.613281 C 127.308594 15.097656 126.433594 12.648438 125.539062 10.207031 C 125.300781 9.546875 125.074219 8.882812 124.851562 8.21875 Z M 124.851562 8.21875 "/>
<path style=" stroke:none;fill-rule:nonzero;fill:rgb(55.29412%,55.29412%,55.29412%);fill-opacity:1;" d="M 18.554688 148.292969 C 19.167969 148.296875 19.167969 148.296875 19.792969 148.296875 C 20.230469 148.300781 20.671875 148.300781 21.125 148.300781 C 21.589844 148.304688 22.050781 148.308594 22.53125 148.3125 C 22.996094 148.3125 23.460938 148.316406 23.9375 148.316406 C 25.089844 148.320312 26.246094 148.328125 27.398438 148.335938 C 27.101562 151.433594 26.382812 154.4375 25.695312 157.46875 C 25.566406 158.050781 25.4375 158.628906 25.308594 159.210938 C 25.035156 160.421875 24.761719 161.632812 24.488281 162.84375 C 24.140625 164.394531 23.789062 165.945312 23.441406 167.5 C 23.175781 168.695312 22.90625 169.890625 22.636719 171.089844 C 22.507812 171.660156 22.378906 172.234375 22.25 172.804688 C 22.074219 173.605469 21.890625 174.402344 21.710938 175.199219 C 21.609375 175.652344 21.507812 176.109375 21.402344 176.574219 C 21.136719 177.691406 21.136719 177.691406 20.742188 178.863281 C 17.386719 178.863281 14.027344 178.863281 10.566406 178.863281 C 11.449219 173.578125 11.449219 173.578125 11.972656 171.304688 C 12.027344 171.058594 12.085938 170.808594 12.144531 170.554688 C 12.328125 169.753906 12.511719 168.957031 12.695312 168.160156 C 12.828125 167.59375 12.957031 167.03125 13.085938 166.46875 C 13.355469 165.300781 13.625 164.132812 13.894531 162.964844 C 14.242188 161.46875 14.589844 159.96875 14.933594 158.46875 C 15.199219 157.3125 15.464844 156.15625 15.734375 154.996094 C 15.863281 154.445312 15.988281 153.890625 16.117188 153.335938 C 16.292969 152.570312 16.472656 151.800781 16.648438 151.035156 C 16.75 150.597656 16.851562 150.160156 16.957031 149.710938 C 17.324219 148.351562 17.324219 148.351562 18.554688 148.292969 Z M 18.554688 148.292969 "/>
<path style=" stroke:none;fill-rule:nonzero;fill:rgb(55.686277%,55.686277%,55.686277%);fill-opacity:1;" d="M 124.558594 172.457031 C 125.085938 172.457031 125.609375 172.460938 126.132812 172.460938 C 134.117188 172.492188 141.980469 172.71875 149.902344 173.777344 C 150.460938 173.851562 150.460938 173.851562 151.027344 173.925781 C 155.679688 174.546875 160.328125 175.195312 164.96875 175.882812 C 165.328125 175.933594 165.683594 175.988281 166.050781 176.039062 C 168.382812 176.390625 170.6875 176.816406 172.992188 177.300781 C 171.667969 178.183594 171.207031 178.183594 169.652344 178.191406 C 169.203125 178.195312 168.75 178.199219 168.285156 178.203125 C 167.789062 178.207031 167.292969 178.207031 166.785156 178.207031 C 166.257812 178.210938 165.730469 178.214844 165.203125 178.21875 C 163.765625 178.230469 162.328125 178.234375 160.890625 178.242188 C 159.375 178.246094 157.859375 178.257812 156.34375 178.265625 C 153.789062 178.285156 151.230469 178.296875 148.675781 178.308594 C 145.113281 178.324219 141.554688 178.34375 137.996094 178.367188 C 126.570312 178.4375 115.144531 178.484375 103.71875 178.472656 C 103.621094 177.914062 103.53125 177.347656 103.449219 176.785156 C 103.398438 176.472656 103.347656 176.160156 103.296875 175.835938 C 103.328125 174.949219 103.328125 174.949219 103.859375 174.265625 C 105.101562 173.320312 106.652344 173.316406 108.164062 173.125 C 108.542969 173.078125 108.921875 173.027344 109.3125 172.976562 C 114.378906 172.378906 119.464844 172.421875 124.558594 172.457031 Z M 124.558594 172.457031 "/>
<path style=" stroke:none;fill-rule:nonzero;fill:rgb(55.29412%,55.29412%,55.29412%);fill-opacity:1;" d="M 28.695312 104.457031 C 29.085938 104.457031 29.476562 104.460938 29.882812 104.460938 C 30.304688 104.464844 30.726562 104.464844 31.160156 104.464844 C 31.828125 104.472656 31.828125 104.472656 32.511719 104.476562 C 33.179688 104.480469 33.179688 104.480469 33.863281 104.480469 C 34.96875 104.488281 36.074219 104.492188 37.183594 104.5 C 36.953125 106.859375 36.601562 109.125 36.082031 111.4375 C 36.011719 111.742188 35.945312 112.050781 35.875 112.367188 C 35.734375 113.007812 35.589844 113.648438 35.445312 114.289062 C 35.222656 115.273438 35.003906 116.257812 34.789062 117.242188 C 34.648438 117.867188 34.507812 118.492188 34.367188 119.117188 C 34.304688 119.410156 34.238281 119.707031 34.171875 120.011719 C 33.703125 122.070312 33.703125 122.070312 33.269531 122.503906 C 32.542969 122.539062 31.816406 122.546875 31.089844 122.542969 C 30.648438 122.542969 30.210938 122.539062 29.753906 122.539062 C 29.292969 122.535156 28.828125 122.53125 28.351562 122.53125 C 27.886719 122.527344 27.421875 122.527344 26.941406 122.523438 C 25.789062 122.519531 24.636719 122.511719 23.484375 122.503906 C 24.324219 118.085938 25.25 113.695312 26.296875 109.320312 C 26.398438 108.886719 26.5 108.457031 26.605469 108.011719 C 26.703125 107.609375 26.800781 107.207031 26.898438 106.796875 C 26.988281 106.4375 27.074219 106.078125 27.160156 105.710938 C 27.484375 104.589844 27.511719 104.515625 28.695312 104.457031 Z M 28.695312 104.457031 "/>
<path style=" stroke:none;fill-rule:nonzero;fill:rgb(55.29412%,55.29412%,55.29412%);fill-opacity:1;" d="M 148.726562 58.707031 C 148.984375 58.707031 149.246094 58.707031 149.511719 58.707031 C 150.101562 59.449219 150.65625 60.1875 151.199219 60.957031 C 152.960938 63.4375 154.394531 65.03125 157.40625 65.609375 C 159.722656 65.914062 162.054688 66.027344 164.382812 66.144531 C 163.277344 67.261719 162.171875 68.367188 160.984375 69.398438 C 160.753906 69.597656 160.527344 69.800781 160.292969 70.003906 C 159.6875 70.449219 159.6875 70.449219 158.902344 70.449219 C 158.636719 70.96875 158.375 71.492188 158.121094 72.015625 C 157.992188 72.277344 157.863281 72.539062 157.730469 72.8125 C 157.175781 74.453125 157.054688 76.089844 156.898438 77.8125 C 156.863281 78.160156 156.832031 78.503906 156.796875 78.859375 C 156.714844 79.710938 156.632812 80.558594 156.554688 81.410156 C 155.324219 80.199219 154.167969 78.964844 153.058594 77.640625 C 150.691406 74.964844 148.378906 74.410156 144.902344 74.191406 C 144.640625 74.175781 144.375 74.160156 144.105469 74.144531 C 143.699219 74.117188 143.699219 74.117188 143.28125 74.09375 C 142.621094 74.050781 141.957031 74.011719 141.292969 73.972656 C 142.558594 72.675781 143.867188 71.488281 145.253906 70.328125 C 148.367188 67.492188 148.457031 64.953125 148.648438 60.914062 C 148.679688 60.179688 148.703125 59.445312 148.726562 58.707031 Z M 148.726562 58.707031 "/>
<path style=" stroke:none;fill-rule:nonzero;fill:rgb(55.29412%,55.29412%,55.29412%);fill-opacity:1;" d="M 43.835938 14.871094 C 44.09375 14.871094 44.351562 14.871094 44.617188 14.871094 C 44.691406 15.324219 44.761719 15.777344 44.832031 16.246094 C 44.933594 16.847656 45.03125 17.449219 45.132812 18.054688 C 45.203125 18.5 45.203125 18.5 45.273438 18.953125 C 45.714844 21.597656 46.367188 23.625 48.605469 25.269531 C 48.914062 25.496094 49.222656 25.722656 49.539062 25.957031 C 50.871094 26.878906 52.226562 27.746094 53.621094 28.570312 C 52.382812 29.808594 50.648438 29.773438 48.96875 30.011719 C 46.734375 30.378906 45.128906 31.117188 43.554688 32.820312 C 43.378906 33.066406 43.207031 33.308594 43.027344 33.5625 C 42.835938 33.828125 42.644531 34.097656 42.449219 34.375 C 41.574219 35.679688 40.730469 37.007812 39.921875 38.355469 C 38.78125 36.644531 38.679688 34.828125 38.347656 32.820312 C 37.605469 29.890625 36.570312 28.472656 34.035156 26.9375 C 33.75 26.777344 33.464844 26.613281 33.171875 26.441406 C 32.878906 26.269531 32.585938 26.09375 32.285156 25.914062 C 31.574219 25.488281 30.855469 25.074219 30.136719 24.65625 C 31.664062 23.636719 33.203125 23.476562 34.980469 23.183594 C 36.605469 22.890625 37.761719 22.425781 39.140625 21.527344 C 39.398438 21.527344 39.65625 21.527344 39.921875 21.527344 C 40.019531 21.324219 40.117188 21.117188 40.214844 20.910156 C 40.847656 19.679688 41.554688 18.5 42.269531 17.320312 C 42.410156 17.082031 42.546875 16.847656 42.691406 16.605469 C 43.050781 16.015625 43.441406 15.441406 43.835938 14.871094 Z M 43.835938 14.871094 "/>
<path style=" stroke:none;fill-rule:nonzero;fill:rgb(55.29412%,55.29412%,55.29412%);fill-opacity:1;" d="M 22.859375 129.503906 C 23.472656 129.507812 23.472656 129.507812 24.097656 129.511719 C 24.535156 129.511719 24.976562 129.515625 25.429688 129.515625 C 25.894531 129.519531 26.355469 129.523438 26.835938 129.527344 C 27.300781 129.527344 27.765625 129.527344 28.242188 129.53125 C 29.398438 129.535156 30.550781 129.542969 31.703125 129.550781 C 31.210938 132.324219 30.675781 135.085938 30.089844 137.84375 C 29.847656 138.980469 29.605469 140.117188 29.355469 141.292969 C 25.996094 141.292969 22.636719 141.292969 19.179688 141.292969 C 19.421875 140.074219 19.664062 138.855469 19.910156 137.597656 C 19.988281 137.222656 20.0625 136.84375 20.136719 136.457031 C 20.46875 134.792969 20.808594 133.128906 21.164062 131.46875 C 21.222656 131.183594 21.285156 130.898438 21.347656 130.605469 C 21.628906 129.5625 21.753906 129.558594 22.859375 129.503906 Z M 22.859375 129.503906 "/>
</g>
</svg>
