<?xml version="1.0" encoding="UTF-8"?>
<svg version="1.1" xmlns="http://www.w3.org/2000/svg" width="37" height="27">
<path d="M0 0 C1.91500303 0.15898854 1.91500303 0.15898854 4 0.125 C4.70125 0.12757813 5.4025 0.13015625 6.125 0.1328125 C8.09153775 0.11377236 8.09153775 0.11377236 10 -1 C13.02718204 -0.71441679 14.46985376 -0.52568904 17 1 C22.3759731 7.64641451 22.63515293 14.78535543 22 23 C16.75358852 26.05023923 16.75358852 26.05023923 13.1875 25.8125 C11 25 11 25 10 23 C5.71 23 1.42 23 -3 23 C-3.33 23.99 -3.66 24.98 -4 26 C-11.58808933 24.96526055 -11.58808933 24.96526055 -14 23 C-16.23027171 15.86313054 -13.52014433 9.64834639 -10.75 3 C-8.03449235 -0.10343731 -3.87286995 -1.93643498 0 0 Z M-4 11 C-5.29633621 12.06645115 -5.29633621 12.06645115 -5.0625 14.5625 C-5.041875 15.366875 -5.02125 16.17125 -5 17 C-3.10820797 17.6814823 -3.10820797 17.6814823 -1 18 C-0.34 17.34 0.32 16.68 1 16 C0.67958603 13.39719432 0.67958603 13.39719432 0 11 C-1.32 11 -2.64 11 -4 11 Z M8 11 C7.67 12.65 7.34 14.3 7 16 C8.98 16.99 8.98 16.99 11 18 C11.66 17.34 12.32 16.68 13 16 C12.67958603 13.39719432 12.67958603 13.39719432 12 11 C10.68 11 9.36 11 8 11 Z " fill="#A4A4A4" transform="translate(15,1)"/>
</svg>
