<?xml version="1.0" encoding="UTF-8"?>
<svg version="1.1" xmlns="http://www.w3.org/2000/svg" width="310" height="310">
<path d="M0 0 C0.78858398 0.00153076 1.57716797 0.00306152 2.38964844 0.00463867 C3.2169043 0.0055249 4.04416016 0.00641113 4.89648438 0.00732422 C16.53125967 0.21729589 27.96148123 2.33747241 39.38964844 4.37963867 C40.23833496 4.52868652 41.08702148 4.67773438 41.96142578 4.83129883 C53.69727644 6.91805734 53.69727644 6.91805734 57.38964844 9.37963867 C58.10986328 11.67944336 58.10986328 11.67944336 58.60058594 14.55151367 C58.79112549 15.60234131 58.98166504 16.65316895 59.17797852 17.73583984 C59.46838013 19.41577026 59.46838013 19.41577026 59.76464844 21.12963867 C61.33647429 29.67777086 63.11814127 37.57193381 66.47167969 45.61010742 C67.48844252 48.67770252 67.5561228 51.16906167 67.38964844 54.37963867 C49.92332175 58.20704243 32.85727958 54.74618828 17.25439453 46.80639648 C13.99635258 45.18376165 10.69615766 43.67992872 7.37792969 42.18432617 C-1.87920552 38.0047146 -1.87920552 38.0047146 -6.46582031 35.88354492 C-7.41094482 35.44856689 -8.35606934 35.01358887 -9.32983398 34.56542969 C-11.61035156 33.37963867 -11.61035156 33.37963867 -13.61035156 31.37963867 C-13.236394 24.70744849 -11.81572711 18.40347721 -10.17285156 11.94213867 C-9.95564453 11.0455957 -9.7384375 10.14905273 -9.51464844 9.2253418 C-9.30001953 8.37004883 -9.08539063 7.51475586 -8.86425781 6.63354492 C-8.67162354 5.86341064 -8.47898926 5.09327637 -8.28051758 4.29980469 C-6.75537329 -0.07005318 -4.19736661 0.08441895 0 0 Z " fill="#A5A4A5" transform="translate(105.6103515625,116.620361328125)"/>
<path d="M0 0 C2.27655479 1.50389232 3.52457723 2.99731604 5.12207031 5.20605469 C5.69554199 5.99101318 6.26901367 6.77597168 6.85986328 7.5847168 C7.45814941 8.42268799 8.05643555 9.26065918 8.67285156 10.12402344 C9.28918457 10.97681885 9.90551758 11.82961426 10.54052734 12.70825195 C11.78103384 14.42945067 13.01741378 16.15363151 14.24951172 17.88085938 C15.78870182 20.03615849 17.34300653 22.17932034 18.90332031 24.31933594 C19.72351737 25.46171406 20.54262162 26.60487802 21.36035156 27.74902344 C22.06933594 28.73773438 22.77832031 29.72644531 23.50878906 30.74511719 C24.98535156 33.31152344 24.98535156 33.31152344 24.98535156 37.31152344 C15.0851506 38.24483809 5.25031058 38.47463247 -4.68261719 38.47949219 C-6.25433887 38.48271595 -7.82606027 38.4860808 -9.39778137 38.48957825 C-12.66778255 38.49551714 -15.93775749 38.49742332 -19.20776367 38.49682617 C-23.37324218 38.49672419 -27.53855161 38.51043667 -31.70398998 38.52759838 C-34.94099181 38.53877047 -38.17795319 38.54074388 -41.41497231 38.54021645 C-42.95018413 38.54138639 -44.48539735 38.54575191 -46.02058983 38.55354881 C-63.76203795 38.63531508 -63.76203795 38.63531508 -70.01464844 36.31152344 C-72.70214844 33.56152344 -72.70214844 33.56152344 -74.01464844 30.31152344 C-73.9532582 27.18062157 -73.73454824 25.26840147 -71.83837891 22.74804688 C-69.33414308 20.77550021 -66.9873961 20.28162492 -63.89746094 19.51464844 C-62.66084717 19.19939209 -61.4242334 18.88413574 -60.15014648 18.55932617 C-59.49573578 18.39681366 -58.84132507 18.23430115 -58.16708374 18.06686401 C-54.74327851 17.21347663 -51.32999585 16.32027209 -47.91699219 15.42480469 C-47.23645279 15.24647598 -46.55591339 15.06814728 -45.85475159 14.88441467 C-32.65286527 11.39319013 -19.73378976 7.02209095 -7.33959961 1.26831055 C-2.53147662 -0.86509502 -2.53147662 -0.86509502 0 0 Z " fill="#A2A1A2" transform="translate(153.0146484375,262.6884765625)"/>
<path d="M0 0 C4.06431804 0.39388761 7.82423442 1.46690202 11.703125 2.70703125 C13.29833984 3.2165332 13.29833984 3.2165332 14.92578125 3.73632812 C16.02277344 4.09146484 17.11976562 4.44660156 18.25 4.8125 C19.33152344 5.15603516 20.41304687 5.49957031 21.52734375 5.85351562 C24.69586704 6.87210604 27.8486785 7.92951197 31 9 C31.95414795 9.30534668 32.9082959 9.61069336 33.89135742 9.92529297 C38.21337596 11.43255985 40.48776616 12.33418181 43.33203125 16.03125 C44.06486328 17.74828125 44.06486328 17.74828125 44.8125 19.5 C45.08328369 20.11222412 45.35406738 20.72444824 45.63305664 21.35522461 C46.1831228 22.61156857 46.71805332 23.87465298 47.23730469 25.14404297 C47.96547394 26.91598365 48.75100407 28.66402678 49.5390625 30.41015625 C51.66888443 35.21117942 53.1196969 38.72175279 53 44 C45.68949662 47.01551923 38.30314425 49.71715849 30.8125 52.25 C29.77158203 52.61351562 28.73066406 52.97703125 27.65820312 53.3515625 C17.12064542 56.91091532 17.12064542 56.91091532 12 56 C1.53761727 47.97834382 -1.73371007 29.73462761 -3.53515625 17.30859375 C-4.10155239 11.58603965 -4.21989393 7.40429349 -2 2 C-1.34 1.34 -0.68 0.68 0 0 Z " fill="#A6A4A5" transform="translate(66,220)"/>
<path d="M0 0 C1.09935379 0.48661606 1.09935379 0.48661606 2.22091675 0.98306274 C3.76060086 1.66656229 5.29843407 2.35424516 6.83447266 3.04589844 C9.17594788 4.09987916 11.52287326 5.14083436 13.87109375 6.1796875 C15.37273126 6.84820541 16.87404473 7.51745173 18.375 8.1875 C19.07094269 8.49698578 19.76688538 8.80647156 20.48391724 9.12533569 C24.15956209 10.78427497 27.64665459 12.56904783 31.0546875 14.7265625 C30.83789062 16.5715332 30.83789062 16.5715332 30.0546875 18.7265625 C28.09960937 20.04760742 28.09960937 20.04760742 25.5234375 21.20703125 C24.10297119 21.86264038 24.10297119 21.86264038 22.65380859 22.53149414 C21.63109863 22.9877417 20.60838867 23.44398926 19.5546875 23.9140625 C17.43095063 24.89292906 15.30856116 25.874724 13.1875 26.859375 C12.13852539 27.34438477 11.08955078 27.82939453 10.00878906 28.32910156 C6.07676638 30.18917576 2.24963108 32.2108597 -1.5703125 34.2890625 C-8.06585943 37.78176309 -14.62889459 41.11881594 -21.2578125 44.3515625 C-22.16031738 44.80217041 -23.06282227 45.25277832 -23.99267578 45.71704102 C-24.83942871 46.12494873 -25.68618164 46.53285645 -26.55859375 46.953125 C-27.30923096 47.32002441 -28.05986816 47.68692383 -28.83325195 48.06494141 C-31.354533 48.85475433 -32.52885349 48.76888158 -34.9453125 47.7265625 C-36.99248302 44.65580671 -37.41888515 43.03089986 -38.015625 39.46484375 C-38.27666016 37.90926758 -38.27666016 37.90926758 -38.54296875 36.32226562 C-38.71699219 35.23880859 -38.89101563 34.15535156 -39.0703125 33.0390625 C-39.34294922 31.44288086 -39.34294922 31.44288086 -39.62109375 29.81445312 C-42.14638735 14.44433907 -42.14638735 14.44433907 -39.57421875 10.765625 C-37.05261607 9.04006702 -34.53575194 7.34925287 -31.9453125 5.7265625 C-31.29127441 5.29956055 -30.63723633 4.87255859 -29.96337891 4.43261719 C-27.76524677 3.00305924 -25.54765418 1.61011544 -23.3203125 0.2265625 C-22.60431885 -0.23153809 -21.8883252 -0.68963867 -21.15063477 -1.16162109 C-20.45123779 -1.58008301 -19.75184082 -1.99854492 -19.03125 -2.4296875 C-18.4129834 -2.80931641 -17.7947168 -3.18894531 -17.15771484 -3.58007812 C-11.22021479 -5.44087046 -5.35314285 -2.42579503 0 0 Z " fill="#A3A3A4" transform="translate(97.9453125,159.2734375)"/>
<path d="M0 0 C2.42839751 2.42839751 2.28105081 3.78247282 2.32836914 7.10522461 C2.32051392 8.13595093 2.32051392 8.13595093 2.3125 9.1875 C2.31048584 9.89205322 2.30847168 10.59660645 2.30639648 11.32250977 C1.95839596 30.04160404 1.95839596 30.04160404 -2 34 C-7.22021156 34.00529098 -12.08438477 33.11885901 -16.98046875 31.34375 C-30.41780511 26.49865538 -38.88484789 27.2192178 -52.15625 32.35546875 C-55.08075336 33.42545655 -57.255512 34.02387136 -60.38671875 34.31640625 C-64.73203468 32.12751019 -65.67243777 28.14290829 -67.3125 23.75 C-67.65861328 22.89019531 -68.00472656 22.03039062 -68.36132812 21.14453125 C-69.95714813 17.10676445 -71.229876 13.28319425 -72 9 C-68.8606004 6.90706693 -68.18251662 6.75987677 -64.6171875 6.76171875 C-63.26052979 6.74238281 -63.26052979 6.74238281 -61.87646484 6.72265625 C-60.88598145 6.71105469 -59.89549805 6.69945312 -58.875 6.6875 C-48.22171919 6.42162495 -37.88206091 5.15736637 -27.375 3.5 C-26.65358826 3.38627045 -25.93217651 3.27254089 -25.18890381 3.15536499 C-19.70935423 2.2853462 -14.23468966 1.38758479 -8.76806641 0.43945312 C-5.7704871 -0.03643705 -3.02934587 -0.20654631 0 0 Z " fill="#A6A4A5" transform="translate(190,226)"/>
<path d="M0 0 C6.95000851 0.67405476 13.52821335 2.25447553 20.28515625 3.984375 C22.04598793 4.43058197 22.04598793 4.43058197 23.84239197 4.88580322 C26.32156853 5.51552742 28.80011923 6.14772014 31.27807617 6.78222656 C35.02396374 7.7401453 38.77252321 8.68700421 42.52148438 9.6328125 C63.08278317 14.8501487 63.08278317 14.8501487 71.94140625 17.64453125 C73.02494385 17.98589111 74.10848145 18.32725098 75.22485352 18.67895508 C80.22613313 21.05969969 83.51892604 25.11859708 86 30 C86.6953125 33.31640625 86.6953125 33.31640625 87 36 C79.37338171 36.81092683 71.83156558 37.17121645 64.1640625 37.203125 C63.08168304 37.20882507 61.99930359 37.21452515 60.88412476 37.22039795 C58.61693275 37.22977269 56.34972759 37.23635162 54.08251953 37.24023438 C50.61337117 37.25003285 47.14479342 37.28116383 43.67578125 37.3125 C41.46354515 37.31902276 39.25130487 37.32427607 37.0390625 37.328125 C36.00568756 37.3404718 34.97231262 37.3528186 33.90762329 37.36553955 C24.84804835 37.33736929 24.84804835 37.33736929 21 34 C19.27416992 31.99804688 19.27416992 31.99804688 17.73046875 29.71875 C17.15498291 28.88142334 16.57949707 28.04409668 15.98657227 27.18139648 C15.39287842 26.29653564 14.79918457 25.4116748 14.1875 24.5 C12.95158719 22.68807426 11.71461423 20.87687118 10.4765625 19.06640625 C9.88262695 18.19387207 9.28869141 17.32133789 8.67675781 16.42236328 C5.96999566 12.51198266 3.08309581 8.74729955 0.16015625 4.99609375 C-0.22269531 4.33738281 -0.60554687 3.67867188 -1 3 C-0.67 2.01 -0.34 1.02 0 0 Z " fill="#A5A4A5" transform="translate(167,264)"/>
<path d="M0 0 C7.60611512 6.72917479 9.30864358 19.38026224 10.3125 28.9921875 C10.41369998 32.85043663 10.17518653 34.73722021 8 38 C-3.06481189 43.80530489 -14.95227412 42.17130739 -26.40039062 38.77001953 C-28.33815174 38.19604333 -30.28031313 37.63688272 -32.22460938 37.08544922 C-35.78076775 36.07668365 -39.32851879 35.04224209 -42.875 34 C-44.03531738 33.66814697 -45.19563477 33.33629395 -46.39111328 32.99438477 C-47.47634277 32.66623779 -48.56157227 32.33809082 -49.6796875 32 C-50.65663574 31.71125 -51.63358398 31.4225 -52.64013672 31.125 C-55.39438699 29.81198683 -55.99432801 28.82500398 -57 26 C-50.95963654 21.97309103 -44.62707144 18.72688111 -38.12109375 15.5390625 C-34.65394893 13.83577861 -31.21428084 12.08478482 -27.78488159 10.30671692 C-25.26505075 9.00188582 -22.73949744 7.70834334 -20.21350098 6.41549683 C-18.95034186 5.76564676 -17.68964584 5.11098561 -16.43151855 4.45144653 C-14.64466118 3.51587721 -12.84785481 2.59938621 -11.05078125 1.68359375 C-10.00575439 1.14275146 -8.96072754 0.60190918 -7.8840332 0.04467773 C-4.6795553 -1.11607406 -3.19137574 -1.08911474 0 0 Z " fill="#A7A6A6" transform="translate(133,186)"/>
<path d="M0 0 C3.29321394 0.00894895 6.58251115 0.0607142 9.875 0.1328125 C10.5851123 0.14006348 11.29522461 0.14731445 12.02685547 0.15478516 C14.29014842 0.18375766 16.55019677 0.24845455 18.8125 0.3203125 C19.53373047 0.32595215 20.25496094 0.3315918 20.99804688 0.33740234 C24.66294322 0.49224507 26.66951846 0.97899322 29.625 3.19140625 C32.25670136 6.63180751 34.11287782 10.09529601 35.9375 14.0078125 C36.59302807 15.38117626 37.25056906 16.7535811 37.91015625 18.125 C38.22919922 18.79402344 38.54824219 19.46304688 38.87695312 20.15234375 C39.86843675 22.11978874 40.9606259 23.98870098 42.09765625 25.875 C44.47401312 30.23078381 44.36017423 32.28107021 43.875 37.1328125 C41.875 40.1328125 41.875 40.1328125 39.95483398 40.82470703 C39.18469971 40.97020996 38.41456543 41.11571289 37.62109375 41.265625 C36.3381543 41.51505859 36.3381543 41.51505859 35.02929688 41.76953125 C34.13275391 41.93066406 33.23621094 42.09179688 32.3125 42.2578125 C31.00829102 42.51111328 31.00829102 42.51111328 29.67773438 42.76953125 C13.01320069 45.92597536 13.01320069 45.92597536 4.875 44.1328125 C1.25938014 41.47039024 0.31513365 39.01660295 -0.36616516 34.6240387 C-0.45802597 33.91666061 -0.54988678 33.20928253 -0.64453125 32.48046875 C-0.80606941 31.3747477 -0.80606941 31.3747477 -0.97087097 30.24668884 C-1.19448703 28.69202821 -1.4100086 27.13618439 -1.61791992 25.5793457 C-1.93632917 23.20404679 -2.28140779 20.83380036 -2.63085938 18.46289062 C-2.84533544 16.9481403 -3.05827752 15.43317183 -3.26953125 13.91796875 C-3.37151321 13.2126149 -3.47349518 12.50726105 -3.5785675 11.78053284 C-4.07349914 7.99536677 -4.21687327 4.81263748 -3.125 1.1328125 C-2.125 0.1328125 -2.125 0.1328125 0 0 Z " fill="#A7A5A6" transform="translate(149.125,177.8671875)"/>
<path d="M0 0 C1.30582031 0.03609375 2.61164063 0.0721875 3.95703125 0.109375 C4.70678223 0.14095703 5.4565332 0.17253906 6.22900391 0.20507812 C9.23938933 0.33025008 12.25016914 0.42267864 15.26171875 0.515625 C42.93284591 1.43284591 42.93284591 1.43284591 45.8125 4.3125 C45.62620213 6.19453188 45.42397641 8.07651377 45.13671875 9.94580078 C44.43168375 15.0923439 44.40552384 20.31932149 44.20703125 25.50585938 C44.16964844 26.36888672 44.13226563 27.23191406 44.09375 28.12109375 C44.06345703 28.90282959 44.03316406 29.68456543 44.00195312 30.48999023 C43.8125 32.3125 43.8125 32.3125 42.8125 33.3125 C34.63350833 33.87215645 26.67845479 32.97294335 18.625 31.625 C17.54653809 31.44710937 16.46807617 31.26921875 15.35693359 31.0859375 C8.79930095 29.95447032 2.34173111 28.62600617 -4.0625 26.8125 C-4.75110107 26.62341064 -5.43970215 26.43432129 -6.14916992 26.23950195 C-8.97862461 25.37344593 -10.96545162 24.52642466 -13.109375 22.4609375 C-15.07875142 18.5364555 -14.68140674 14.58851453 -14.1875 10.3125 C-11.68646822 3.20430442 -7.5792984 -0.25767837 0 0 Z " fill="#A7A6A7" transform="translate(77.1875,77.6875)"/>
<path d="M0 0 C0.67022186 -0.00204437 1.34044373 -0.00408875 2.03097534 -0.00619507 C4.24545613 -0.00920226 6.45919176 0.00927003 8.67358398 0.02832031 C10.2115002 0.03137798 11.74941918 0.03325404 13.28733826 0.03399658 C16.50953783 0.03859912 19.7314874 0.0530238 22.95361328 0.07519531 C27.08874619 0.1035014 31.22368235 0.11440926 35.35890293 0.11887741 C38.53384884 0.12302926 41.7087548 0.13284438 44.88368034 0.1447525 C46.40874855 0.15045864 47.9338206 0.15521621 49.45889473 0.15901947 C51.58724887 0.16587611 53.71544589 0.17950501 55.84375 0.1953125 C57.05603775 0.2021405 58.2683255 0.20896851 59.51734924 0.21600342 C62.35717773 0.35644531 62.35717773 0.35644531 64.35717773 1.35644531 C64.10310098 7.78458731 63.6087323 12.22957069 59.35717773 17.35644531 C58.92018555 17.88544434 58.48319336 18.41444336 58.03295898 18.95947266 C55.83680473 20.79024111 54.24609269 20.93692029 51.41967773 21.27050781 C50.4412793 21.39167969 49.46288086 21.51285156 48.45483398 21.63769531 C47.43260742 21.75113281 46.41038086 21.86457031 45.35717773 21.98144531 C44.36588867 22.10261719 43.37459961 22.22378906 42.35327148 22.34863281 C39.35667227 22.70806844 36.35843586 23.0383986 33.35717773 23.35644531 C32.41616211 23.45795898 31.47514648 23.55947266 30.50561523 23.6640625 C19.97027298 24.72130635 10.77722222 24.37455977 0.41967773 22.04394531 C-0.60706055 21.83060547 -1.63379883 21.61726563 -2.69165039 21.39746094 C-3.67456055 21.18154297 -4.6574707 20.965625 -5.67016602 20.74316406 C-6.55438232 20.54940186 -7.43859863 20.35563965 -8.34960938 20.15600586 C-10.8500591 19.28418931 -12.03911418 18.44763001 -13.64282227 16.35644531 C-13.41625977 14.45410156 -13.41625977 14.45410156 -12.64282227 12.35644531 C-12.3218457 11.24076172 -12.3218457 11.24076172 -11.99438477 10.10253906 C-11.75461914 9.34070312 -11.51485352 8.57886719 -11.26782227 7.79394531 C-11.03321289 7.02953125 -10.79860352 6.26511719 -10.55688477 5.47753906 C-8.27462718 0.18153109 -5.55363428 -0.01669011 0 0 Z " fill="#A6A5A6" transform="translate(131.642822265625,8.6435546875)"/>
<path d="M0 0 C7.10152253 0.32449839 14.26956942 2.46297005 21.1875 4.0625 C21.94232666 4.23668457 22.69715332 4.41086914 23.47485352 4.59033203 C28.87653512 5.87653512 28.87653512 5.87653512 30 7 C29.95801159 9.12571041 29.84179034 11.25002043 29.6953125 13.37109375 C29.56189453 15.31532227 29.56189453 15.31532227 29.42578125 17.29882812 C29.37631348 17.9776001 29.3268457 18.65637207 29.27587891 19.35571289 C29.12591618 21.42485885 28.98616164 23.49451222 28.84765625 25.56445312 C28.1298348 35.74033039 28.1298348 35.74033039 27 38 C21.54927021 39.81690993 15.69698792 39.12418831 10 39 C8.68201416 38.97317139 8.68201416 38.97317139 7.33740234 38.94580078 C4.49486624 38.87850729 1.65409649 38.78649504 -1.1875 38.6875 C-2.10837402 38.66510254 -3.02924805 38.64270508 -3.97802734 38.61962891 C-4.84508301 38.58401855 -5.71213867 38.5484082 -6.60546875 38.51171875 C-7.76792114 38.47244263 -7.76792114 38.47244263 -8.95385742 38.43237305 C-11.50892422 37.89245856 -12.44762175 37.07519994 -14 35 C-13.98131173 22.0116527 -9.14427369 9.14427369 0 0 Z " fill="#A7A6A7" transform="translate(116,34)"/>
<path d="M0 0 C6.81208018 0.52931704 21.27334389 2.01553139 26.3125 7.0546875 C26.71797343 13.02548258 25.56164716 18.34057937 24.125 24.1171875 C23.92841797 24.98923828 23.73183594 25.86128906 23.52929688 26.75976562 C21.25227096 36.01500018 16.92380272 40.06555892 8.95898438 44.89648438 C8.06501953 45.42306641 7.17105469 45.94964844 6.25 46.4921875 C5.35216797 47.04583984 4.45433594 47.59949219 3.52929688 48.16992188 C2.66240234 48.68748047 1.79550781 49.20503906 0.90234375 49.73828125 C0.11722412 50.20806396 -0.66789551 50.67784668 -1.47680664 51.16186523 C-4.05680098 52.20383534 -5.13678954 52.07069303 -7.6875 51.0546875 C-11.15810367 47.58408383 -9.93629824 38.1751246 -9.93847656 33.53857422 C-9.83727815 26.80581306 -8.41644486 0.27275516 0 0 Z " fill="#A6A5A5" transform="translate(63.6875,108.9453125)"/>
<path d="M0 0 C1.51815699 0.00015911 3.0363194 0.00585313 4.55444336 0.01586914 C5.35208603 0.01728409 6.1497287 0.01869904 6.97154236 0.02015686 C9.52916146 0.02577223 12.08669429 0.03832727 14.64428711 0.05102539 C16.37410356 0.05603841 18.10392137 0.06060166 19.83374023 0.06469727 C24.08312264 0.07574664 28.33244023 0.09302153 32.58178711 0.11352539 C33.75443246 4.38033149 33.33507202 7.53401092 32.43725586 11.84008789 C32.17235352 13.11883789 31.90745117 14.39758789 31.63452148 15.71508789 C31.49232178 16.37541016 31.35012207 17.03573242 31.20361328 17.71606445 C30.76966292 19.73677543 30.35336073 21.76054942 29.93920898 23.78540039 C27.84820807 33.71389395 27.84820807 33.71389395 25.58178711 37.11352539 C20.90313152 36.66075227 16.36344679 36.11128454 11.76928711 35.11352539 C6.87786299 34.0692025 2.03995732 33.714462 -2.94946289 33.45727539 C-5.41821289 33.11352539 -5.41821289 33.11352539 -7.41821289 31.11352539 C-7.58520508 28.67089844 -7.58520508 28.67089844 -7.46508789 25.62524414 C-7.42254883 24.52631836 -7.38000977 23.42739258 -7.33618164 22.29516602 C-7.28075195 21.14209961 -7.22532227 19.9890332 -7.16821289 18.80102539 C-7.12825195 17.65956055 -7.08829102 16.5180957 -7.04711914 15.34204102 C-6.39276516 0.21231596 -6.39276516 0.21231596 0 0 Z " fill="#A7A6A7" transform="translate(136.418212890625,79.886474609375)"/>
<path d="M0 0 C1.22847656 0.0103125 2.45695312 0.020625 3.72265625 0.03125 C6.9375 0.5 6.9375 0.5 8.93359375 1.71875 C9.9375 3.5 9.9375 3.5 9.75 5.87890625 C8.94218677 8.48488065 8.02184715 10.93371231 6.9375 13.4375 C6.27234375 15.01144531 6.27234375 15.01144531 5.59375 16.6171875 C4.70186025 18.71357659 3.80481531 20.80755311 2.90234375 22.89941406 C-2.06242363 34.45071517 -6.28051533 45.77532247 -9.1875 58.01953125 C-10.0625 61.5 -10.0625 61.5 -11.0625 62.5 C-12.47820123 62.58651611 -13.898095 62.60704904 -15.31640625 62.59765625 C-16.17041016 62.59443359 -17.02441406 62.59121094 -17.90429688 62.58789062 C-18.80212891 62.57951172 -19.69996094 62.57113281 -20.625 62.5625 C-21.52669922 62.55798828 -22.42839844 62.55347656 -23.35742188 62.54882812 C-25.59251314 62.53700225 -27.82747437 62.5205222 -30.0625 62.5 C-31.59901304 58.56321091 -30.46135184 55.97311502 -29.0703125 52.1015625 C-28.73839149 51.16639801 -28.73839149 51.16639801 -28.39976501 50.21234131 C-27.67382923 48.1788843 -26.93158941 46.15187799 -26.1875 44.125 C-25.68129327 42.72617044 -25.1753542 41.32724399 -24.66967773 39.92822266 C-21.61652731 31.52782583 -18.46066414 23.16765281 -15.125 14.875 C-14.77260254 13.98893066 -14.42020508 13.10286133 -14.05712891 12.18994141 C-8.93881158 -0.22558515 -8.93881158 -0.22558515 0 0 Z " fill="#A9A6A8" transform="translate(104.0625,8.5)"/>
<path d="M0 0 C14.21317697 6.01702 26.28562227 25.7435858 32 39.4375 C32.97224932 42.90113821 33.15540134 44.63883247 32 48 C24.76356564 47.52884488 18.13322514 46.17521404 11.1875 44.125 C10.27291016 43.86847656 9.35832031 43.61195313 8.41601562 43.34765625 C3.88489439 42.03610261 -0.09019449 40.73768352 -4 38 C-3.90912109 37.03513672 -3.90912109 37.03513672 -3.81640625 36.05078125 C-3.53672185 33.03449253 -3.26709307 30.01742981 -3 27 C-2.90460938 25.94296875 -2.80921875 24.8859375 -2.7109375 23.796875 C-2.1601452 17.28178898 -1.94369538 10.90039958 -2.16015625 4.36328125 C-2 2 -2 2 0 0 Z " fill="#A9A7A7" transform="translate(201,224)"/>
<path d="M0 0 C0.66 0.66 1.32 1.32 2 2 C1.7300731 10.57414868 -1.7189038 19.19454322 -5 27 C-5.33902344 27.88042969 -5.67804688 28.76085937 -6.02734375 29.66796875 C-7.45641759 32.38657724 -8.29395772 33.49363646 -11 35 C-16.72210902 36.10322713 -23.30900958 36.37415676 -29 35 C-32.00914292 32.33227907 -31.98630437 31.17256494 -32.3125 27.0625 C-32.05387658 19.63631322 -31.66332727 10.58938112 -28 4 C-23.92323518 1.58582642 -19.19513623 1.36603529 -14.5625 0.875 C-13.82451172 0.78863281 -13.08652344 0.70226563 -12.32617188 0.61328125 C-8.21361373 0.15267474 -4.13926171 -0.2871886 0 0 Z " fill="#A6A5A6" transform="translate(183,37)"/>
<path d="M0 0 C11.88 0 23.76 0 36 0 C36.96943376 4.84716879 36.83481325 7.02946194 35.85546875 11.7265625 C35.59056641 13.0053125 35.32566406 14.2840625 35.05273438 15.6015625 C34.91053467 16.26188477 34.76833496 16.92220703 34.62182617 17.60253906 C34.18787581 19.62325003 33.77157362 21.64702403 33.35742188 23.671875 C31.26642096 33.60036856 31.26642096 33.60036856 29 37 C23.46153846 36.38461538 23.46153846 36.38461538 21.125 34.4375 C20.75375 33.963125 20.3825 33.48875 20 33 C22.64 33.33 25.28 33.66 28 34 C27.95875 32.96875 27.9175 31.9375 27.875 30.875 C27.99535453 27.14400948 28.19558068 22.80441932 31 20 C30.91062197 18.47480724 30.75462854 16.95318071 30.5625 15.4375 C30.46066406 14.61121094 30.35882813 13.78492187 30.25390625 12.93359375 C30.12822266 11.97646484 30.12822266 11.97646484 30 11 C30.66 10.67 31.32 10.34 32 10 C32.73075648 7.6859378 33.40138258 5.35171131 34 3 C26.99556451 2.90548738 20.10053935 2.92989936 13.125 3.625 C7.8831909 4.09336238 3.97922814 3.65974271 -1 2 C-0.67 1.34 -0.34 0.68 0 0 Z " fill="#D4CED5" transform="translate(133,80)"/>
<path d="M0 0 C1.88078247 0.00212242 1.88078247 0.00212242 3.79956055 0.00428772 C7.10717967 0.00891544 10.41474863 0.01787522 13.72235107 0.0289917 C17.10786327 0.03928449 20.49338286 0.04380208 23.87890625 0.04882812 C30.50262354 0.05982178 37.12630768 0.07653332 43.75 0.09765625 C44.245 1.58265625 44.245 1.58265625 44.75 3.09765625 C22.31 3.09765625 -0.13 3.09765625 -23.25 3.09765625 C-18.20680389 -1.94553986 -6.65920321 -0.02851067 0 0 Z " fill="#B488A8" transform="translate(149.25,8.90234375)"/>
<path d="M0 0 C7.06244764 0.67468435 13.74030636 2.32013408 20.6015625 4.08984375 C21.79679535 4.39443008 22.9920282 4.69901642 24.22348022 5.01283264 C26.74039571 5.65526068 29.25671295 6.30003659 31.77246094 6.94702148 C35.61776508 7.93563992 39.46494549 8.91666473 43.3125 9.89648438 C45.76313462 10.52299258 48.21365928 11.14993109 50.6640625 11.77734375 C51.81105621 12.07011703 52.95804993 12.36289032 54.13980103 12.66453552 C55.21466766 12.9414473 56.2895343 13.21835907 57.39697266 13.50366211 C58.33658844 13.74491318 59.27620422 13.98616425 60.24429321 14.23472595 C63.20119892 15.05587398 66.09680353 16.00683992 69 17 C66.23502886 18.92986564 64.96269321 18.99616826 61.5390625 18.64453125 C60.23148234 18.38116237 58.92674483 18.1033426 57.625 17.8125 C56.33851563 17.55082031 55.05203125 17.28914063 53.7265625 17.01953125 C50.14970061 16.04095583 47.29637878 14.66133983 44 13 C41.80943058 12.42716344 39.59815943 11.92929975 37.375 11.5 C32.72213106 10.57139152 28.14533598 9.54035417 23.5625 8.3125 C20.11888975 7.41835353 17.60244858 7 14 7 C11 7 11 7 8.9375 5.4375 C6.96322499 3.63727613 6.96322499 3.63727613 3.75 4.3125 C2.8425 4.539375 1.935 4.76625 1 5 C0.34 4.01 -0.32 3.02 -1 2 C-0.67 1.34 -0.34 0.68 0 0 Z " fill="#D9CACB" transform="translate(167,264)"/>
<path d="M0 0 C1.30582031 0.03609375 2.61164063 0.0721875 3.95703125 0.109375 C4.70678223 0.14095703 5.4565332 0.17253906 6.22900391 0.20507812 C9.23938933 0.33025008 12.25016914 0.42267864 15.26171875 0.515625 C21.78173956 0.73174556 28.29847018 0.95543305 34.8125 1.3125 C35.71000977 1.35133301 36.60751953 1.39016602 37.53222656 1.43017578 C39.9765625 1.59765625 39.9765625 1.59765625 43.8125 2.3125 C45.05224609 4.35717773 45.05224609 4.35717773 45.8125 6.3125 C45.25175781 6.1475 44.69101563 5.9825 44.11328125 5.8125 C40.89425434 5.11294916 37.82189516 5.29159329 34.54296875 5.375 C31.8125 5.3125 31.8125 5.3125 28.62207031 4.82836914 C24.76538241 4.30611962 21.01821733 4.10543181 17.12890625 3.99609375 C16.42853745 3.97531265 15.72816864 3.95453156 15.00657654 3.93312073 C12.79613894 3.86837535 10.58559515 3.80909392 8.375 3.75 C6.86522393 3.70674319 5.35545812 3.66312677 3.84570312 3.61914062 C0.16807804 3.51277252 -3.50966291 3.41129998 -7.1875 3.3125 C-7.1875 3.9725 -7.1875 4.6325 -7.1875 5.3125 C-8.1875 6.3125 -9.1875 7.3125 -10.1875 8.3125 C-11.36324711 10.41239652 -11.36324711 10.41239652 -12.1875 12.3125 C-12.8475 11.6525 -13.5075 10.9925 -14.1875 10.3125 C-11.1483927 3.2745673 -7.9007235 -0.26860607 0 0 Z " fill="#F4F0F6" transform="translate(77.1875,77.6875)"/>
<path d="M0 0 C9.37715001 0.42180952 18.94117647 3.6318304 28 6 C28 6.66 28 7.32 28 8 C18.56921949 7.23945318 9.31443428 5.61328437 0 4 C-0.268125 4.804375 -0.53625 5.60875 -0.8125 6.4375 C-1.204375 7.283125 -1.59625 8.12875 -2 9 C-2.99 9.33 -3.98 9.66 -5 10 C-5.70211894 11.65204456 -6.36971413 13.31923769 -7 15 C-7.99 15.495 -7.99 15.495 -9 16 C-8.65988792 9.1977583 -4.64401598 4.64401598 0 0 Z " fill="#E9E2E8" transform="translate(116,34)"/>
<path d="M0 0 C-1.74874506 2.52423022 -3.30507217 3.81960881 -6.29296875 4.59521484 C-9.19112315 5.04112496 -12.08342552 5.38452436 -15 5.6875 C-16.03133057 5.80778564 -17.06266113 5.92807129 -18.12524414 6.05200195 C-25.06838179 6.84608194 -32.02420744 7.56495057 -39 8 C-39.33 7.01 -39.66 6.02 -40 5 C-34.89127719 2.72945653 -30.27706163 2.86721066 -24.8046875 3.02734375 C-22.27361329 3.00266754 -20.41453624 2.66071817 -18 2 C-16.35632001 1.83162303 -14.7100924 1.6868945 -13.0625 1.5625 C-8.40790138 1.14495512 -4.34694011 -1.44898004 0 0 Z " fill="#CDC8CC" transform="translate(192,25)"/>
<path d="M0 0 C4.10706453 0.60674708 7.92908902 1.50428354 11.87890625 2.77734375 C12.96494141 3.12603516 14.05097656 3.47472656 15.16992188 3.83398438 C16.28947266 4.19814453 17.40902344 4.56230469 18.5625 4.9375 C19.68591797 5.29779297 20.80933594 5.65808594 21.96679688 6.02929688 C26.70774197 7.55890661 31.39089133 9.10411051 36 11 C33.33874255 12.79570284 32.21888938 13.03345719 28.984375 12.5390625 C27.91703125 12.23742187 26.8496875 11.93578125 25.75 11.625 C24.67234375 11.32851562 23.5946875 11.03203125 22.484375 10.7265625 C21.66453125 10.48679688 20.8446875 10.24703125 20 10 C20 9.34 20 8.68 20 8 C19.360625 8.061875 18.72125 8.12375 18.0625 8.1875 C14.51142138 7.97008702 11.69408108 6.98135673 8.359375 5.80078125 C4.95171233 4.644207 1.50077897 3.82745685 -2 3 C-1.34 2.01 -0.68 1.02 0 0 Z " fill="#C9C4C5" transform="translate(66,220)"/>
<path d="M0 0 C0.66 0.99 1.32 1.98 2 3 C1.4609375 5.34765625 1.4609375 5.34765625 0.375 8.0625 C-0.01042969 9.05121094 -0.39585938 10.03992188 -0.79296875 11.05859375 C-1.51764157 12.82454401 -2.24766721 14.58833199 -2.98828125 16.34765625 C-4.64057393 20.31179878 -6.09387154 24.22574444 -7.22265625 28.37109375 C-7.4347876 29.14308105 -7.64691895 29.91506836 -7.86547852 30.71044922 C-8.28387028 32.26134814 -8.68709012 33.81643102 -9.07397461 35.37548828 C-9.65625 37.53515625 -9.65625 37.53515625 -11 41 C-13.08398438 41.71655273 -13.08398438 41.71655273 -15 42 C-10.39441834 27.83147733 -5.58198529 13.81541359 0 0 Z " fill="#D0CECF" transform="translate(91,18)"/>
<path d="M0 0 C-1.32 0.33 -2.64 0.66 -4 1 C-4 1.66 -4 2.32 -4 3 C-12.42130633 5.3967015 -20.52330257 6.62598287 -29.25 7.1875 C-30.38824219 7.26935547 -31.52648437 7.35121094 -32.69921875 7.43554688 C-35.46563131 7.63314777 -38.23232238 7.82116051 -41 8 C-41.33 7.34 -41.66 6.68 -42 6 C-32.94944628 4.3660332 -23.89097908 2.78418049 -14.8125 1.3125 C-14.02383545 1.18125732 -13.2351709 1.05001465 -12.42260742 0.91479492 C-8.23328812 0.24538381 -4.25951897 -0.14266331 0 0 Z " fill="#E8E5E7" transform="translate(184,227)"/>
<path d="M0 0 C2.88916016 -0.34057617 2.88916016 -0.34057617 6.5390625 -0.29296875 C8.49199219 -0.2784668 8.49199219 -0.2784668 10.484375 -0.26367188 C11.86458923 -0.23860388 13.24479756 -0.21320902 14.625 -0.1875 C16.01300663 -0.17245517 17.40102867 -0.15876641 18.7890625 -0.14648438 C22.19309509 -0.1110257 25.59635622 -0.06160298 29 0 C29.33 0.99 29.66 1.98 30 3 C29 4 29 4 26.4375 4.1328125 C16.92611938 4.11119573 7.48734867 3.64321008 -2 3 C-1.34 2.01 -0.68 1.02 0 0 Z " fill="#B7AFB0" transform="translate(111,69)"/>
<path d="M0 0 C0.66 0.66 1.32 1.32 2 2 C1.625 4.625 1.625 4.625 1 7 C0.34 6.67 -0.32 6.34 -1 6 C-1 4.68 -1 3.36 -1 2 C-1.54785156 2.13277344 -2.09570312 2.26554687 -2.66015625 2.40234375 C-10.41777614 4.13046395 -18.08044291 4.59874244 -26 5 C-26.33 6.32 -26.66 7.64 -27 9 C-27.66 9 -28.32 9 -29 9 C-28.8125 6.625 -28.8125 6.625 -28 4 C-23.7722308 1.71471935 -19.26252077 1.3731777 -14.5625 0.875 C-13.82451172 0.78863281 -13.08652344 0.70226563 -12.32617188 0.61328125 C-8.21361373 0.15267474 -4.13926171 -0.2871886 0 0 Z " fill="#D9D6DA" transform="translate(183,37)"/>
<path d="M0 0 C11.22 0 22.44 0 34 0 C34 0.33 34 0.66 34 1 C27.42519323 3.40727368 21.13075998 3.26309997 14.1875 3.1875 C13.04345703 3.18685547 11.89941406 3.18621094 10.72070312 3.18554688 C2.28125934 3.14062967 2.28125934 3.14062967 0 2 C0 1.34 0 0.68 0 0 Z " fill="#7E7D7E" transform="translate(216,298)"/>
<path d="M0 0 C2.97923003 -0.02727678 5.95820379 -0.04697128 8.9375 -0.0625 C9.76830078 -0.07087891 10.59910156 -0.07925781 11.45507812 -0.08789062 C15.64373032 -0.10418888 19.82437959 -0.0333263 24.00390625 0.25390625 C24.72521729 0.29974854 25.44652832 0.34559082 26.18969727 0.39282227 C28 1 28 1 29.24975586 3.04663086 C29.62112671 4.01354858 29.62112671 4.01354858 30 5 C29.42765625 4.83371094 28.8553125 4.66742188 28.265625 4.49609375 C25.96230521 3.99174614 24.09935221 3.96803304 21.75 4.0625 C14.43204941 4.16139122 7.23187554 3.00492563 0 2 C0 1.34 0 0.68 0 0 Z " fill="#DBD3D6" transform="translate(93,79)"/>
<path d="M0 0 C0.72300293 0.15895752 1.44600586 0.31791504 2.19091797 0.48168945 C2.99787109 0.65506836 3.80482422 0.82844727 4.63623047 1.00708008 C5.47669922 1.20108398 6.31716797 1.39508789 7.18310547 1.5949707 C8.00037109 1.76963867 8.81763672 1.94430664 9.65966797 2.12426758 C15.26109218 3.36065789 20.65337455 4.99115915 26.05810547 6.9074707 C21.97910663 9.24510664 19.12643791 8.71272313 14.68310547 7.7199707 C13.39662109 7.45829102 12.11013672 7.19661133 10.78466797 6.92700195 C7.21778099 5.95115552 4.32162043 4.61382281 1.05810547 2.9074707 C-2.17859083 2.19988744 -2.17859083 2.19988744 -4.94189453 1.9074707 C-1.94189453 -0.0925293 -1.94189453 -0.0925293 0 0 Z " fill="#EAE9EA" transform="translate(209.94189453125,274.092529296875)"/>
<path d="M0 0 C1.32 0.66 2.64 1.32 4 2 C4 2.99 4 3.98 4 5 C3.01 4.67 2.02 4.34 1 4 C1.01571045 4.59538574 1.0314209 5.19077148 1.04760742 5.80419922 C1.10985801 8.49437003 1.14895783 11.18438957 1.1875 13.875 C1.21263672 14.81214844 1.23777344 15.74929687 1.26367188 16.71484375 C1.27333984 17.61074219 1.28300781 18.50664062 1.29296875 19.4296875 C1.3086792 20.25710449 1.32438965 21.08452148 1.34057617 21.93701172 C1.22818604 22.61779785 1.1157959 23.29858398 1 24 C0.01 24.66 -0.98 25.32 -2 26 C-2.05785647 22.04172765 -2.09354717 18.0835633 -2.125 14.125 C-2.14175781 12.99707031 -2.15851563 11.86914062 -2.17578125 10.70703125 C-2.18222656 9.63066406 -2.18867188 8.55429688 -2.1953125 7.4453125 C-2.20578613 6.45031738 -2.21625977 5.45532227 -2.22705078 4.43017578 C-2 2 -2 2 0 0 Z " fill="#E1E0E1" transform="translate(201,224)"/>
<path d="M0 0 C2.875 -0.125 2.875 -0.125 6 0 C8 2 8 2 8.23046875 5.484375 C8.22647453 6.90631653 8.21170527 8.3282589 8.1875 9.75 C8.18685547 10.45382813 8.18621094 11.15765625 8.18554688 11.8828125 C8.15093366 16.02101431 7.80095192 19.92475665 7 24 C6.34 23.67 5.68 23.34 5 23 C4.67 16.07 4.34 9.14 4 2 C2.68 1.34 1.36 0.68 0 0 Z " fill="#D8C5D9" transform="translate(184,226)"/>
<path d="M0 0 C2.2232901 3.33493515 2.21118526 4.15459305 2.01171875 8 C1.96466797 8.969375 1.91761719 9.93875 1.86914062 10.9375 C1.80919922 11.948125 1.74925781 12.95875 1.6875 14 C1.63916016 15.010625 1.59082031 16.02125 1.54101562 17.0625 C1.14729676 24.55810971 1.14729676 24.55810971 0 28 C-0.66 28 -1.32 28 -2 28 C-2.21867122 18.42706002 -1.99888809 9.42332955 0 0 Z " fill="#B39F9F" transform="translate(56,124)"/>
<path d="M0 0 C1.79244141 0.01740234 1.79244141 0.01740234 3.62109375 0.03515625 C5.41740234 0.04869141 5.41740234 0.04869141 7.25 0.0625 C8.17683594 0.07410156 9.10367188 0.08570312 10.05859375 0.09765625 C8.36680047 2.13985331 7.42131709 3.01558931 4.796875 3.609375 C3.99636719 3.66738281 3.19585937 3.72539063 2.37109375 3.78515625 C1.15873047 3.88376953 1.15873047 3.88376953 -0.078125 3.984375 C-0.69300781 4.02175781 -1.30789062 4.05914062 -1.94140625 4.09765625 C-1.61140625 6.07765625 -1.28140625 8.05765625 -0.94140625 10.09765625 C-1.93140625 10.75765625 -2.92140625 11.41765625 -3.94140625 12.09765625 C-4.93140625 11.10765625 -5.92140625 10.11765625 -6.94140625 9.09765625 C-6.46559427 7.78393638 -5.98565476 6.47171079 -5.50390625 5.16015625 C-5.23707031 4.42925781 -4.97023438 3.69835937 -4.6953125 2.9453125 C-3.48544613 -0.01980041 -3.40029006 0.11289144 0 0 Z " fill="#BDB6BB" transform="translate(102.94140625,116.90234375)"/>
<path d="M0 0 C2 3 2 3 2 5 C2.91523437 5.03738281 3.83046875 5.07476562 4.7734375 5.11328125 C5.96195312 5.17902344 7.15046875 5.24476562 8.375 5.3125 C9.55835937 5.37050781 10.74171875 5.42851563 11.9609375 5.48828125 C13.46527344 5.74158203 13.46527344 5.74158203 15 6 C15.99 7.485 15.99 7.485 17 9 C11.06 9 5.12 9 -1 9 C-2.07349791 4.70600835 -1.79682816 3.80504787 0 0 Z " fill="#D1C4D0" transform="translate(75,62)"/>
<path d="M0 0 C0.33 0.99 0.66 1.98 1 3 C1.66 3 2.32 3 3 3 C3 3.66 3 4.32 3 5 C2.34 5 1.68 5 1 5 C0.67 6.65 0.34 8.3 0 10 C-2.31 9.34 -4.62 8.68 -7 8 C-7 6.68 -7 5.36 -7 4 C-4.69 2.68 -2.38 1.36 0 0 Z " fill="#8B8A8A" transform="translate(84,207)"/>
<path d="M0 0 C7.61908528 0.01994525 15.14682764 0.44748564 22.734375 1.1328125 C22.734375 1.7928125 22.734375 2.4528125 22.734375 3.1328125 C18.77610265 3.19066897 14.8179383 3.22635967 10.859375 3.2578125 C9.73144531 3.27457031 8.60351562 3.29132813 7.44140625 3.30859375 C5.82685547 3.31826172 5.82685547 3.31826172 4.1796875 3.328125 C2.68719482 3.34383545 2.68719482 3.34383545 1.16455078 3.35986328 C-1.265625 3.1328125 -1.265625 3.1328125 -3.265625 1.1328125 C-2.265625 0.1328125 -2.265625 0.1328125 0 0 Z " fill="#F5F1F7" transform="translate(149.265625,177.8671875)"/>
<path d="M0 0 C3.26326325 6.18302511 0.8908063 11.71764358 -1 18 C-1.66 18 -2.32 18 -3 18 C-3 4 -3 4 -2 2 C-4.64 2 -7.28 2 -10 2 C-10 1.67 -10 1.34 -10 1 C-2.25 0 -2.25 0 0 0 Z " fill="#B0ADAF" transform="translate(182,39)"/>
<path d="M0 0 C0.66 0 1.32 0 2 0 C2.66666667 4 3.33333333 8 4 12 C4.66 12 5.32 12 6 12 C8.23269231 19.44230769 8.23269231 19.44230769 7.0546875 22.265625 C6.70664063 22.83796875 6.35859375 23.4103125 6 24 C-0.4375 7 -0.4375 7 0 0 Z " fill="#C6BFC0" transform="translate(64,240)"/>
<path d="M0 0 C-0.33 0.99 -0.66 1.98 -1 3 C-3.765625 3.94921875 -3.765625 3.94921875 -7.25 4.6875 C-8.95929688 5.06455078 -8.95929688 5.06455078 -10.703125 5.44921875 C-13.55863207 5.92626436 -16.1166552 6.11381624 -19 6 C-18.67 5.01 -18.34 4.02 -18 3 C-15.5116281 2.0854194 -13.18488245 1.37807525 -10.625 0.75 C-9.59632812 0.4715625 -9.59632812 0.4715625 -8.546875 0.1875 C-5.18443279 -0.67600656 -3.35597796 -1.11865932 0 0 Z " fill="#CBC9CA" transform="translate(105,280)"/>
<path d="M0 0 C0.66 0.33 1.32 0.66 2 1 C2.04254356 2.99954746 2.04080783 5.00041636 2 7 C1.67 7.33 1.34 7.66 1 8 C0.71461678 11.32947093 0.55107367 14.65897628 0.37890625 17.99609375 C0 21 0 21 -2 23 C-4.44433951 18.11132099 -3.05609621 11.14846902 -2 6 C-1.34 6 -0.68 6 0 6 C0 4.02 0 2.04 0 0 Z " fill="#9B989B" transform="translate(154,47)"/>
<path d="M0 0 C2.875 0.25 2.875 0.25 6 1 C7.375 3.0625 7.375 3.0625 8 5 C7.34 5 6.68 5 6 5 C6 4.34 6 3.68 6 3 C5.01 3.495 5.01 3.495 4 4 C-4.63506294 4.55290422 -13.39111415 3.65060406 -22 3 C-22 2.67 -22 2.34 -22 2 C-14.74 2 -7.48 2 0 2 C0 1.34 0 0.68 0 0 Z " fill="#B6B3B7" transform="translate(172,179)"/>
<path d="M0 0 C0.66 0 1.32 0 2 0 C2.72246365 2.9555331 3.42840941 5.91336646 4.125 8.875 C4.33253906 9.71675781 4.54007813 10.55851563 4.75390625 11.42578125 C4.94082031 12.23144531 5.12773437 13.03710938 5.3203125 13.8671875 C5.58739014 14.98262939 5.58739014 14.98262939 5.85986328 16.12060547 C5.9061084 16.74080566 5.95235352 17.36100586 6 18 C5.34 18.66 4.68 19.32 4 20 C2.34752407 16.05948048 1.00095459 12.04957504 -0.31640625 7.98828125 C-0.96445733 5.96099426 -0.96445733 5.96099426 -2 4 C-1.0625 1.875 -1.0625 1.875 0 0 Z " fill="#CFCACC" transform="translate(162,134)"/>
<path d="M0 0 C0.66 0.33 1.32 0.66 2 1 C1.37802877 7.33881314 0.71457113 13.67094142 0 20 C-0.66 20 -1.32 20 -2 20 C-2.33 20.66 -2.66 21.32 -3 22 C-3.05411124 19.58303128 -3.09372278 17.16728213 -3.125 14.75 C-3.14175781 14.06808594 -3.15851563 13.38617188 -3.17578125 12.68359375 C-3.21261525 8.8896914 -3.00630713 6.23981447 -1 3 C-0.67 2.01 -0.34 1.02 0 0 Z " fill="#9D9A9E" transform="translate(144,40)"/>
<path d="M0 0 C8.25 0.33 16.5 0.66 25 1 C25 1.66 25 2.32 25 3 C22.16714131 3.22396532 19.33485076 3.42949305 16.5 3.625 C15.70851562 3.68945312 14.91703125 3.75390625 14.1015625 3.8203125 C8.61975629 4.1797752 4.26518728 3.58197141 -1 2 C-0.67 1.34 -0.34 0.68 0 0 Z " fill="#DCD9E0" transform="translate(133,80)"/>
<path d="M0 0 C1.38428469 0.29239017 2.7641542 0.61291497 4.125 1 C4.125 1.33 4.125 1.66 4.125 2 C1.815 2 -0.495 2 -2.875 2 C-3.143125 2.804375 -3.41125 3.60875 -3.6875 4.4375 C-4.079375 5.283125 -4.47125 6.12875 -4.875 7 C-5.865 7.33 -6.855 7.66 -7.875 8 C-8.57711894 9.65204456 -9.24471413 11.31923769 -9.875 13 C-10.865 13.495 -10.865 13.495 -11.875 14 C-11.62078384 8.91567679 -9.83811646 5.44313993 -6.7734375 1.50390625 C-4.3169576 -0.44207063 -3.07154667 -0.35366389 0 0 Z " fill="#D0CACF" transform="translate(118.875,36)"/>
<path d="M0 0 C5.59753384 4.54799625 10.3143947 9.52331848 15 15 C14.34 15.66 13.68 16.32 13 17 C11.65787938 15.90653119 10.32652025 14.7998425 9 13.6875 C8.2575 13.07261719 7.515 12.45773438 6.75 11.82421875 C5 10 5 10 5 7 C4.01 6.67 3.02 6.34 2 6 C2 5.34 2 4.68 2 4 C1.34 4 0.68 4 0 4 C0 2.68 0 1.36 0 0 Z " fill="#D0C0CF" transform="translate(206,228)"/>
<path d="M0 0 C0.33 0.99 0.66 1.98 1 3 C-0.93341947 4.93341947 -4.37479121 4.17449133 -6.9375 4.1875 C-8.20464844 4.20167969 -9.47179687 4.21585937 -10.77734375 4.23046875 C-14 4 -14 4 -16 2 C-13.62891564 0.81445782 -11.76179569 0.68396607 -9.125 0.4375 C-8.26132813 0.35371094 -7.39765625 0.26992187 -6.5078125 0.18359375 C-4.34347077 0.02514506 -2.1701339 0 0 0 Z " fill="#C4C2C4" transform="translate(140,69)"/>
<path d="M0 0 C-5.00950979 5.56612198 -9.72619715 7.49835842 -17 8 C-17 7.34 -17 6.68 -17 6 C-15.11076602 4.98758753 -13.21330056 3.99052575 -11.3125 3 C-10.25675781 2.443125 -9.20101562 1.88625 -8.11328125 1.3125 C-5.07773738 0.0327726 -3.23973174 -0.28851043 0 0 Z " fill="#B5B3B4" transform="translate(125,189)"/>
<path d="M0 0 C0.33 0.66 0.66 1.32 1 2 C2.65 1.67 4.3 1.34 6 1 C6.33 1.66 6.66 2.32 7 3 C0.6 7.06153846 0.6 7.06153846 -2.4375 6.75 C-2.953125 6.5025 -3.46875 6.255 -4 6 C-4.33 4.68 -4.66 3.36 -5 2 C-3.35 1.34 -1.7 0.68 0 0 Z " fill="#858283" transform="translate(60,154)"/>
<path d="M0 0 C0.33 0 0.66 0 1 0 C1.02687279 1.81242052 1.04633715 3.62495233 1.0625 5.4375 C1.07410156 6.44683594 1.08570312 7.45617187 1.09765625 8.49609375 C1 11 1 11 0 12 C-1.95530764 12.12548989 -3.91570479 12.17575363 -5.875 12.1875 C-7.47988281 12.20876953 -7.47988281 12.20876953 -9.1171875 12.23046875 C-12 12 -12 12 -15 10 C-13.20841511 9.97303635 -11.41671527 9.95362083 -9.625 9.9375 C-8.62726563 9.92589844 -7.62953125 9.91429688 -6.6015625 9.90234375 C-4 10 -4 10 -2 11 C-1.93941406 10.28972656 -1.87882812 9.57945313 -1.81640625 8.84765625 C-1.73261719 7.92855469 -1.64882812 7.00945312 -1.5625 6.0625 C-1.48128906 5.14597656 -1.40007812 4.22945313 -1.31640625 3.28515625 C-1 1 -1 1 0 0 Z " fill="#89888A" transform="translate(120,99)"/>
<path d="M0 0 C4.62 0 9.24 0 14 0 C13.67 0.99 13.34 1.98 13 3 C7.39 3 1.78 3 -4 3 C-2.68 2.67 -1.36 2.34 0 2 C0 1.34 0 0.68 0 0 Z " fill="#D9D0D8" transform="translate(159,69)"/>
<path d="M0 0 C-6.65594553 2.94397591 -12.75841435 3.64999003 -20 4 C-20.33 3.34 -20.66 2.68 -21 2 C-18.25162151 1.46892686 -15.50187625 0.94984119 -12.75 0.4375 C-11.97269531 0.28603516 -11.19539062 0.13457031 -10.39453125 -0.02148438 C-9.64042969 -0.16005859 -8.88632813 -0.29863281 -8.109375 -0.44140625 C-7.07248535 -0.63778687 -7.07248535 -0.63778687 -6.01464844 -0.83813477 C-3.78712058 -1.01710362 -2.12493038 -0.65206197 0 0 Z " fill="#F5F1F2" transform="translate(163,231)"/>
<path d="M0 0 C0.66 0.99 1.32 1.98 2 3 C1.390625 5.5234375 1.390625 5.5234375 0.25 8.375 C-0.11609375 9.31085937 -0.4821875 10.24671875 -0.859375 11.2109375 C-1.23578125 12.13132812 -1.6121875 13.05171875 -2 14 C-2.37640625 14.94101562 -2.7528125 15.88203125 -3.140625 16.8515625 C-3.42421875 17.56054688 -3.7078125 18.26953125 -4 19 C-4.66 19 -5.32 19 -6 19 C-6.33 19.66 -6.66 20.32 -7 21 C-6.26951699 16.31196344 -4.63363115 12.09114445 -2.9375 7.6875 C-2.51500977 6.57665039 -2.51500977 6.57665039 -2.08398438 5.44335938 C-1.39281425 3.62757345 -0.69688311 1.81360101 0 0 Z " fill="#DED9DA" transform="translate(91,18)"/>
<path d="M0 0 C1.08667969 0.02707031 2.17335938 0.05414063 3.29296875 0.08203125 C4.54013672 0.13423828 4.54013672 0.13423828 5.8125 0.1875 C5.8125 0.5175 5.8125 0.8475 5.8125 1.1875 C0.3675 1.6825 0.3675 1.6825 -5.1875 2.1875 C-5.1875 2.8475 -5.1875 3.5075 -5.1875 4.1875 C-6.1875 5.1875 -7.1875 6.1875 -8.1875 7.1875 C-9.36324711 9.28739652 -9.36324711 9.28739652 -10.1875 11.1875 C-10.8475 10.5275 -11.5075 9.8675 -12.1875 9.1875 C-9.02811665 2.41739283 -7.77531678 -0.25081667 0 0 Z " fill="#D6CFD1" transform="translate(75.1875,78.8125)"/>
<path d="M0 0 C1.98 0 3.96 0 6 0 C6 0.66 6 1.32 6 2 C6.59167969 1.91621094 7.18335937 1.83242187 7.79296875 1.74609375 C12.09939457 1.19110576 15.75552644 0.76773348 20 2 C20 2.66 20 3.32 20 4 C17.08308475 4.05401695 14.16717276 4.09368066 11.25 4.125 C10.425 4.14175781 9.6 4.15851563 8.75 4.17578125 C7.95078125 4.18222656 7.1515625 4.18867187 6.328125 4.1953125 C5.5949707 4.20578613 4.86181641 4.21625977 4.10644531 4.22705078 C1.70103924 3.96777544 0.08748506 3.19225925 -2 2 C-1.34 2 -0.68 2 0 2 C0 1.34 0 0.68 0 0 Z " fill="#B6B1B5" transform="translate(98,106)"/>
<path d="M0 0 C0.99 0.33 1.98 0.66 3 1 C0.11131651 4.3166366 -1.60594965 5.61790867 -6 6 C-9.33533126 6.06660416 -12.66463628 6.05828791 -16 6 C-16 5.67 -16 5.34 -16 5 C-14.02 5 -12.04 5 -10 5 C-10 4.34 -10 3.68 -10 3 C-9.04287109 2.80083984 -9.04287109 2.80083984 -8.06640625 2.59765625 C-7.24011719 2.42105469 -6.41382813 2.24445312 -5.5625 2.0625 C-4.32693359 1.80146484 -4.32693359 1.80146484 -3.06640625 1.53515625 C-1.02338796 1.19247006 -1.02338796 1.19247006 0 0 Z " fill="#F3F1F5" transform="translate(189,24)"/>
<path d="M0 0 C6.23704742 -0.38186005 10.40408748 0.20204374 16 3 C16.99 3.33 17.98 3.66 19 4 C19 4.66 19 5.32 19 6 C12.54945018 4.64746536 6.28894321 2.96939767 0 1 C0 0.67 0 0.34 0 0 Z " fill="#928E8F" transform="translate(98,221)"/>
<path d="M0 0 C1.175625 0.165 2.35125 0.33 3.5625 0.5 C6.40092693 0.86299598 8.99107296 1 11.875 1 C15 1 15 1 17 2 C16.67 2.99 16.34 3.98 16 5 C9.741346 5.5326514 5.54891215 3.81849506 0 1 C0 0.67 0 0.34 0 0 Z " fill="#C1BFC0" transform="translate(225,281)"/>
<path d="M0 0 C-0.99 0.495 -0.99 0.495 -2 1 C-2 1.66 -2 2.32 -2 3 C-7.61 3 -13.22 3 -19 3 C-19 2.67 -19 2.34 -19 2 C-12.65176798 -0.30844801 -6.70518586 -0.19818283 0 0 Z " fill="#E7E7E7" transform="translate(141,233)"/>
<path d="M0 0 C0.33 0 0.66 0 1 0 C1 3.3 1 6.6 1 10 C1.66 10 2.32 10 3 10 C2.34 13.63 1.68 17.26 1 21 C0.34 21 -0.32 21 -1 21 C-0.67 14.07 -0.34 7.14 0 0 Z " fill="#C4C1C2" transform="translate(130,90)"/>
<path d="M0 0 C2.22333727 3.81143533 3.10108198 7.71285253 4 12 C3.67 12.66 3.34 13.32 3 14 C2.01 13.67 1.02 13.34 0 13 C-0.19466332 11.20909747 -0.38051213 9.41723495 -0.5625 7.625 C-0.66691406 6.62726563 -0.77132812 5.62953125 -0.87890625 4.6015625 C-1 2 -1 2 0 0 Z " fill="#B7B4B6" transform="translate(61,191)"/>
<path d="M0 0 C1.75328507 3.02840149 2.25093193 5.19874367 2.1875 8.6875 C2.18105469 9.47511719 2.17460938 10.26273438 2.16796875 11.07421875 C2 13 2 13 1 14 C0.76924918 15.34747084 0.58846937 16.70377565 0.4375 18.0625 C0.293125 19.361875 0.14875 20.66125 0 22 C-0.33 22 -0.66 22 -1 22 C-1.02726927 19.64575325 -1.04696719 17.29183038 -1.0625 14.9375 C-1.07990234 12.97103516 -1.07990234 12.97103516 -1.09765625 10.96484375 C-1.00452335 7.1836481 -0.61448726 3.72079293 0 0 Z " fill="#BAB6BC" transform="translate(119,86)"/>
<path d="M0 0 C1.65 0.33 3.3 0.66 5 1 C4.79375 1.598125 4.5875 2.19625 4.375 2.8125 C3.69328085 5.28450846 3.69328085 5.28450846 6 8 C5.01 9.485 5.01 9.485 4 11 C3.13050683 9.92892883 2.27985795 8.84254056 1.4375 7.75 C0.96183594 7.14671875 0.48617187 6.5434375 -0.00390625 5.921875 C-1 4 -1 4 -0.65234375 1.765625 C-0.43707031 1.18296875 -0.22179687 0.6003125 0 0 Z " fill="#969395" transform="translate(170,267)"/>
<path d="M0 0 C4.62 1.32 9.24 2.64 14 4 C13.67 4.66 13.34 5.32 13 6 C11.02 6 9.04 6 7 6 C7 5.34 7 4.68 7 4 C4.69 3.67 2.38 3.34 0 3 C0 2.01 0 1.02 0 0 Z " fill="#D3D3D3" transform="translate(67,109)"/>
<path d="M0 0 C5.46864457 1.01591421 10.76390013 2.07091057 16 4 C13.462474 5.65752886 12.29410938 6.03785566 9.23828125 5.64453125 C8.27277344 5.36996094 7.30726563 5.09539062 6.3125 4.8125 C5.33925781 4.55082031 4.36601562 4.28914063 3.36328125 4.01953125 C2.58339844 3.68308594 1.80351562 3.34664063 1 3 C0.67 2.01 0.34 1.02 0 0 Z " fill="#DCD3DB" transform="translate(192,270)"/>
<path d="M0 0 C0.66 0 1.32 0 2 0 C2.25 6.625 2.25 6.625 0 10 C-2.625 10.6875 -2.625 10.6875 -5 11 C-5.33 10.01 -5.66 9.02 -6 8 C-4.35 8 -2.7 8 -1 8 C-1.020625 6.865625 -1.04125 5.73125 -1.0625 4.5625 C-1 1 -1 1 0 0 Z " fill="#D0C6CF" transform="translate(191,208)"/>
<path d="M0 0 C5.625 -0.25 5.625 -0.25 9 2 C9.6875 5.625 9.6875 5.625 10 9 C9.01 9.33 8.02 9.66 7 10 C7 7.69 7 5.38 7 3 C4.69 2.67 2.38 2.34 0 2 C0 1.34 0 0.68 0 0 Z " fill="#D3C9D2" transform="translate(154,124)"/>
<path d="M0 0 C1.2375 0.350625 2.475 0.70125 3.75 1.0625 C4.8225 1.371875 5.895 1.68125 7 2 C7 2.33 7 2.66 7 3 C1.62374766 3.84888195 -2.65370398 4.0024305 -8 3 C-8 2.01 -8 1.02 -8 0 C-4.87764633 -1.00361368 -3.11064789 -0.97763219 0 0 Z " fill="#C4C2C3" transform="translate(163,219)"/>
<path d="M0 0 C3.75561867 0.32657554 6.73602552 1.1169378 10 3 C9.67 3.66 9.34 4.32 9 5 C7.54077307 4.88590407 6.08259402 4.75834456 4.625 4.625 C3.40683594 4.52058594 3.40683594 4.52058594 2.1640625 4.4140625 C0 4 0 4 -2 2 C-1.34 1.34 -0.68 0.68 0 0 Z " fill="#C2BFCB" transform="translate(66,220)"/>
<path d="M0 0 C0.99 0 1.98 0 3 0 C3.98248524 4.0527516 4.08159574 7.83861737 4 12 C3.01 11.67 2.02 11.34 1 11 C0.67 7.37 0.34 3.74 0 0 Z " fill="#C8C5C8" transform="translate(145,180)"/>
<path d="M0 0 C0.66 0.33 1.32 0.66 2 1 C2 2.98 2 4.96 2 7 C-1.38391693 8.06351675 -2.5804634 8.21442982 -5.8125 6.5625 C-6.534375 6.046875 -7.25625 5.53125 -8 5 C-4.94736336 4.01879536 -3.05263664 4.01879536 0 5 C0 3.35 0 1.7 0 0 Z " fill="#CDC9CB" transform="translate(161,109)"/>
<path d="M0 0 C2.97 0 5.94 0 9 0 C9.66 1.32 10.32 2.64 11 4 C10.44828125 3.83628906 9.8965625 3.67257813 9.328125 3.50390625 C6.73385993 2.94239586 4.40164589 2.90260992 1.75 2.9375 C0.41195312 2.95103516 0.41195312 2.95103516 -0.953125 2.96484375 C-1.62859375 2.97644531 -2.3040625 2.98804687 -3 3 C-2.01 2.67 -1.02 2.34 0 2 C0 1.34 0 0.68 0 0 Z " fill="#CBC9CE" transform="translate(112,80)"/>
<path d="M0 0 C0.33 0.99 0.66 1.98 1 3 C1.66 3 2.32 3 3 3 C2.95875 3.928125 2.9175 4.85625 2.875 5.8125 C2.72863661 9.15809719 2.72863661 9.15809719 5 12 C2.5625 11.3125 2.5625 11.3125 0 10 C-1.35080958 6.43000326 -0.93659101 3.64229838 0 0 Z " fill="#7C797A" transform="translate(93,139)"/>
<path d="M0 0 C1.13508688 3.3515741 0.87309359 5.35675676 -0.25 8.6875 C-0.50265625 9.47511719 -0.7553125 10.26273438 -1.015625 11.07421875 C-2 13 -2 13 -5 14 C-4.03603575 8.79459302 -3.12319499 4.40086567 0 0 Z " fill="#D5D4D5" transform="translate(62,109)"/>
<path d="M0 0 C0.66 0 1.32 0 2 0 C1.125 7.625 1.125 7.625 0 11 C-0.66 11 -1.32 11 -2 11 C-3.14947895 7.44706507 -3.0868937 6.20023331 -1.5625 2.6875 C-1.046875 1.800625 -0.53125 0.91375 0 0 Z " fill="#BEAABB" transform="translate(121,16)"/>
<path d="M0 0 C0 0.66 0 1.32 0 2 C1.32 2 2.64 2 4 2 C3.67 2.99 3.34 3.98 3 5 C0.03 4.67 -2.94 4.34 -6 4 C-5.67 3.01 -5.34 2.02 -5 1 C-3 0 -3 0 0 0 Z " fill="#AC9798" transform="translate(230,267)"/>
<path d="M0 0 C3.48670834 1.1094072 6.77484237 2.26337666 10 4 C10 4.66 10 5.32 10 6 C3.375 5.25 3.375 5.25 0 3 C0 2.01 0 1.02 0 0 Z " fill="#B2B0B3" transform="translate(95,159)"/>
<path d="M0 0 C1.4540625 0.0309375 1.4540625 0.0309375 2.9375 0.0625 C1.9475 0.5575 1.9475 0.5575 0.9375 1.0625 C0.28194881 3.58983235 0.28194881 3.58983235 -0.0625 6.0625 C-1.3825 5.7325 -2.7025 5.4025 -4.0625 5.0625 C-4.0625 0.08290816 -4.0625 0.08290816 0 0 Z " fill="#9A9899" transform="translate(81.0625,209.9375)"/>
<path d="M0 0 C2.64 0.33 5.28 0.66 8 1 C8.33 1.99 8.66 2.98 9 4 C6 4 3 4 0 4 C-0.33 3.34 -0.66 2.68 -1 2 C-0.67 1.34 -0.34 0.68 0 0 Z " fill="#D9CDD7" transform="translate(167,264)"/>
<path d="M0 0 C0.33 0.99 0.66 1.98 1 3 C-3.455 3.495 -3.455 3.495 -8 4 C-8 3.34 -8 2.68 -8 2 C-8.66 1.67 -9.32 1.34 -10 1 C-3.375 0 -3.375 0 0 0 Z " fill="#BEBABB" transform="translate(184,216)"/>
<path d="M0 0 C0.33 0.99 0.66 1.98 1 3 C-3.625 7 -3.625 7 -7 7 C-7.33 8.32 -7.66 9.64 -8 11 C-8.25 8.70703125 -8.25 8.70703125 -8 6 C-6.25 4.19921875 -6.25 4.19921875 -4 2.6875 C-3.2575 2.17574219 -2.515 1.66398438 -1.75 1.13671875 C-1.1725 0.76160156 -0.595 0.38648438 0 0 Z " fill="#DBCED9" transform="translate(65,166)"/>
<path d="M0 0 C2.55694972 3.83542457 2.04045639 5.65902533 1.625 10.1875 C1.51414063 11.45980469 1.40328125 12.73210937 1.2890625 14.04296875 C1.19367187 15.01878906 1.09828125 15.99460938 1 17 C0.67 17 0.34 17 0 17 C-0.19561869 14.9174133 -0.38119313 12.83388144 -0.5625 10.75 C-0.66691406 9.58984375 -0.77132812 8.4296875 -0.87890625 7.234375 C-0.98198087 4.48128523 -0.86213473 2.580018 0 0 Z " fill="#CCCACB" transform="translate(56,124)"/>
<path d="M0 0 C-1.375 1.5 -1.375 1.5 -3 3 C-3.66 3 -4.32 3 -5 3 C-5 3.66 -5 4.32 -5 5 C-6.65 4.67 -8.3 4.34 -10 4 C-6.87839899 0.56623888 -4.64008112 -1.54669371 0 0 Z " fill="#CFBFCD" transform="translate(107,198)"/>
<path d="M0 0 C1.32 0.33 2.64 0.66 4 1 C4.5625 2.9375 4.5625 2.9375 5 5 C4 6 4 6 0.9375 6.0625 C-0.5165625 6.0315625 -0.5165625 6.0315625 -2 6 C-1.34 5.01 -0.68 4.02 0 3 C0 2.01 0 1.02 0 0 Z " fill="#D1C3C4" transform="translate(124,172)"/>
<path d="M0 0 C4.571279 0.54855348 8.67435795 1.41744803 13 3 C10.96151176 4.52886618 9.53429093 5.05498528 6.98828125 4.79296875 C2.89543345 3.88916214 2.89543345 3.88916214 1 3 C0.67 2.01 0.34 1.02 0 0 Z " fill="#F9F6F7" transform="translate(223,278)"/>
<path d="M0 0 C0 0.66 0 1.32 0 2 C-2.40545638 3.20272819 -3.94996953 3.10071472 -6.625 3.0625 C-7.85089844 3.04896484 -7.85089844 3.04896484 -9.1015625 3.03515625 C-10.04128906 3.01775391 -10.04128906 3.01775391 -11 3 C-8.89427904 -1.21144191 -4.11694326 -0.07767817 0 0 Z " fill="#CECBCC" transform="translate(170,230)"/>
<path d="M0 0 C1.98 0 3.96 0 6 0 C6 0.66 6 1.32 6 2 C6.66 2.33 7.32 2.66 8 3 C3.545 3.495 3.545 3.495 -1 4 C-0.67 2.68 -0.34 1.36 0 0 Z " fill="#BABABA" transform="translate(121,224)"/>
<path d="M0 0 C0.66 0.33 1.32 0.66 2 1 C1.67 3.97 1.34 6.94 1 10 C0.01 10.33 -0.98 10.66 -2 11 C-1.125 3.375 -1.125 3.375 0 0 Z " fill="#DDD8DC" transform="translate(106,50)"/>
<path d="M0 0 C0.99 0.33 1.98 0.66 3 1 C1.25 6.75 1.25 6.75 -1 9 C-1.33 6.69 -1.66 4.38 -2 2 C-1.34 2 -0.68 2 0 2 C0 1.34 0 0.68 0 0 Z " fill="#BDBABE" transform="translate(106,24)"/>
<path d="M0 0 C3.09592835 3.5087188 4.74194623 6.49197399 6 11 C5.01 11 4.02 11 3 11 C3 9.68 3 8.36 3 7 C2.34 7 1.68 7 1 7 C0.67 4.69 0.34 2.38 0 0 Z " fill="#DBD5D6" transform="translate(226,252)"/>
<path d="M0 0 C2.875 0.25 2.875 0.25 6 1 C7.375 3.0625 7.375 3.0625 8 5 C7.34 5 6.68 5 6 5 C6 4.34 6 3.68 6 3 C2.37 3 -1.26 3 -5 3 C-5 2.67 -5 2.34 -5 2 C-3.35 2 -1.7 2 0 2 C0 1.34 0 0.68 0 0 Z " fill="#D3D1D5" transform="translate(172,179)"/>
<path d="M0 0 C0.99 0.33 1.98 0.66 3 1 C1.35 4.3 -0.3 7.6 -2 11 C-2.66 10.01 -3.32 9.02 -4 8 C-3.34 7.34 -2.68 6.68 -2 6 C-1.28591666 4.01643517 -0.61382258 2.01684563 0 0 Z " fill="#D7CDCF" transform="translate(177,58)"/>
<path d="M0 0 C2.875 -0.125 2.875 -0.125 6 0 C6.66 0.66 7.32 1.32 8 2 C7.625 4.625 7.625 4.625 7 7 C6.34 6.67 5.68 6.34 5 6 C5 4.68 5 3.36 5 2 C3.02 2 1.04 2 -1 2 C-0.67 1.34 -0.34 0.68 0 0 Z " fill="#EDE8E9" transform="translate(177,37)"/>
<path d="M0 0 C2.61580479 0.3269756 4.64078137 0.82039068 7 2 C6.67 2.99 6.34 3.98 6 5 C3.36 4.01 0.72 3.02 -2 2 C-1.34 1.34 -0.68 0.68 0 0 Z " fill="#BAADB8" transform="translate(218,266)"/>
<path d="M0 0 C1.98 0.99 1.98 0.99 4 2 C4 3.98 4 5.96 4 8 C3.01 8 2.02 8 1 8 C0 2.25 0 2.25 0 0 Z " fill="#CCC0C1" transform="translate(169,163)"/>
<path d="M0 0 C1.60080151 4.00200378 0.29279692 7.04556236 -1 11 C-1.66 11 -2.32 11 -3 11 C-3.32613618 6.32538149 -2.70582788 3.83325617 0 0 Z " fill="#DEDBDF" transform="translate(182,46)"/>
<path d="M0 0 C3.15140423 0.34069235 4.60781561 0.58076841 6.8125 2.9375 C8 5 8 5 8 7 C7.01 7 6.02 7 5 7 C2 3.66666667 2 3.66666667 2 1 C1.34 0.67 0.68 0.34 0 0 Z " fill="#9C9A9B" transform="translate(245,289)"/>
<path d="M0 0 C2.31 0.66 4.62 1.32 7 2 C6.67 2.99 6.34 3.98 6 5 C3.69 4.34 1.38 3.68 -1 3 C-0.67 2.01 -0.34 1.02 0 0 Z " fill="#888787" transform="translate(117,169)"/>
<path d="M0 0 C2.97 0 5.94 0 9 0 C9.33 0.99 9.66 1.98 10 3 C6.37 2.67 2.74 2.34 -1 2 C-0.67 1.34 -0.34 0.68 0 0 Z " fill="#9D9B9D" transform="translate(161,169)"/>
<path d="M0 0 C0.66 0.33 1.32 0.66 2 1 C2.25 7.625 2.25 7.625 0 11 C0 9.68 0 8.36 0 7 C-0.66 6.67 -1.32 6.34 -2 6 C-1.34 4.02 -0.68 2.04 0 0 Z " fill="#919193" transform="translate(88,115)"/>
<path d="M0 0 C1.258125 -0.020625 2.51625 -0.04125 3.8125 -0.0625 C4.52019531 -0.07410156 5.22789062 -0.08570313 5.95703125 -0.09765625 C8 0 8 0 11 1 C11 1.66 11 2.32 11 3 C9.35333797 2.8864371 7.70763918 2.75882619 6.0625 2.625 C5.14597656 2.55539063 4.22945312 2.48578125 3.28515625 2.4140625 C2.15400391 2.20910156 2.15400391 2.20910156 1 2 C0.67 1.34 0.34 0.68 0 0 Z " fill="#D4D1D6" transform="translate(133,39)"/>
<path d="M0 0 C1.98 0 3.96 0 6 0 C6 0.66 6 1.32 6 2 C7.65 2 9.3 2 11 2 C7.1496895 4.56687367 5.41430237 3.83288724 1 3 C0.67 2.01 0.34 1.02 0 0 Z " fill="#CBCACC" transform="translate(122,25)"/>
<path d="M0 0 C0.33 0 0.66 0 1 0 C1.05422947 1.4370809 1.09289723 2.87475462 1.125 4.3125 C1.14820313 5.11300781 1.17140625 5.91351563 1.1953125 6.73828125 C1 9 1 9 -1 12 C-3.125 12.6875 -3.125 12.6875 -5 13 C-4.67 12.01 -4.34 11.02 -4 10 C-3.34 10 -2.68 10 -2 10 C-2 9.34 -2 8.68 -2 8 C-1.34 8 -0.68 8 0 8 C0 5.36 0 2.72 0 0 Z " fill="#4E4D4E" transform="translate(142,212)"/>
<path d="M0 0 C-1.75 2 -1.75 2 -4 4 C-5.32 4 -6.64 4 -8 4 C-7 1 -7 1 -5.125 -0.25 C-3 -1 -3 -1 0 0 Z " fill="#C9BBCB" transform="translate(97,203)"/>
<path d="M0 0 C2.1640625 -0.29296875 2.1640625 -0.29296875 4.625 -0.1875 C5.44226563 -0.16042969 6.25953125 -0.13335937 7.1015625 -0.10546875 C8.04128906 -0.05326172 8.04128906 -0.05326172 9 0 C6.28817788 2.60334924 5.10866187 2.99456691 1.25 3.1875 C0.1775 3.125625 -0.895 3.06375 -2 3 C-1.34 2.01 -0.68 1.02 0 0 Z " fill="#CFCCCD" transform="translate(111,69)"/>
<path d="M0 0 C5.53846154 -0.36923077 5.53846154 -0.36923077 7.875 1.5 C8.24625 1.995 8.6175 2.49 9 3 C5.79937313 4.60031344 3.27728194 3.03173691 0 2 C0 1.34 0 0.68 0 0 Z " fill="#D4D4D4" transform="translate(216,277)"/>
<path d="M0 0 C2.31 1.98 4.62 3.96 7 6 C5.68 6.33 4.36 6.66 3 7 C2.67 6.01 2.34 5.02 2 4 C1.34 4 0.68 4 0 4 C0 2.68 0 1.36 0 0 Z " fill="#DAD8DA" transform="translate(206,228)"/>
<path d="M0 0 C0.33 0.66 0.66 1.32 1 2 C0.34 2 -0.32 2 -1 2 C-1 2.66 -1 3.32 -1 4 C-4 6 -4 6 -8 6 C-8 5.34 -8 4.68 -8 4 C-5.36 2.68 -2.72 1.36 0 0 Z " fill="#E5CDDA" transform="translate(116,191)"/>
<path d="M0 0 C0 0.66 0 1.32 0 2 C-6.625 2.25 -6.625 2.25 -10 0 C-6.7169902 -1.6415049 -3.57454967 -0.51888624 0 0 Z " fill="#D9B9C8" transform="translate(94,106)"/>
<path d="M0 0 C0.66 0.33 1.32 0.66 2 1 C2.125 6.75 2.125 6.75 1 9 C0.01 8.67 -0.98 8.34 -2 8 C-2 7.01 -2 6.02 -2 5 C-1.01 5 -0.02 5 1 5 C0.34 3.68 -0.32 2.36 -1 1 C-0.67 0.67 -0.34 0.34 0 0 Z " fill="#A09FA0" transform="translate(142,63)"/>
<path d="M0 0 C-1.75 2.0625 -1.75 2.0625 -4 4 C-6.25 3.75 -6.25 3.75 -8 3 C-8 2.34 -8 1.68 -8 1 C-3.375 -1.125 -3.375 -1.125 0 0 Z " fill="#CFCDD0" transform="translate(192,25)"/>
<path d="M0 0 C0.99 0.33 1.98 0.66 3 1 C3 2.98 3 4.96 3 7 C2.01 6.67 1.02 6.34 0 6 C0.33 6.99 0.66 7.98 1 9 C0.34 9 -0.32 9 -1 9 C-1 7.35 -1 5.7 -1 4 C-0.34 4 0.32 4 1 4 C0.67 2.68 0.34 1.36 0 0 Z " fill="#A19E9E" transform="translate(193,9)"/>
<path d="M0 0 C-0.33 0.99 -0.66 1.98 -1 3 C-2.98 3 -4.96 3 -7 3 C-6.67 2.01 -6.34 1.02 -6 0 C-3 -1 -3 -1 0 0 Z " fill="#D5D3D4" transform="translate(105,280)"/>
<path d="M0 0 C4.75 0.875 4.75 0.875 7 2 C7 2.66 7 3.32 7 4 C5.68 4.33 4.36 4.66 3 5 C2.01 3.35 1.02 1.7 0 0 Z " fill="#BEBCBD" transform="translate(175,266)"/>
<path d="M0 0 C2.31 0.33 4.62 0.66 7 1 C7.33 1.99 7.66 2.98 8 4 C3.545 3.01 3.545 3.01 -1 2 C-0.67 1.34 -0.34 0.68 0 0 Z " fill="#7E7A7B" transform="translate(109,223)"/>
<path d="M0 0 C2.50298434 2.93828597 3.46930939 5.17902761 4 9 C3.34 9 2.68 9 2 9 C0.93347808 6.69631264 -0.06421005 4.35981813 -1 2 C-0.67 1.34 -0.34 0.68 0 0 Z " fill="#DCC9DB" transform="translate(180,184)"/>
<path d="M0 0 C2.31 0.66 4.62 1.32 7 2 C6.01 2.495 6.01 2.495 5 3 C5 3.66 5 4.32 5 5 C3.02 4.34 1.04 3.68 -1 3 C-0.67 2.01 -0.34 1.02 0 0 Z " fill="#988889" transform="translate(130,163)"/>
<path d="M0 0 C0.66 0 1.32 0 2 0 C2.33 1.98 2.66 3.96 3 6 C1.35 5.67 -0.3 5.34 -2 5 C-1.34 3.35 -0.68 1.7 0 0 Z " fill="#C6C4C7" transform="translate(162,134)"/>
<path d="M0 0 C1.875 0.1875 1.875 0.1875 4 1 C5.25 3.5625 5.25 3.5625 6 6 C5.01 6 4.02 6 3 6 C2.01 4.02 1.02 2.04 0 0 Z " fill="#B0AFB0" transform="translate(177,281)"/>
<path d="M0 0 C1.4800841 0.11362262 2.95910074 0.24122908 4.4375 0.375 C5.26121094 0.44460938 6.08492187 0.51421875 6.93359375 0.5859375 C7.95646484 0.79089844 7.95646484 0.79089844 9 1 C9.33 1.66 9.66 2.32 10 3 C7.69 2.67 5.38 2.34 3 2 C2.67 2.66 2.34 3.32 2 4 C1.01 3.67 0.02 3.34 -1 3 C-0.67 2.01 -0.34 1.02 0 0 Z " fill="#B1B0B0" transform="translate(202,275)"/>
<path d="M0 0 C0.33 0.99 0.66 1.98 1 3 C-1.31 3.33 -3.62 3.66 -6 4 C-6 3.01 -6 2.02 -6 1 C-3 0 -3 0 0 0 Z " fill="#B5B3B6" transform="translate(123,274)"/>
<path d="M0 0 C1.32 0 2.64 0 4 0 C4.33 1.65 4.66 3.3 5 5 C4.01 5.33 3.02 5.66 2 6 C1.34 4.02 0.68 2.04 0 0 Z " fill="#949394" transform="translate(123,249)"/>
<path d="M0 0 C-0.33 0.66 -0.66 1.32 -1 2 C-3.64860427 2.59355614 -6.29197322 2.74209269 -9 3 C-9.33 2.34 -9.66 1.68 -10 1 C-6.78548731 -0.60725635 -3.56387464 -0.05748185 0 0 Z " fill="#D792C9" transform="translate(129,233)"/>
<path d="M0 0 C0.99 0 1.98 0 3 0 C2.67 2.31 2.34 4.62 2 7 C1.34 7 0.68 7 0 7 C0 4.69 0 2.38 0 0 Z " fill="#ADACAC" transform="translate(59,186)"/>
<path d="M0 0 C0.66 0 1.32 0 2 0 C3.35439668 2.70879335 3.06501451 5.00933268 3 8 C2.01 7.67 1.02 7.34 0 7 C0 4.69 0 2.38 0 0 Z " fill="#BFBABB" transform="translate(83,130)"/>
<path d="M0 0 C3.96 0.33 7.92 0.66 12 1 C12 1.33 12 1.66 12 2 C10.37585622 2.19477739 8.75063577 2.38059458 7.125 2.5625 C6.22007812 2.66691406 5.31515625 2.77132812 4.3828125 2.87890625 C2 3 2 3 0 2 C0 1.34 0 0.68 0 0 Z " fill="#7A787A" transform="translate(122,118)"/>
<path d="M0 0 C1.32 0.33 2.64 0.66 4 1 C3.34 3.64 2.68 6.28 2 9 C1.67 9 1.34 9 1 9 C0.67 6.03 0.34 3.06 0 0 Z " fill="#868585" transform="translate(93,57)"/>
<path d="M0 0 C1.125 1.6875 1.125 1.6875 2 4 C1.125 6.75 1.125 6.75 0 9 C-0.66 9 -1.32 9 -2 9 C-2.33 9.66 -2.66 10.32 -3 11 C-2.32829194 7.1936543 -1.27253436 3.64793184 0 0 Z " fill="#E4E0E2" transform="translate(87,28)"/>
<path d="M0 0 C2.31 0.33 4.62 0.66 7 1 C6.67 1.99 6.34 2.98 6 4 C3.69 3.34 1.38 2.68 -1 2 C-0.67 1.34 -0.34 0.68 0 0 Z " fill="#9E8D8E" transform="translate(201,262)"/>
<path d="M0 0 C-0.33 0.66 -0.66 1.32 -1 2 C-3.32156597 2.40729228 -5.6568787 2.74438677 -8 3 C-8.33 2.34 -8.66 1.68 -9 1 C-5.8035914 -0.06546953 -3.34252724 -0.07427838 0 0 Z " fill="#DEDDDE" transform="translate(151,232)"/>
<path d="M0 0 C0.66 0 1.32 0 2 0 C2 3.63 2 7.26 2 11 C1.67 11 1.34 11 1 11 C-1.42857143 3.57142857 -1.42857143 3.57142857 0 0 Z " fill="#CCC8CC" transform="translate(63,224)"/>
<path d="M0 0 C0.33 0.66 0.66 1.32 1 2 C1.66 2.33 2.32 2.66 3 3 C2.34 3.66 1.68 4.32 1 5 C-0.32 5 -1.64 5 -3 5 C-3 4.01 -3 3.02 -3 2 C-2.01 1.34 -1.02 0.68 0 0 Z " fill="#B5B2B5" transform="translate(88,205)"/>
<path d="M0 0 C0.33 1.32 0.66 2.64 1 4 C-0.8125 4.625 -0.8125 4.625 -3 5 C-3.99 4.34 -4.98 3.68 -6 3 C-4.02 2.01 -2.04 1.02 0 0 Z " fill="#979697" transform="translate(128,185)"/>
<path d="M0 0 C2.64 0.66 5.28 1.32 8 2 C7.34 2.66 6.68 3.32 6 4 C2.875 3.625 2.875 3.625 0 3 C0 2.01 0 1.02 0 0 Z " fill="#E6E2E4" transform="translate(67,109)"/>
<path d="M0 0 C2 3 2 3 1.625 6.1875 C1.41875 7.115625 1.2125 8.04375 1 9 C0.34 9 -0.32 9 -1 9 C-2.0326802 6.21176345 -2.04509293 5.1322726 -1.0625 2.25 C-0.711875 1.5075 -0.36125 0.765 0 0 Z " fill="#EBE8EC" transform="translate(75,62)"/>
<path d="M0 0 C1.875 1.1875 1.875 1.1875 2.875 3.1875 C-1.67884615 3.55673077 -1.67884615 3.55673077 -3.9375 1.6875 C-4.5253125 0.945 -4.5253125 0.945 -5.125 0.1875 C-2.125 -0.8125 -2.125 -0.8125 0 0 Z " fill="#737373" transform="translate(153.125,262.8125)"/>
<path d="M0 0 C1.32 0.66 2.64 1.32 4 2 C4 2.99 4 3.98 4 5 C1.525 4.01 1.525 4.01 -1 3 C-0.67 2.01 -0.34 1.02 0 0 Z " fill="#DADADC" transform="translate(201,224)"/>
<path d="M0 0 C0.99 0 1.98 0 3 0 C4.125 4.75 4.125 4.75 3 7 C2.34 7 1.68 7 1 7 C0.67 4.69 0.34 2.38 0 0 Z " fill="#CBBACA" transform="translate(57,178)"/>
<path d="M0 0 C2.125 0.9375 2.125 0.9375 4 2 C4 2.66 4 3.32 4 4 C3.01 4.33 2.02 4.66 1 5 C0.01 4.34 -0.98 3.68 -2 3 C-2 2.34 -2 1.68 -2 1 C-1.34 0.67 -0.68 0.34 0 0 Z " fill="#A09C9D" transform="translate(137,165)"/>
<path d="M0 0 C1.2380014 3.57644848 0.74926071 6.33694766 0 10 C-1.58538318 7.48203847 -2.0373656 6.32134414 -1.6875 3.3125 C-1 1 -1 1 0 0 Z " fill="#E5E4E6" transform="translate(166,94)"/>
<path d="M0 0 C0.33 0.66 0.66 1.32 1 2 C2.32 2 3.64 2 5 2 C3.60804085 4.7839183 1.84424221 4.97898997 -1 6 C-1.33 4.35 -1.66 2.7 -2 1 C-1.34 0.67 -0.68 0.34 0 0 Z " fill="#B0ACB1" transform="translate(134,81)"/>
<path d="M0 0 C2.1519437 3.22791555 2.20086443 4.28400809 2 8 C1.01 8 0.02 8 -1 8 C-0.67 5.36 -0.34 2.72 0 0 Z " fill="#AA989A" transform="translate(103,61)"/>
<path d="M0 0 C0.33 0 0.66 0 1 0 C1 2.31 1 4.62 1 7 C0.01 6.67 -0.98 6.34 -2 6 C-1.125 1.125 -1.125 1.125 0 0 Z " fill="#B6B6B6" transform="translate(93,61)"/>
<path d="M0 0 C0 0.66 0 1.32 0 2 C1.65 2 3.3 2 5 2 C5 2.33 5 2.66 5 3 C0.83861737 3.08159574 -2.9472484 2.98248524 -7 2 C-4.35261084 0.5393715 -3.10551666 0 0 0 Z " fill="#E9C9E8" transform="translate(146,30)"/>
<path d="M0 0 C0.66 0 1.32 0 2 0 C2.33 1.32 2.66 2.64 3 4 C1.02 4.99 1.02 4.99 -1 6 C-0.67 4.02 -0.34 2.04 0 0 Z " fill="#B9B6B9" transform="translate(110,13)"/>
</svg>
