<?xml version="1.0" encoding="UTF-8"?>
<svg version="1.1" xmlns="http://www.w3.org/2000/svg" width="192" height="192">
<path d="M0 0 C5.50053898 0.05039761 10.82424031 0.7287469 16.25 1.5625 C17.43021729 1.73894043 17.43021729 1.73894043 18.63427734 1.91894531 C20.98097206 2.30150009 23.29829689 2.76106396 25.625 3.25 C26.44524658 3.39260254 27.26549316 3.53520508 28.1105957 3.68212891 C30.61689296 4.26699068 32.46755767 4.84047479 34.625 6.25 C36.39475712 9.35274725 36.96230757 12.50431857 37.5625 16 C37.92520042 17.76574441 38.28847142 19.53137172 38.65234375 21.296875 C38.89186768 22.55854492 38.89186768 22.55854492 39.13623047 23.84570312 C39.78673271 27.04557628 40.67378073 30.12761207 41.625 33.25 C39.05961517 35.81538483 37.22250848 35.6317319 33.70654297 35.67993164 C20.26798304 35.38688299 0.49205473 30.11705473 -9.375 20.25 C-9.6343907 13.71582487 -7.88412841 7.23645311 -5.375 1.25 C-3.78498272 -0.34001728 -2.21429729 0.04087933 0 0 Z " fill="#676767" transform="translate(66.375,71.75)"/>
<path d="M0 0 C2.56111583 1.83588897 4.04043219 3.89636912 5.84765625 6.4765625 C6.53601563 7.45625 7.224375 8.4359375 7.93359375 9.4453125 C8.94292969 10.91484375 8.94292969 10.91484375 9.97265625 12.4140625 C10.58367187 13.290625 11.1946875 14.1671875 11.82421875 15.0703125 C15.97265625 21.1258516 15.97265625 21.1258516 15.97265625 23.4140625 C8.33189407 23.4835531 0.69116463 23.5368689 -6.9498415 23.56949902 C-10.49784311 23.58515943 -14.04562862 23.60640401 -17.59350586 23.64038086 C-21.67173342 23.67919257 -25.74973376 23.69376852 -29.828125 23.70703125 C-31.10319412 23.72251511 -32.37826324 23.73799896 -33.69197083 23.75395203 C-34.8729686 23.75417862 -36.05396637 23.75440521 -37.27075195 23.75463867 C-38.83295219 23.76463142 -38.83295219 23.76463142 -40.42671204 23.77482605 C-43.02734375 23.4140625 -43.02734375 23.4140625 -44.85978699 22.04902649 C-46.02734375 20.4140625 -46.02734375 20.4140625 -46.46484375 17.9140625 C-46.02734375 15.4140625 -46.02734375 15.4140625 -44.42578125 13.875 C-41.42347939 12.04623633 -38.63269294 11.36167583 -35.21484375 10.5390625 C-24.54064518 7.86099522 -14.06531971 4.59245885 -4.078125 -0.08203125 C-2.02734375 -0.5859375 -2.02734375 -0.5859375 0 0 Z " fill="#686868" transform="translate(95.02734375,162.5859375)"/>
<path d="M0 0 C22.65794678 3.27993572 22.65794678 3.27993572 28.67138672 9.81689453 C31.91892567 14.9156165 34.38083242 20.89662089 33.6328125 26.9921875 C33.42398438 27.65476563 33.21515625 28.31734375 33 29 C29.96296132 30.01444466 26.91972923 31.00890046 23.875 32 C23.0190625 32.28617188 22.163125 32.57234375 21.28125 32.8671875 C12.6016513 35.67136554 12.6016513 35.67136554 8 35 C2.95292632 31.53947795 0.79468972 23.62244633 -0.45214844 17.93896484 C-0.83529179 15.79657928 -1.15502845 13.65788528 -1.4375 11.5 C-1.53039307 10.81784424 -1.62328613 10.13568848 -1.71899414 9.43286133 C-2.12776271 5.69162911 -2.14193127 3.16844173 0 0 Z " fill="#676767" transform="translate(40,136)"/>
<path d="M0 0 C1.27414378 0.60760813 2.54369362 1.22493848 3.80859375 1.8515625 C4.44216797 2.15578125 5.07574219 2.46 5.72851562 2.7734375 C9.58790093 4.63357378 13.41772189 6.55352825 17.24609375 8.4765625 C17.24609375 9.7965625 17.24609375 11.1165625 17.24609375 12.4765625 C16.68849365 12.73759766 16.13089355 12.99863281 15.55639648 13.26757812 C12.93021241 14.49987487 10.30659277 15.73750046 7.68359375 16.9765625 C6.73226562 17.42491455 5.7809375 17.8732666 4.80078125 18.33520508 C-1.62372247 21.3891141 -7.92501886 24.59634846 -14.04516602 28.2265625 C-16.84594178 29.81139966 -18.41125576 30.51110388 -21.66015625 30.18359375 C-22.35109375 29.95027344 -23.04203125 29.71695313 -23.75390625 29.4765625 C-24.25925352 26.74828885 -24.7583447 24.01911556 -25.25390625 21.2890625 C-25.39699219 20.52013672 -25.54007813 19.75121094 -25.6875 18.95898438 C-25.95715212 17.46305711 -26.20956452 15.96390098 -26.44311523 14.46191406 C-26.68960745 12.88730705 -26.99480537 11.32190809 -27.3203125 9.76171875 C-26.47292748 6.34295851 -24.30139494 5.27594372 -21.40820312 3.43359375 C-20.67666016 2.99402344 -19.94511719 2.55445312 -19.19140625 2.1015625 C-18.48693359 1.63878906 -17.78246094 1.17601563 -17.05664062 0.69921875 C-10.85997609 -3.12729299 -6.66890838 -2.8609197 0 0 Z " fill="#676767" transform="translate(61.75390625,98.5234375)"/>
<path d="M0 0 C1.83200761 1.83200761 1.1734944 4.66561695 1.1875 7.125 C1.15972074 12.17526868 0.75603689 16.28065085 -1 21 C-11.12366115 20.31548199 -11.12366115 20.31548199 -15.125 18.875 C-22.59244731 16.60229864 -30.78997041 19.85720616 -38 22 C-45.30689821 10.76076344 -45.30689821 10.76076344 -44.5390625 6.35546875 C-44.36117187 5.57816406 -44.18328125 4.80085937 -44 4 C-42.86046875 3.96261719 -41.7209375 3.92523438 -40.546875 3.88671875 C-30.7725808 3.50196149 -21.24225688 2.61937025 -11.58886719 1.01635742 C-3.71424928 -0.28403083 -3.71424928 -0.28403083 0 0 Z " fill="#666666" transform="translate(118,140)"/>
<path d="M0 0 C4.70480444 0.8451346 9.32363006 2.0799844 13.95751953 3.24755859 C16.82338726 3.95632158 19.69576867 4.63208131 22.57106018 5.30140686 C25.25485966 5.93352297 27.93156419 6.59287388 30.60757446 7.2571106 C31.94186138 7.58309828 33.27863252 7.89909656 34.61776733 8.20455933 C42.41970011 9.99459107 47.96033265 11.65237738 52.97412109 18.10644531 C54 20 54 20 54 23 C18.2482006 25.69921689 18.2482006 25.69921689 9.91259766 21.41210938 C5.21472017 17.16648335 2.86786353 11.95426785 1 6 C0.59652344 4.99324219 0.19304687 3.98648438 -0.22265625 2.94921875 C-0.47917969 2.30597656 -0.73570313 1.66273438 -1 1 C-0.67 0.67 -0.34 0.34 0 0 Z " fill="#686868" transform="translate(104,163)"/>
<path d="M0 0 C4.3556346 3.64093696 5.76331485 9.95143917 6.63964844 15.37060547 C6.7821627 18.06458482 6.73610754 20.66975051 6.63964844 23.37060547 C-1.60341858 27.86682384 -9.15104685 27.40001381 -18.02832031 24.80029297 C-23.50963549 23.0993932 -28.9458204 21.27277392 -34.36035156 19.37060547 C-34.36035156 18.05060547 -34.36035156 16.73060547 -34.36035156 15.37060547 C-29.88657067 13.03490573 -25.40272035 10.72034991 -20.90820312 8.42480469 C-19.38050542 7.64082892 -17.85572783 6.85113571 -16.33398438 6.05566406 C-14.14706491 4.91373284 -11.95049592 3.79272022 -9.75097656 2.67529297 C-9.07166077 2.31498993 -8.39234497 1.95468689 -7.69244385 1.58346558 C-2.95439024 -0.78779665 -2.95439024 -0.78779665 0 0 Z " fill="#676767" transform="translate(82.3603515625,114.62939453125)"/>
<path d="M0 0 C3.02889796 2.18815606 3.78504815 4.55279211 5 8 C5.94400929 9.52976575 6.90254535 11.05065717 7.875 12.5625 C10.26986445 16.85982686 10.29814932 19.30669091 9 24 C1.12327569 26.10379918 -6.79833664 28.15032437 -15 27 C-17.99307227 24.00692773 -17.99607801 20.34594356 -18.625 16.3125 C-18.7590625 15.52166016 -18.893125 14.73082031 -19.03125 13.91601562 C-19.79225447 9.21409516 -20.14022693 4.76134171 -20 0 C-14.77056141 -2.6147193 -5.64430246 -1.31351628 0 0 Z " fill="#686868" transform="translate(110,111)"/>
<path d="M0 0 C0.67863098 0.02689911 1.35726196 0.05379822 2.05645752 0.08151245 C4.21142347 0.17339469 6.36254127 0.30159082 8.515625 0.4296875 C9.97776587 0.49445565 11.440008 0.55697945 12.90234375 0.6171875 C23.56403374 1.10309624 23.56403374 1.10309624 24.765625 2.3046875 C24.80322266 4.0546875 24.80322266 4.0546875 24.6796875 6.3046875 C24.63585937 7.1090625 24.59203125 7.9134375 24.546875 8.7421875 C24.4953125 9.5878125 24.44375 10.4334375 24.390625 11.3046875 C24.34679687 12.1503125 24.30296875 12.9959375 24.2578125 13.8671875 C23.89381378 20.17649872 23.89381378 20.17649872 22.765625 21.3046875 C11.39694917 22.10248931 -0.65963698 19.38616533 -11.234375 15.3046875 C-12.79388051 13.74518199 -12.51634198 12.21591619 -12.609375 10.0546875 C-12.65835938 9.28640625 -12.70734375 8.518125 -12.7578125 7.7265625 C-11.28618574 0.91754318 -6.1838123 -0.30139986 0 0 Z " fill="#676767" transform="translate(51.234375,47.6953125)"/>
<path d="M0 0 C14.85 0 29.7 0 45 0 C46.40253926 4.20761779 44.90602531 6.11735584 43 10 C39.56731832 13.43268168 34.61357124 13.09900498 29.9375 13.6875 C28.92494141 13.82994141 27.91238281 13.97238281 26.86914062 14.11914062 C18.40658644 15.21583527 11.14349194 14.82658626 2.9375 12.4375 C1.99777344 12.16808594 1.05804688 11.89867187 0.08984375 11.62109375 C-0.59980469 11.41613281 -1.28945312 11.21117187 -2 11 C-2.6875 9.4375 -2.6875 9.4375 -3 7 C-2.01 4.69 -1.02 2.38 0 0 Z " fill="#676767" transform="translate(76,6)"/>
<path d="M0 0 C4.48170849 0.49796761 8.93219433 1.10009203 13.375 1.875 C14.62410156 2.08769531 14.62410156 2.08769531 15.8984375 2.3046875 C18 3 18 3 20 6 C19.84698607 8.93902234 19.58769025 11.72062524 19.1875 14.625 C19.09146484 15.41390625 18.99542969 16.2028125 18.89648438 17.015625 C18.14959206 22.85040794 18.14959206 22.85040794 17 24 C13.19411856 24.25208722 9.37574544 24.18522344 5.5625 24.1875 C3.94891602 24.20586914 3.94891602 24.20586914 2.30273438 24.22460938 C1.27599609 24.22654297 0.24925781 24.22847656 -0.80859375 24.23046875 C-2.22869751 24.23663208 -2.22869751 24.23663208 -3.67749023 24.24291992 C-6 24 -6 24 -8 22 C-8.49828283 14.14374073 -5.10995354 5.87644657 0 0 Z " fill="#666666" transform="translate(71,21)"/>
<path d="M0 0 C0.74572266 0.18691406 1.49144531 0.37382813 2.25976562 0.56640625 C7.79721841 1.98471841 7.79721841 1.98471841 8.9375 3.125 C8.69577008 5.8323751 8.36899055 8.44616281 7.9375 11.125 C7.81375 11.91390625 7.69 12.7028125 7.5625 13.515625 C7.418125 14.29421875 7.27375 15.0728125 7.125 15.875 C6.92970703 16.95007813 6.92970703 16.95007813 6.73046875 18.046875 C4.84591536 22.98570456 0.24031032 25.36807943 -4.125 27.9375 C-5.68927734 28.87529297 -5.68927734 28.87529297 -7.28515625 29.83203125 C-10.0625 31.125 -10.0625 31.125 -13.0625 30.125 C-16.76575349 20.53119125 -13.40828503 8.36864697 -10.0625 -0.875 C-6.75083369 -2.53083315 -3.4305787 -0.90011709 0 0 Z " fill="#666666" transform="translate(47.0625,68.875)"/>
<path d="M0 0 C1.51400391 0.01740234 1.51400391 0.01740234 3.05859375 0.03515625 C4.07050781 0.04417969 5.08242187 0.05320312 6.125 0.0625 C7.29869141 0.07990234 7.29869141 0.07990234 8.49609375 0.09765625 C9.6461406 3.54779681 9.38050455 4.03306476 8.01953125 7.23828125 C7.68050781 8.05522461 7.34148437 8.87216797 6.9921875 9.71386719 C6.62222656 10.58301758 6.25226563 11.45216797 5.87109375 12.34765625 C2.35763179 20.83235869 -0.74367139 29.33921872 -3.50390625 38.09765625 C-7.46390625 38.09765625 -11.42390625 38.09765625 -15.50390625 38.09765625 C-16.74975125 33.11427626 -15.33101036 30.32660993 -13.44140625 25.78515625 C-13.12284668 24.99568604 -12.80428711 24.20621582 -12.47607422 23.39282227 C-11.81736238 21.76206098 -11.15423484 20.13307672 -10.48681641 18.50585938 C-9.55174266 16.21485901 -8.63840378 13.916683 -7.734375 11.61328125 C-3.21304401 0.12531373 -3.21304401 0.12531373 0 0 Z " fill="#696969" transform="translate(61.50390625,5.90234375)"/>
<path d="M0 0 C-1.61702128 19.61702128 -1.61702128 19.61702128 -4 22 C-6.02363992 21.93462544 -8.04507235 21.79640028 -10.0625 21.625 C-11.23296875 21.52574219 -12.4034375 21.42648438 -13.609375 21.32421875 C-17.42075972 20.95976606 -21.20705673 20.52060006 -25 20 C-26.25180279 15.78080897 -25.67252421 12.03911435 -25.0625 7.75 C-24.91264648 6.63238281 -24.91264648 6.63238281 -24.75976562 5.4921875 C-24.51319844 3.66054558 -24.25749609 1.83013749 -24 0 C-20.75052139 -0.19738568 -17.50041127 -0.3811754 -14.25 -0.5625 C-13.32960938 -0.61857422 -12.40921875 -0.67464844 -11.4609375 -0.73242188 C-10.57148437 -0.78076172 -9.68203125 -0.82910156 -8.765625 -0.87890625 C-7.94868164 -0.9260376 -7.13173828 -0.97316895 -6.29003906 -1.02172852 C-4.02117925 -1.00020095 -2.16679079 -0.64612135 0 0 Z " fill="#676767" transform="translate(105,50)"/>
<path d="M0 0 C5.31660845 0.4016993 8.26647458 5.12306618 11.51953125 8.87890625 C16.45109796 15.08413744 19.97150746 21.08407427 21 29 C13.22661946 29.62187044 6.33264031 27.4773778 -1 25 C-2 24 -2 24 -2.03759766 21.79101562 C-1.99683105 20.83904297 -1.95606445 19.88707031 -1.9140625 18.90625 C-1.84832031 17.36130859 -1.84832031 17.36130859 -1.78125 15.78515625 C-1.7296875 14.70105469 -1.678125 13.61695313 -1.625 12.5 C-1.58117187 11.41589844 -1.53734375 10.33179688 -1.4921875 9.21484375 C-1.12781578 1.12781578 -1.12781578 1.12781578 0 0 Z " fill="#666666" transform="translate(124,139)"/>
<path d="M0 0 C0.64390322 7.24391122 -1.29403859 14.51415451 -5.7890625 20.3046875 C-8.57316999 22.43949784 -10.14990435 22.50775126 -13.625 22.4375 C-14.58664063 22.43621094 -15.54828125 22.43492188 -16.5390625 22.43359375 C-17.35117188 22.29050781 -18.16328125 22.14742187 -19 22 C-21.43245031 18.35132453 -21.15170128 16.92154952 -20.8125 12.625 C-20.73644531 11.50351562 -20.66039063 10.38203125 -20.58203125 9.2265625 C-19.95395124 5.74472301 -19.26625637 3.71851367 -17 1 C-14.51171875 0.29296875 -14.51171875 0.29296875 -11.6875 0.1875 C-10.71554688 0.14109375 -9.74359375 0.0946875 -8.7421875 0.046875 C-2.32460733 -0.06282723 -2.32460733 -0.06282723 0 0 Z " fill="#676767" transform="translate(114,23)"/>
<path d="M0 0 C2.9555377 2.75170751 5.11563315 5.41970299 7 9 C7 9.66 7 10.32 7 11 C-0.64076218 11.0694906 -8.28149162 11.1228064 -15.92249775 11.15543652 C-19.47049936 11.17109693 -23.01828487 11.19234151 -26.56616211 11.22631836 C-30.64438967 11.26513007 -34.72239001 11.27970602 -38.80078125 11.29296875 C-40.07585037 11.30845261 -41.35091949 11.32393646 -42.66462708 11.33988953 C-43.84562485 11.34011612 -45.02662262 11.34034271 -46.2434082 11.34057617 C-47.80560844 11.35056892 -47.80560844 11.35056892 -49.39936829 11.36076355 C-52 11 -52 11 -53.84806824 9.64668274 C-55.42872936 7.38713276 -55.21817315 5.69080213 -55 3 C-54.34 2.67 -53.68 2.34 -53 2 C-53 2.99 -53 3.98 -53 5 C-51.68 5.33 -50.36 5.66 -49 6 C-49.33 7.32 -49.66 8.64 -50 10 C-32.51 10 -15.02 10 3 10 C2.01 7.69 1.02 5.38 0 3 C0 2.01 0 1.02 0 0 Z " fill="#5C5C5C" transform="translate(104,175)"/>
<path d="M0 0 C0.99 0 1.98 0 3 0 C4.20429601 2.55575038 5.38840747 5.11791464 6.5625 7.6875 C6.90474609 8.40873047 7.24699219 9.12996094 7.59960938 9.87304688 C9.43575214 13.93481724 10.59592878 16.57849239 9 21 C7.02 21.33 5.04 21.66 3 22 C3 21.34 3 20.68 3 20 C4.65 19.67 6.3 19.34 8 19 C6.23672077 14.06281814 4.29814463 9.40691978 1.8671875 4.76171875 C1 3 1 3 0 0 Z " fill="#555555" transform="translate(64,144)"/>
<path d="M0 0 C1.2065625 0.0309375 1.2065625 0.0309375 2.4375 0.0625 C2.4375 0.7225 2.4375 1.3825 2.4375 2.0625 C5.0775 2.0625 7.7175 2.0625 10.4375 2.0625 C10.4375 2.3925 10.4375 2.7225 10.4375 3.0625 C7.1375 3.3925 3.8375 3.7225 0.4375 4.0625 C0.7675 5.3825 1.0975 6.7025 1.4375 8.0625 C0.1175 7.7325 -1.2025 7.4025 -2.5625 7.0625 C-2.94383299 5.0710944 -3.27575582 3.06970923 -3.5625 1.0625 C-2.5625 0.0625 -2.5625 0.0625 0 0 Z " fill="#6D6C6C" transform="translate(76.5625,143.9375)"/>
<path d="M0 0 C1.485 0.99 1.485 0.99 3 2 C8.05312207 2.99080825 12.87793956 3.08986071 18 3 C18 3.33 18 3.66 18 4 C14.3905118 4.82183247 11.01305639 5.16225746 7.3125 5.1875 C6.35988281 5.20167969 5.40726562 5.21585938 4.42578125 5.23046875 C2 5 2 5 0 3 C0 2.01 0 1.02 0 0 Z " fill="#575657" transform="translate(93,133)"/>
<path d="M0 0 C0.66 0.33 1.32 0.66 2 1 C1.21340905 3.27270745 0.4209739 5.54308004 -0.375 7.8125 C-0.59671875 8.45509766 -0.8184375 9.09769531 -1.046875 9.75976562 C-2.1239885 12.81686717 -3.19061861 15.28592791 -5 18 C-5.28571429 10.57142857 -5.28571429 10.57142857 -3 7 C-3.66 6.67 -4.32 6.34 -5 6 C-4.360625 5.38125 -3.72125 4.7625 -3.0625 4.125 C-0.96116416 2.17402388 -0.96116416 2.17402388 0 0 Z " fill="#5A5A5A" transform="translate(63,23)"/>
<path d="M0 0 C10.55808656 0.96355353 10.55808656 0.96355353 15 2 C13 4 13 4 9.625 4.1875 C6.85272822 4.04410663 4.61594556 3.83710258 2 3 C2 2.34 2 1.68 2 1 C1.34 0.67 0.68 0.34 0 0 Z " fill="#747373" transform="translate(52,64)"/>
<path d="M0 0 C1.32 0.33 2.64 0.66 4 1 C4.33 1.99 4.66 2.98 5 4 C4.34 4.66 3.68 5.32 3 6 C2.83318891 9.08347826 2.83318891 9.08347826 3 12 C2.01 12.495 2.01 12.495 1 13 C0.67 8.71 0.34 4.42 0 0 Z " fill="#5B5B5B" transform="translate(91,119)"/>
<path d="M0 0 C0.66 0.99 1.32 1.98 2 3 C1.690625 3.53625 1.38125 4.0725 1.0625 4.625 C-0.17827439 7.3984957 -0.5909675 10.00042837 -1 13 C-1.66 12.67 -2.32 12.34 -3 12 C-3.36923077 4.61538462 -3.36923077 4.61538462 -1.5 1.5 C-1.005 1.005 -0.51 0.51 0 0 Z " fill="#6C6C6C" transform="translate(53,74)"/>
<path d="M0 0 C2.9555377 2.75170751 5.11563315 5.41970299 7 9 C7 9.66 7 10.32 7 11 C5.1875 10.9375 5.1875 10.9375 3 10 C1.18721244 6.5039097 0 3.96018245 0 0 Z " fill="#5F5F5F" transform="translate(104,175)"/>
<path d="M0 0 C3.45195767 1.4258086 5.1014256 3.09746334 7.25 6.125 C8.03117187 7.21167969 8.03117187 7.21167969 8.828125 8.3203125 C9.40820312 9.15175781 9.40820312 9.15175781 10 10 C9.67 10.66 9.34 11.32 9 12 C4.99027798 8.32442148 2.54664585 4.81033104 0 0 Z " fill="#565656" transform="translate(93,162)"/>
<path d="M0 0 C1.98 0.495 1.98 0.495 4 1 C3.67 1.99 3.34 2.98 3 4 C4.37249963 6.67676547 4.37249963 6.67676547 6 9 C5.01 9 4.02 9 3 9 C0.75 6.1875 0.75 6.1875 -1 3 C-0.67 2.01 -0.34 1.02 0 0 Z " fill="#605E5F" transform="translate(104,163)"/>
<path d="M0 0 C-3.42094242 2.28062828 -4.68187222 2.21925007 -8.6875 2.125 C-10.17830078 2.09792969 -10.17830078 2.09792969 -11.69921875 2.0703125 C-12.45847656 2.04710937 -13.21773438 2.02390625 -14 2 C-13.67 1.34 -13.34 0.68 -13 0 C-8.33710678 -0.85486376 -4.62372246 -1.30042194 0 0 Z " fill="#5D5E5E" transform="translate(85,139)"/>
<path d="M0 0 C2.475 0.495 2.475 0.495 5 1 C4.01 4.3 3.02 7.6 2 11 C1.16467504 7.65870018 1 5.35537075 1 2 C0.67 1.34 0.34 0.68 0 0 Z " fill="#5D5D5D" transform="translate(66,6)"/>
<path d="M0 0 C3.3 0.33 6.6 0.66 10 1 C10 1.66 10 2.32 10 3 C4.06 3.495 4.06 3.495 -2 4 C-1.34 2.68 -0.68 1.36 0 0 Z " fill="#6E6E6E" transform="translate(82,66)"/>
<path d="M0 0 C0.99 0.33 1.98 0.66 3 1 C3 1.66 3 2.32 3 3 C2.34 3 1.68 3 1 3 C1 3.66 1 4.32 1 5 C-0.32 4.67 -1.64 4.34 -3 4 C-2.67 3.01 -2.34 2.02 -2 1 C-1.34 0.67 -0.68 0.34 0 0 Z M3 0 C5 1 5 1 5 1 Z " fill="#6D6D6D" transform="translate(50,129)"/>
<path d="M0 0 C1.32 0.66 2.64 1.32 4 2 C1.525 3.485 1.525 3.485 -1 5 C-0.67 3.35 -0.34 1.7 0 0 Z M-2 5 C-1.34 6.32 -0.68 7.64 0 9 C-0.99 9.495 -0.99 9.495 -2 10 C-2 8.35 -2 6.7 -2 5 Z " fill="#6D6D6D" transform="translate(67,33)"/>
<path d="M0 0 C0.66 0.66 1.32 1.32 2 2 C1.34 4.31 0.68 6.62 0 9 C-0.66 8.67 -1.32 8.34 -2 8 C-1.125 2.25 -1.125 2.25 0 0 Z " fill="#707070" transform="translate(66,12)"/>
<path d="M0 0 C0.66 0.66 1.32 1.32 2 2 C4.65537372 2.56520003 7.29144713 2.73788198 10 3 C10 3.33 10 3.66 10 4 C6.7 4 3.4 4 0 4 C0 2.68 0 1.36 0 0 Z " fill="#5C5C5C" transform="translate(117,182)"/>
</svg>
