<?xml version="1.0" encoding="UTF-8"?>
<svg xmlns="http://www.w3.org/2000/svg" xmlns:xlink="http://www.w3.org/1999/xlink" width="200px" height="px" viewBox="0 0 200 200" version="1.1">
<g id="surface1">
<path style=" stroke:none;fill-rule:nonzero;fill:rgb(55.686277%,55.686277%,55.686277%);fill-opacity:1;" d="M 77.496094 11.742188 C 78.4375 12.613281 78.4375 12.613281 79.0625 13.308594 C 78.679688 13.589844 78.300781 13.871094 77.910156 14.164062 C 72.398438 18.941406 69.339844 26.972656 68.492188 34.050781 C 67.976562 42.203125 69.46875 50.242188 74.164062 57.050781 C 74.699219 57.84375 75.132812 58.625 75.539062 59.492188 C 75.167969 59.597656 74.800781 59.699219 74.417969 59.808594 C 67.265625 61.949219 62.710938 65.964844 59.085938 72.484375 C 57.882812 74.738281 56.894531 77.070312 55.96875 79.453125 C 55.867188 79.707031 55.765625 79.964844 55.660156 80.230469 C 52.089844 89.457031 51.058594 100.171875 50.488281 109.980469 C 50.449219 110.566406 50.410156 111.15625 50.371094 111.742188 C 49.949219 118.710938 49.875 125.703125 49.707031 132.679688 C 52.289062 132.679688 54.871094 132.679688 57.535156 132.679688 C 57.523438 132.066406 57.515625 131.453125 57.507812 130.820312 C 57.015625 81.574219 57.015625 81.574219 72.308594 65.070312 C 75.273438 62.101562 78.890625 60.078125 82.972656 59.101562 C 82.804688 58.847656 82.632812 58.597656 82.457031 58.335938 C 76.855469 49.835938 74.875 40.460938 76.765625 30.382812 C 78.457031 22.640625 82.550781 15.511719 89.210938 10.984375 C 94.195312 8.234375 99.785156 7.714844 105.257812 9.222656 C 111.660156 11.535156 116.285156 16.335938 119.375 22.308594 C 120.148438 23.976562 120.777344 25.644531 121.332031 27.398438 C 121.457031 27.78125 121.582031 28.167969 121.710938 28.5625 C 124.171875 37.738281 122.769531 47.492188 118.207031 55.6875 C 117.59375 56.722656 116.925781 57.714844 116.242188 58.707031 C 116.554688 58.789062 116.867188 58.871094 117.191406 58.953125 C 124.414062 60.980469 129.507812 65.117188 133.203125 71.574219 C 133.417969 71.980469 133.632812 72.382812 133.855469 72.796875 C 134.035156 73.128906 134.214844 73.460938 134.398438 73.800781 C 140.375 85.867188 141.382812 101.058594 141.328125 114.257812 C 141.328125 114.792969 141.328125 115.332031 141.328125 115.867188 C 141.328125 117.257812 141.324219 118.648438 141.320312 120.039062 C 141.3125 121.46875 141.3125 122.894531 141.3125 124.324219 C 141.304688 127.109375 141.300781 129.894531 141.292969 132.679688 C 144.132812 132.679688 146.972656 132.679688 149.902344 132.679688 C 149.527344 114.050781 149.527344 114.050781 147.945312 95.5 C 147.882812 94.957031 147.882812 94.957031 147.816406 94.402344 C 146.542969 83.957031 143.417969 71.304688 135.210938 64.101562 C 131.730469 61.425781 127.980469 59.886719 123.679688 59.101562 C 123.847656 58.851562 124.019531 58.605469 124.195312 58.351562 C 129.925781 49.746094 131.65625 40.261719 129.941406 30.136719 C 128.605469 23.96875 125.375 17.089844 120.15625 13.308594 C 122.449219 10.523438 126.363281 8.625 129.941406 8.21875 C 135.992188 7.78125 141.167969 9.238281 145.824219 13.183594 C 150.128906 17.023438 152.777344 21.597656 154.597656 27.007812 C 154.726562 27.386719 154.855469 27.769531 154.988281 28.160156 C 156.578125 33.609375 156.433594 39.480469 155.382812 45.011719 C 155.28125 45.597656 155.28125 45.597656 155.175781 46.195312 C 154.269531 50.578125 152.042969 54.660156 149.511719 58.316406 C 149.980469 58.453125 150.445312 58.589844 150.929688 58.734375 C 158.15625 61.179688 163.566406 65.609375 167.125 72.40625 C 170.136719 78.535156 171.796875 85.25 172.945312 91.953125 C 173.019531 92.382812 173.09375 92.816406 173.171875 93.261719 C 174.589844 102.308594 174.671875 111.4375 174.613281 120.570312 C 174.605469 121.988281 174.601562 123.40625 174.597656 124.824219 C 174.589844 127.574219 174.574219 130.324219 174.558594 133.074219 C 169.394531 133.074219 164.226562 133.074219 158.902344 133.074219 C 158.902344 134.492188 158.902344 135.914062 158.902344 137.378906 C 158.871094 138.191406 158.828125 139.003906 158.773438 139.816406 C 158.742188 140.246094 158.714844 140.679688 158.683594 141.125 C 158.652344 141.582031 158.621094 142.039062 158.585938 142.511719 C 158.554688 143.003906 158.519531 143.5 158.484375 144.007812 C 158.394531 145.351562 158.300781 146.695312 158.207031 148.039062 C 158.105469 149.453125 158.011719 150.863281 157.914062 152.277344 C 157.75 154.648438 157.585938 157.023438 157.421875 159.394531 C 157.230469 162.125 157.042969 164.859375 156.855469 167.59375 C 156.652344 170.515625 156.449219 173.4375 156.25 176.363281 C 156.191406 177.199219 156.132812 178.035156 156.074219 178.871094 C 155.96875 180.4375 155.859375 182.003906 155.75 183.566406 C 155.71875 184.027344 155.6875 184.484375 155.652344 184.957031 C 155.609375 185.601562 155.609375 185.601562 155.5625 186.261719 C 155.535156 186.628906 155.511719 187 155.484375 187.378906 C 155.34375 189.109375 155.164062 190.835938 154.988281 192.5625 C 146.722656 192.5625 138.457031 192.5625 129.941406 192.5625 C 129.941406 187.71875 129.941406 187.71875 130.074219 185.660156 C 130.105469 185.195312 130.132812 184.726562 130.164062 184.246094 C 130.214844 183.5 130.214844 183.5 130.265625 182.738281 C 130.300781 182.199219 130.335938 181.660156 130.367188 181.117188 C 130.460938 179.664062 130.558594 178.210938 130.652344 176.757812 C 130.753906 175.234375 130.851562 173.707031 130.949219 172.183594 C 131.136719 169.304688 131.320312 166.425781 131.511719 163.542969 C 131.722656 160.261719 131.9375 156.980469 132.148438 153.699219 C 132.585938 146.953125 133.023438 140.207031 133.464844 133.464844 C 130.878906 133.335938 128.296875 133.207031 125.636719 133.074219 C 125.585938 134.328125 125.535156 135.582031 125.484375 136.871094 C 125.253906 142.351562 124.898438 147.816406 124.535156 153.289062 C 124.464844 154.339844 124.398438 155.390625 124.328125 156.4375 C 124.1875 158.621094 124.042969 160.800781 123.898438 162.980469 C 123.734375 165.496094 123.570312 168.007812 123.40625 170.519531 C 123.246094 172.957031 123.085938 175.398438 122.925781 177.835938 C 122.855469 178.867188 122.789062 179.894531 122.722656 180.925781 C 122.628906 182.359375 122.535156 183.792969 122.4375 185.226562 C 122.398438 185.859375 122.398438 185.859375 122.355469 186.503906 C 122.316406 187.09375 122.316406 187.09375 122.277344 187.695312 C 122.253906 188.03125 122.230469 188.371094 122.210938 188.71875 C 122.085938 190.132812 121.898438 191.542969 121.722656 192.953125 C 107.515625 192.953125 93.308594 192.953125 78.667969 192.953125 C 77.648438 179.773438 77.648438 179.773438 77.304688 175.273438 C 77.28125 174.976562 77.257812 174.675781 77.234375 174.371094 C 76.675781 167.039062 76.121094 159.707031 75.574219 152.375 C 75.46875 150.957031 75.363281 149.539062 75.257812 148.117188 C 75.128906 146.433594 75.003906 144.75 74.878906 143.066406 C 74.832031 142.441406 74.785156 141.820312 74.738281 141.199219 C 74.675781 140.34375 74.613281 139.484375 74.546875 138.628906 C 74.496094 137.910156 74.496094 137.910156 74.441406 137.175781 C 74.363281 135.808594 74.363281 134.441406 74.363281 133.074219 C 71.78125 133.203125 69.199219 133.332031 66.535156 133.464844 C 66.585938 134.125 66.632812 134.78125 66.683594 135.460938 C 67.148438 141.691406 67.609375 147.921875 68.066406 154.152344 C 68.304688 157.355469 68.539062 160.558594 68.777344 163.761719 C 68.984375 166.554688 69.191406 169.347656 69.398438 172.144531 C 69.503906 173.621094 69.613281 175.097656 69.726562 176.574219 C 69.828125 177.96875 69.933594 179.363281 70.035156 180.757812 C 70.089844 181.507812 70.144531 182.253906 70.203125 183 C 70.433594 186.214844 70.449219 189.324219 70.449219 192.5625 C 62.183594 192.5625 53.917969 192.5625 45.402344 192.5625 C 44.839844 184.980469 44.277344 177.398438 43.71875 169.8125 C 43.457031 166.292969 43.195312 162.773438 42.933594 159.25 C 42.707031 156.183594 42.480469 153.113281 42.253906 150.046875 C 42.132812 148.421875 42.015625 146.796875 41.894531 145.171875 C 41.78125 143.640625 41.667969 142.113281 41.554688 140.585938 C 41.511719 140.023438 41.472656 139.460938 41.429688 138.898438 C 41.371094 138.132812 41.316406 137.367188 41.257812 136.601562 C 41.226562 136.171875 41.195312 135.742188 41.164062 135.300781 C 41.117188 134.558594 41.097656 133.816406 41.097656 133.074219 C 35.542969 133.074219 29.988281 133.074219 24.265625 133.074219 C 23.734375 81.941406 23.734375 81.941406 37.964844 66.144531 C 38.203125 65.867188 38.445312 65.59375 38.691406 65.308594 C 41.691406 62.0625 45.59375 60.175781 49.707031 58.707031 C 49.5625 58.511719 49.421875 58.316406 49.273438 58.117188 C 43.734375 50.199219 41.875 40.535156 43.472656 31.050781 C 45 23.136719 48.570312 16.246094 55.1875 11.351562 C 62.644531 7.105469 70.195312 7.28125 77.496094 11.742188 Z M 77.496094 11.742188 "/>
</g>
</svg>
