<?xml version="1.0" encoding="UTF-8"?>
<svg version="1.1" xmlns="http://www.w3.org/2000/svg" width="511" height="511">
<path d="M0 0 C2.40625 2.2265625 2.40625 2.2265625 4 4 C3.030625 4.721875 2.06125 5.44375 1.0625 6.1875 C-13.02324169 18.3951428 -20.83412455 38.91304014 -23 57 C-24.32475015 77.82517464 -20.50866898 98.37030896 -8.515625 115.765625 C-7.14241385 117.79004968 -6.03503261 119.78787149 -5 122 C-5.94359375 122.268125 -6.8871875 122.53625 -7.859375 122.8125 C-26.13240838 128.27599106 -37.77298965 138.54262514 -47.03857422 155.19482422 C-50.10887973 160.95963858 -52.6387442 166.91527978 -55 173 C-55.26022949 173.65516602 -55.52045898 174.31033203 -55.78857422 174.98535156 C-64.90722369 198.56547367 -67.54604853 225.93925436 -69 251 C-69.09895167 252.50130252 -69.19790983 254.00260462 -69.296875 255.50390625 C-70.38018527 273.30553672 -70.569894 291.1734788 -71 309 C-64.4 309 -57.8 309 -51 309 C-51.02320313 307.43121094 -51.04640625 305.86242187 -51.0703125 304.24609375 C-52.3202128 178.42597716 -52.3202128 178.42597716 -13.25 136.25390625 C-5.67460263 128.66535715 3.56630221 123.49501469 14 121 C13.56429687 120.35675781 13.12859375 119.71351563 12.6796875 119.05078125 C-1.638254 97.32593927 -6.69727123 73.37908292 -1.86621094 47.62329102 C2.45391232 27.8499237 12.91477733 9.63512019 29.9375 -1.9375 C42.66858101 -8.95624486 56.94744703 -10.28476457 70.9375 -6.4375 C87.29652976 -0.52608147 99.10791146 11.73716818 107 27 C108.97675227 31.2580173 110.58517897 35.52509258 112 40 C112.3196875 40.98355469 112.639375 41.96710938 112.96875 42.98046875 C119.25731679 66.41702554 115.67850512 91.34231893 104.015625 112.27880859 C102.45095803 114.93046776 100.7452437 117.46394275 99 120 C99.79921875 120.20753906 100.5984375 120.41507813 101.421875 120.62890625 C119.87972504 125.80663648 132.89351338 136.37218937 142.33203125 152.875 C142.88246094 153.90625 143.43289063 154.9375 144 156 C144.45761719 156.845625 144.91523438 157.69125 145.38671875 158.5625 C160.65584098 189.38974992 163.23321394 228.20848762 163.09765625 261.9296875 C163.09578428 263.29973295 163.09436407 264.66977908 163.09336853 266.03982544 C163.08960458 269.59395291 163.07982898 273.14803755 163.06866455 276.70214844 C163.05831643 280.34960349 163.05384262 283.99706566 163.04882812 287.64453125 C163.03819923 294.76303972 163.02065448 301.88151251 163 309 C170.26 309 177.52 309 185 309 C184.03875207 261.40180909 184.03875207 261.40180909 180 214 C179.83612793 212.61361328 179.83612793 212.61361328 179.66894531 211.19921875 C176.41749402 184.50730479 168.43542654 152.18789769 147.46875 133.77734375 C138.57506362 126.94096126 128.98566326 123.01403826 118 121 C118.43570313 120.36835938 118.87140625 119.73671875 119.3203125 119.0859375 C133.95540936 97.10161451 138.37749833 72.87331908 134 47 C130.58847569 31.2387577 122.33698883 13.6693169 109 4 C114.85613673 -3.11102317 124.85373007 -7.96550268 134 -9 C149.45835815 -10.12313038 162.68691849 -6.39897874 174.58349609 3.68847656 C185.58282612 13.49275743 192.34414664 25.18214583 197 39 C197.32871094 39.97324219 197.65742188 40.94648437 197.99609375 41.94921875 C202.05521008 55.87451258 201.68845719 70.87750198 199 85 C198.74089844 86.50046875 198.74089844 86.50046875 198.4765625 88.03125 C196.15867071 99.22937659 190.46811861 109.65233865 184 119 C185.19625 119.350625 186.3925 119.70125 187.625 120.0625 C206.08614479 126.31312383 219.91039863 137.63225037 229 155 C236.70090057 170.66095698 240.94242363 187.81680788 243.875 204.9375 C244.06602295 206.0404541 244.2570459 207.1434082 244.45385742 208.27978516 C248.0762616 231.39417369 248.2875271 254.72488748 248.1373291 278.05834961 C248.11635663 281.68015018 248.10751708 285.30198309 248.09765625 288.92382812 C248.07769163 295.94937698 248.03849626 302.97443257 248 310 C234.8 310 221.6 310 208 310 C208 313.63 208 317.26 208 321 C207.91510938 323.07752441 207.80820341 325.15445045 207.66505432 327.22877502 C207.59077209 328.33169891 207.51648987 329.4346228 207.43995667 330.57096863 C207.35737106 331.74065689 207.27478546 332.91034515 207.18969727 334.11547852 C207.10352142 335.37873962 207.01734558 336.64200073 206.92855835 337.94354248 C206.69431402 341.37551335 206.45543143 344.80714651 206.21556973 348.23872876 C205.96392308 351.84932091 205.71635295 355.46019284 205.46824646 359.07102966 C205.05127905 365.13078296 204.63145788 371.19033301 204.2097168 377.24975586 C203.72373228 384.23245146 203.24142591 391.21539312 202.76128155 398.19849259 C202.2476915 405.66778307 201.73172259 413.13690774 201.21489596 420.60597491 C201.06713393 422.7433802 200.91977445 424.88081294 200.77249336 427.01825142 C200.49679458 431.0169397 200.21839452 435.0154356 199.93969727 439.01391602 C199.85913589 440.18562851 199.77857452 441.357341 199.6955719 442.56455994 C199.57991882 444.21471603 199.57991882 444.21471603 199.46192932 445.89820862 C199.39648202 446.84074273 199.33103472 447.78327684 199.26360416 448.7543726 C198.90456282 453.17507069 198.44132432 457.58675684 198 462 C176.88 462 155.76 462 134 462 C134 449.625 134 449.625 134.3416748 444.36225891 C134.41740219 443.16915604 134.49312958 441.97605316 134.57115173 440.74679565 C134.6973867 438.84246262 134.6973867 438.84246262 134.82617188 436.8996582 C134.91514369 435.51876237 135.0038035 434.1378464 135.09217834 432.75691223 C135.33075454 429.04259674 135.57364369 425.3285749 135.81736183 421.61459374 C136.07215289 417.72037446 136.32290205 413.82589488 136.57409668 409.93144226 C137.04938151 402.57218503 137.52825327 395.21316586 138.00844336 387.85422724 C138.55537229 379.46979057 139.09825756 371.08509357 139.6408186 362.70037329 C140.7560755 345.46662372 141.87650375 328.23321433 143 311 C136.4 310.67 129.8 310.34 123 310 C122.87238281 313.20404541 122.74476563 316.40809082 122.61328125 319.70922852 C122.02157596 333.70442721 121.11092779 347.67580943 120.1875 361.65234375 C120.0118108 364.33556655 119.8362746 367.01879902 119.66088867 369.70204163 C119.29623421 375.27470643 118.9295113 380.84723212 118.56152344 386.41967773 C118.13762756 392.83919436 117.71730297 399.25893767 117.29877377 405.67880625 C116.89248088 411.90946822 116.48351232 418.13995194 116.07339478 424.37036324 C115.90047717 427.00128245 115.72824808 429.63224701 115.55673218 432.26325798 C115.31746394 435.92818387 115.07515 439.59289615 114.83203125 443.25756836 C114.72757187 444.87140915 114.72757187 444.87140915 114.6210022 446.51785278 C114.52013809 448.02428093 114.52013809 448.02428093 114.41723633 449.56114197 C114.36046219 450.42356475 114.30368805 451.28598753 114.24519348 452.17454433 C113.93116405 455.79322222 113.45052865 459.39577081 113 463 C76.7 463 40.4 463 3 463 C0.39193343 429.32525807 0.39193343 429.32525807 -0.48828125 417.82421875 C-0.54659937 417.06224371 -0.60491749 416.30026867 -0.66500282 415.51520348 C-2.09774171 396.78360269 -3.50990066 378.05046539 -4.90643311 359.31613159 C-5.17664227 355.69195972 -5.44806205 352.06788166 -5.72052002 348.44387817 C-6.0439814 344.14017687 -6.36485032 339.83628989 -6.68374062 335.53224754 C-6.80196121 333.94202343 -6.92104767 332.35186342 -7.04106712 330.76177406 C-7.20599899 328.57426569 -7.36767805 326.38653958 -7.52856445 324.19873047 C-7.66582695 322.35769241 -7.66582695 322.35769241 -7.80586243 320.47946167 C-8.00049468 316.99113398 -8 313.49375326 -8 310 C-14.6 310.33 -21.2 310.66 -28 311 C-27.87471924 312.68525787 -27.74943848 314.37051575 -27.62036133 316.10684204 C-26.43769752 332.02495898 -25.26040413 347.94346371 -24.08848572 363.86237526 C-23.48592347 372.04550284 -22.8814717 380.22848241 -22.27246094 388.41113281 C-21.74122355 395.54888892 -21.21364415 402.68690471 -20.69032955 409.82524621 C-20.41349946 413.59967769 -20.13492514 417.37396092 -19.85195923 421.14793777 C-19.5848304 424.71147071 -19.32265143 428.27533571 -19.06401443 431.83949471 C-18.92430717 433.7478901 -18.77957921 435.65591595 -18.63461304 437.56391907 C-18.04515168 445.77436438 -18 453.72084741 -18 462 C-39.12 462 -60.24 462 -82 462 C-83.43538658 442.62471054 -84.86986327 423.24935442 -86.30266571 403.87387371 C-86.9679433 394.87786686 -87.63363437 385.88189095 -88.30029297 376.88598633 C-88.88123142 369.04677695 -89.46140006 361.20751106 -90.04063749 353.3681758 C-90.34747279 349.21586917 -90.65469815 345.06359221 -90.96284485 340.91138268 C-91.25270832 337.00537099 -91.54154454 333.09928472 -91.82958412 329.19313812 C-91.93562591 327.75758105 -92.0420469 326.32205192 -92.14887047 324.88655281 C-92.29439457 322.93023704 -92.43843648 320.97381118 -92.58239746 319.01737976 C-92.66351524 317.9213679 -92.74463303 316.82535604 -92.82820892 315.69613171 C-92.94900028 313.80040219 -93 311.89957389 -93 310 C-107.19 310 -121.38 310 -136 310 C-137.35376921 179.36127133 -137.35376921 179.36127133 -101 139 C-100.38640625 138.29359375 -99.7728125 137.5871875 -99.140625 136.859375 C-91.48316562 128.56906774 -81.51150271 123.74414145 -71 120 C-71.36351563 119.50113281 -71.72703125 119.00226563 -72.1015625 118.48828125 C-86.26340727 98.26226192 -91.00624703 73.56321633 -86.92382812 49.33666992 C-83.02715682 29.11192863 -73.89821566 11.51224927 -57 -1 C-37.94510085 -11.84351994 -18.64963451 -11.39165819 0 0 Z " fill="#8E8E8E" transform="translate(198,30)"/>
</svg>
