<?xml version="1.0" encoding="UTF-8"?>
<svg xmlns="http://www.w3.org/2000/svg" xmlns:xlink="http://www.w3.org/1999/xlink" width="200px" height="px" viewBox="0 0 200 200" version="1.1">
<g id="surface1">
<path style=" stroke:none;fill-rule:nonzero;fill:rgb(55.686277%,55.686277%,55.686277%);fill-opacity:1;" d="M 146.40625 15.953125 C 146.699219 15.949219 146.992188 15.945312 147.292969 15.941406 C 148.238281 15.933594 149.179688 15.929688 150.121094 15.925781 C 150.445312 15.921875 150.765625 15.921875 151.09375 15.921875 C 156.445312 15.910156 161.507812 16.402344 166.730469 17.613281 C 167.382812 17.746094 168.035156 17.875 168.6875 18.003906 C 169.207031 19.945312 169.113281 21.882812 169.082031 23.875 C 168.226562 24.300781 167.617188 24.378906 166.667969 24.484375 C 166.335938 24.523438 166 24.558594 165.652344 24.597656 C 165.289062 24.636719 164.925781 24.679688 164.554688 24.71875 C 163.789062 24.804688 163.027344 24.890625 162.265625 24.976562 C 161.058594 25.113281 159.851562 25.246094 158.644531 25.378906 C 157.484375 25.507812 156.320312 25.640625 155.160156 25.769531 C 154.796875 25.808594 154.433594 25.851562 154.058594 25.890625 C 153.554688 25.945312 153.554688 25.945312 153.042969 26.003906 C 152.75 26.039062 152.453125 26.070312 152.148438 26.105469 C 151.457031 26.15625 151.457031 26.15625 151.078125 26.613281 C 151.394531 26.753906 151.714844 26.890625 152.042969 27.03125 C 157.996094 29.605469 163.945312 32.179688 169.863281 34.832031 C 169.863281 36.382812 169.863281 37.933594 169.863281 39.53125 C 169.355469 39.625 168.847656 39.714844 168.324219 39.8125 C 166.449219 40.15625 164.570312 40.5 162.695312 40.847656 C 161.878906 40.996094 161.066406 41.144531 160.253906 41.292969 C 159.085938 41.507812 157.917969 41.722656 156.753906 41.9375 C 156.386719 42.003906 156.019531 42.070312 155.644531 42.140625 C 155.308594 42.203125 154.96875 42.265625 154.621094 42.328125 C 154.324219 42.382812 154.027344 42.4375 153.71875 42.496094 C 153.027344 42.601562 153.027344 42.601562 152.640625 43.054688 C 152.878906 43.179688 153.117188 43.308594 153.359375 43.4375 C 159.296875 46.628906 165.183594 49.894531 171.039062 53.230469 C 171.039062 54.777344 171.039062 56.328125 171.039062 57.925781 C 168.914062 58.261719 166.789062 58.597656 164.667969 58.929688 C 163.945312 59.042969 163.222656 59.15625 162.5 59.269531 C 161.460938 59.4375 160.421875 59.597656 159.378906 59.761719 C 159.058594 59.8125 158.738281 59.863281 158.410156 59.914062 C 156.59375 60.195312 154.871094 60.324219 153.035156 60.273438 C 153.910156 61.214844 154.816406 61.886719 155.902344 62.570312 C 156.414062 62.890625 156.414062 62.890625 156.9375 63.222656 C 157.304688 63.453125 157.667969 63.683594 158.046875 63.917969 C 158.824219 64.410156 159.597656 64.898438 160.375 65.386719 C 161.1875 65.902344 162.003906 66.414062 162.816406 66.925781 C 164.417969 67.9375 166.015625 68.949219 167.613281 69.960938 C 167.984375 70.195312 168.351562 70.425781 168.734375 70.667969 C 169.078125 70.882812 169.417969 71.101562 169.769531 71.324219 C 170.222656 71.609375 170.222656 71.609375 170.6875 71.902344 C 171.429688 72.40625 171.429688 72.40625 172.210938 73.191406 C 172.210938 74.480469 172.210938 75.773438 172.210938 77.105469 C 167.046875 77.234375 161.878906 77.363281 156.554688 77.496094 C 157.71875 78.65625 158.878906 79.820312 160.078125 81.019531 C 160.492188 81.507812 160.90625 82 161.332031 82.503906 C 162.558594 83.945312 163.9375 85.140625 165.371094 86.367188 C 173.851562 93.769531 173.851562 93.769531 174.402344 99.300781 C 174.445312 101.152344 174.414062 102.972656 174.265625 104.816406 C 174.121094 106.667969 174.144531 108.515625 174.167969 110.371094 C 173.144531 109.148438 172.257812 107.898438 171.433594 106.53125 C 166.671875 98.738281 159.625 93.347656 150.707031 91.054688 C 149.011719 90.65625 147.3125 90.324219 145.597656 90.019531 C 145.238281 89.953125 144.878906 89.882812 144.507812 89.8125 C 125.355469 87.003906 104.851562 93.433594 86.398438 97.710938 C 78.632812 99.511719 70.886719 101.28125 63.015625 102.542969 C 62.625 102.609375 62.238281 102.675781 61.835938 102.746094 C 56.140625 103.707031 50.453125 103.84375 44.691406 103.890625 C 44.164062 103.898438 44.164062 103.898438 43.621094 103.902344 C 33.253906 104.023438 21.414062 101.855469 13.699219 94.324219 C 13.699219 94.195312 13.699219 94.066406 13.699219 93.933594 C 14.007812 93.914062 14.3125 93.898438 14.628906 93.878906 C 16.046875 93.796875 17.464844 93.707031 18.882812 93.617188 C 19.367188 93.589844 19.851562 93.558594 20.347656 93.53125 C 24.648438 93.25 28.640625 92.566406 32.484375 90.558594 C 32.746094 90.425781 33.007812 90.292969 33.277344 90.152344 C 35.839844 88.804688 38.058594 87.125 40.3125 85.324219 C 40.699219 85.066406 41.089844 84.804688 41.488281 84.539062 C 41.253906 84.414062 41.023438 84.285156 40.785156 84.152344 C 14.894531 69.851562 14.894531 69.851562 9.003906 58.707031 C 8.761719 58.296875 8.519531 57.886719 8.269531 57.460938 C 7.699219 56.035156 7.566406 54.757812 7.4375 53.230469 C 7.625 53.371094 7.816406 53.515625 8.011719 53.664062 C 14.566406 58.59375 21.085938 63.179688 28.960938 65.753906 C 29.398438 65.90625 29.835938 66.058594 30.285156 66.21875 C 41.191406 69.546875 52.210938 66.824219 62.007812 61.726562 C 68.242188 58.40625 73.828125 54.28125 79.398438 49.960938 C 80.5 49.109375 81.605469 48.269531 82.710938 47.425781 C 84.980469 45.695312 87.238281 43.957031 89.484375 42.199219 C 105.855469 29.390625 124.75 16.1875 146.40625 15.953125 Z M 146.40625 15.953125 "/>
<path style=" stroke:none;fill-rule:nonzero;fill:rgb(55.686277%,55.686277%,55.686277%);fill-opacity:1;" d="M 177.300781 27.789062 C 179.882812 27.789062 182.464844 27.789062 185.128906 27.789062 C 186.125 48.589844 187.121094 69.390625 188.117188 90.195312 C 188.238281 92.648438 188.355469 95.101562 188.472656 97.558594 C 188.496094 98.046875 188.519531 98.535156 188.542969 99.039062 C 188.921875 106.957031 189.300781 114.875 189.679688 122.792969 C 190.070312 130.914062 190.460938 139.035156 190.847656 147.15625 C 191.089844 152.167969 191.328125 157.179688 191.570312 162.195312 C 191.734375 165.628906 191.898438 169.066406 192.0625 172.5 C 192.160156 174.484375 192.253906 176.46875 192.347656 178.449219 C 192.4375 180.265625 192.523438 182.082031 192.609375 183.894531 C 192.640625 184.554688 192.671875 185.210938 192.703125 185.867188 C 192.746094 186.761719 192.789062 187.652344 192.832031 188.546875 C 192.855469 189.042969 192.878906 189.539062 192.90625 190.046875 C 192.949219 191.277344 192.953125 192.507812 192.953125 193.738281 C 190.371094 193.738281 187.789062 193.738281 185.128906 193.738281 C 184.53125 185.023438 184.0625 176.304688 183.65625 167.582031 C 183.574219 165.757812 183.488281 163.933594 183.398438 162.113281 C 183.234375 158.5625 183.066406 155.011719 182.898438 151.460938 C 182.765625 148.574219 182.628906 145.6875 182.492188 142.804688 C 182.472656 142.390625 182.453125 141.976562 182.433594 141.550781 C 182.394531 140.710938 182.355469 139.871094 182.316406 139.03125 C 181.949219 131.195312 181.578125 123.359375 181.214844 115.523438 C 180.898438 108.808594 180.582031 102.09375 180.265625 95.375 C 179.898438 87.554688 179.53125 79.730469 179.164062 71.90625 C 179.125 71.070312 179.085938 70.238281 179.046875 69.402344 C 179.027344 68.992188 179.007812 68.582031 178.988281 68.160156 C 178.851562 65.277344 178.714844 62.390625 178.582031 59.507812 C 178.414062 55.996094 178.25 52.484375 178.085938 48.972656 C 178.003906 47.183594 177.917969 45.394531 177.835938 43.605469 C 177.757812 41.964844 177.679688 40.328125 177.605469 38.6875 C 177.578125 38.09375 177.546875 37.503906 177.519531 36.914062 C 177.480469 36.105469 177.445312 35.296875 177.40625 34.492188 C 177.386719 34.042969 177.367188 33.597656 177.34375 33.136719 C 177.289062 31.355469 177.300781 29.570312 177.300781 27.789062 Z M 177.300781 27.789062 "/>
<path style=" stroke:none;fill-rule:nonzero;fill:rgb(55.686277%,55.686277%,55.686277%);fill-opacity:1;" d="M 140.507812 114.675781 C 140.765625 114.675781 141.027344 114.675781 141.292969 114.675781 C 142.476562 118.417969 143.660156 122.160156 144.832031 125.90625 C 145.378906 127.644531 145.925781 129.382812 146.476562 131.117188 C 147.007812 132.792969 147.535156 134.472656 148.058594 136.148438 C 148.261719 136.789062 148.464844 137.429688 148.667969 138.070312 C 148.953125 138.964844 149.234375 139.863281 149.511719 140.757812 C 149.597656 141.023438 149.683594 141.285156 149.769531 141.558594 C 150.222656 143.039062 150.429688 144.121094 149.902344 145.597656 C 149.160156 146.300781 148.476562 146.867188 147.652344 147.457031 C 146.996094 147.941406 146.34375 148.429688 145.691406 148.921875 C 144.8125 149.511719 144.8125 149.511719 143.609375 150.074219 C 141.769531 151.046875 140.207031 151.941406 139.339844 153.90625 C 138.550781 156.578125 138.273438 159.351562 137.945312 162.109375 C 137.824219 163 137.699219 163.890625 137.570312 164.78125 C 137.246094 167.113281 136.949219 169.445312 136.65625 171.78125 C 136.351562 174.167969 136.019531 176.550781 135.695312 178.9375 C 135.054688 183.605469 134.449219 188.277344 133.855469 192.953125 C 131.273438 192.953125 128.6875 192.953125 126.027344 192.953125 C 126.269531 188.957031 126.792969 185.050781 127.402344 181.09375 C 127.574219 179.980469 127.742188 178.867188 127.910156 177.753906 C 128.265625 175.390625 128.628906 173.03125 128.988281 170.671875 C 129.40625 167.921875 129.824219 165.175781 130.238281 162.429688 C 130.40625 161.332031 130.574219 160.238281 130.742188 159.144531 C 130.84375 158.472656 130.945312 157.800781 131.046875 157.128906 C 131.09375 156.824219 131.140625 156.523438 131.1875 156.210938 C 131.765625 153.242188 131.765625 153.242188 130.859375 150.535156 C 130.566406 150.238281 130.269531 149.9375 129.964844 149.632812 C 128.605469 148.210938 127.300781 146.773438 126.050781 145.253906 C 125.765625 144.910156 125.480469 144.5625 125.183594 144.207031 C 124.003906 142.640625 124.003906 142.640625 123.679688 141.683594 C 124.035156 140.792969 124.035156 140.792969 124.679688 139.804688 C 124.917969 139.433594 125.15625 139.066406 125.398438 138.683594 C 125.664062 138.285156 125.925781 137.886719 126.199219 137.476562 C 126.746094 136.621094 127.296875 135.769531 127.84375 134.917969 C 128.132812 134.476562 128.417969 134.035156 128.707031 133.59375 C 130.003906 131.585938 131.269531 129.550781 132.535156 127.519531 C 132.894531 126.945312 132.894531 126.945312 133.261719 126.359375 C 134.484375 124.40625 135.695312 122.449219 136.894531 120.480469 C 137.128906 120.09375 137.359375 119.710938 137.601562 119.316406 C 138.046875 118.585938 138.488281 117.855469 138.929688 117.121094 C 139.125 116.800781 139.324219 116.476562 139.527344 116.144531 C 139.785156 115.71875 139.785156 115.71875 140.046875 115.28125 C 140.273438 114.984375 140.273438 114.984375 140.507812 114.675781 Z M 140.507812 114.675781 "/>
<path style=" stroke:none;fill-rule:nonzero;fill:rgb(55.686277%,55.686277%,55.686277%);fill-opacity:1;" d="M 79.453125 121.332031 C 80.359375 122.238281 80.664062 122.996094 81.160156 124.175781 C 81.34375 124.605469 81.527344 125.039062 81.714844 125.484375 C 82.011719 126.1875 82.011719 126.1875 82.3125 126.90625 C 82.628906 127.648438 82.941406 128.386719 83.253906 129.128906 C 83.476562 129.644531 83.695312 130.160156 83.914062 130.679688 C 84.707031 132.546875 85.507812 134.410156 86.316406 136.273438 C 86.433594 136.535156 86.546875 136.796875 86.664062 137.066406 C 87.105469 138.085938 87.550781 139.105469 87.996094 140.125 C 89.238281 142.976562 90.453125 145.832031 91.585938 148.726562 C 90.566406 149.8125 89.546875 150.898438 88.527344 151.980469 C 88.238281 152.289062 87.949219 152.597656 87.652344 152.914062 C 87.375 153.210938 87.09375 153.507812 86.808594 153.8125 C 86.550781 154.085938 86.296875 154.355469 86.03125 154.636719 C 85.324219 155.382812 85.324219 155.382812 84.699219 155.90625 C 83.980469 156.757812 84.015625 157.199219 84.050781 158.300781 C 84.058594 158.660156 84.066406 159.015625 84.074219 159.382812 C 84.089844 159.769531 84.105469 160.160156 84.121094 160.558594 C 84.128906 160.964844 84.140625 161.371094 84.152344 161.792969 C 84.175781 162.671875 84.199219 163.550781 84.226562 164.429688 C 84.300781 166.734375 84.355469 169.042969 84.410156 171.351562 C 84.421875 171.816406 84.4375 172.285156 84.449219 172.765625 C 84.558594 177.246094 84.578125 181.722656 84.566406 186.203125 C 84.5625 186.550781 84.5625 186.898438 84.5625 187.257812 C 84.558594 189.15625 84.550781 191.054688 84.539062 192.953125 C 82.085938 192.953125 79.632812 192.953125 77.105469 192.953125 C 76.660156 189.601562 76.710938 186.296875 76.765625 182.921875 C 76.792969 180.804688 76.785156 178.6875 76.78125 176.570312 C 76.777344 174.726562 76.789062 172.878906 76.832031 171.035156 C 77.335938 161.320312 77.335938 161.320312 73.070312 153.035156 C 71.503906 151.589844 69.886719 150.285156 68.101562 149.121094 C 68.921875 146.53125 69.886719 144.027344 70.933594 141.519531 C 71.09375 141.140625 71.25 140.757812 71.414062 140.367188 C 71.914062 139.160156 72.417969 137.949219 72.921875 136.742188 C 73.582031 135.15625 74.238281 133.566406 74.898438 131.980469 C 75.054688 131.601562 75.214844 131.21875 75.375 130.828125 C 76.492188 128.136719 77.578125 125.4375 78.640625 122.722656 C 79.0625 121.722656 79.0625 121.722656 79.453125 121.332031 Z M 79.453125 121.332031 "/>
<path style=" stroke:none;fill-rule:nonzero;fill:rgb(55.29412%,55.29412%,55.29412%);fill-opacity:1;" d="M 17.613281 123.289062 C 18.691406 124.582031 19.59375 125.878906 20.421875 127.34375 C 20.769531 127.957031 20.769531 127.957031 21.125 128.578125 C 21.371094 129.011719 21.617188 129.445312 21.867188 129.890625 C 23.429688 132.632812 24.996094 135.363281 26.667969 138.039062 C 26.921875 138.445312 27.175781 138.855469 27.4375 139.273438 C 27.925781 140.054688 28.417969 140.828125 28.914062 141.601562 C 29.128906 141.949219 29.347656 142.296875 29.574219 142.660156 C 29.769531 142.960938 29.960938 143.265625 30.164062 143.582031 C 30.527344 144.421875 30.527344 144.421875 30.449219 145.234375 C 30.125 146.019531 29.761719 146.628906 29.257812 147.3125 C 28.996094 147.671875 28.996094 147.671875 28.730469 148.035156 C 28.546875 148.28125 28.367188 148.523438 28.179688 148.777344 C 26.21875 151.453125 25.796875 152.511719 26.289062 155.824219 C 26.34375 156.195312 26.398438 156.5625 26.453125 156.945312 C 26.628906 158.175781 26.8125 159.40625 26.992188 160.636719 C 27.117188 161.488281 27.238281 162.339844 27.363281 163.195312 C 27.6875 165.445312 28.015625 167.695312 28.34375 169.949219 C 28.871094 173.546875 29.394531 177.144531 29.914062 180.742188 C 30.097656 182 30.28125 183.253906 30.464844 184.511719 C 30.578125 185.285156 30.691406 186.058594 30.800781 186.832031 C 30.855469 187.179688 30.90625 187.53125 30.960938 187.890625 C 31.203125 189.59375 31.371094 191.226562 31.3125 192.953125 C 30.078125 192.964844 28.847656 192.972656 27.617188 192.980469 C 27.265625 192.984375 26.914062 192.984375 26.550781 192.988281 C 26.21875 192.992188 25.882812 192.992188 25.539062 192.992188 C 25.230469 192.996094 24.921875 192.996094 24.601562 193 C 23.875 192.953125 23.875 192.953125 23.484375 192.5625 C 23.285156 191.398438 23.109375 190.234375 22.949219 189.066406 C 22.894531 188.699219 22.84375 188.332031 22.789062 187.953125 C 22.675781 187.152344 22.5625 186.351562 22.449219 185.550781 C 22.273438 184.285156 22.09375 183.019531 21.914062 181.75 C 21.398438 178.148438 20.890625 174.546875 20.382812 170.945312 C 20.070312 168.746094 19.757812 166.542969 19.445312 164.34375 C 19.324219 163.503906 19.207031 162.664062 19.089844 161.824219 C 18.925781 160.648438 18.757812 159.472656 18.589844 158.300781 C 18.542969 157.953125 18.492188 157.605469 18.445312 157.246094 C 18.089844 154.363281 18.089844 154.363281 16.558594 151.988281 C 16.300781 151.800781 16.039062 151.617188 15.773438 151.421875 C 15.496094 151.21875 15.214844 151.011719 14.925781 150.800781 C 14.632812 150.59375 14.34375 150.386719 14.042969 150.171875 C 13.746094 149.957031 13.449219 149.742188 13.148438 149.519531 C 12.421875 148.992188 11.691406 148.464844 10.957031 147.945312 C 11.535156 145.683594 12.113281 143.421875 12.691406 141.164062 C 12.886719 140.398438 13.082031 139.632812 13.277344 138.867188 C 13.9375 136.28125 14.597656 133.699219 15.265625 131.117188 C 15.359375 130.75 15.453125 130.382812 15.546875 130.007812 C 15.816406 128.960938 16.089844 127.914062 16.359375 126.867188 C 16.441406 126.550781 16.523438 126.234375 16.605469 125.90625 C 17.175781 123.722656 17.175781 123.722656 17.613281 123.289062 Z M 17.613281 123.289062 "/>
<path style=" stroke:none;fill-rule:nonzero;fill:rgb(55.686277%,55.686277%,55.686277%);fill-opacity:1;" d="M 50.878906 126.417969 C 51.140625 126.417969 51.398438 126.417969 51.664062 126.417969 C 52.753906 129.398438 53.839844 132.382812 54.917969 135.371094 C 55.417969 136.757812 55.921875 138.144531 56.429688 139.527344 C 56.921875 140.863281 57.402344 142.199219 57.882812 143.539062 C 58.070312 144.050781 58.253906 144.558594 58.441406 145.070312 C 58.707031 145.78125 58.960938 146.496094 59.21875 147.214844 C 59.363281 147.621094 59.511719 148.027344 59.664062 148.445312 C 59.882812 149.511719 59.882812 149.511719 59.691406 150.316406 C 59 151.203125 58.179688 151.785156 57.277344 152.445312 C 54.996094 154.203125 53.746094 155.769531 53.292969 158.648438 C 53.097656 160.554688 52.996094 162.453125 52.914062 164.363281 C 52.863281 165.191406 52.808594 166.019531 52.753906 166.847656 C 52.613281 169.007812 52.5 171.167969 52.390625 173.332031 C 52.277344 175.542969 52.136719 177.753906 51.996094 179.96875 C 51.730469 184.296875 51.492188 188.625 51.273438 192.953125 C 48.6875 192.953125 46.105469 192.953125 43.445312 192.953125 C 43.445312 190.632812 43.453125 188.433594 43.625 186.140625 C 43.652344 185.746094 43.652344 185.746094 43.683594 185.34375 C 43.722656 184.78125 43.765625 184.222656 43.808594 183.660156 C 43.875 182.765625 43.9375 181.871094 44.003906 180.976562 C 44.1875 178.433594 44.375 175.894531 44.566406 173.351562 C 44.679688 171.789062 44.796875 170.226562 44.90625 168.664062 C 44.949219 168.078125 44.996094 167.488281 45.039062 166.898438 C 45.261719 163.941406 45.449219 160.988281 45.5 158.023438 C 45.507812 157.554688 45.515625 157.089844 45.527344 156.613281 C 45.320312 154.589844 44.289062 153.523438 42.832031 152.203125 C 42.347656 151.734375 41.863281 151.257812 41.386719 150.78125 C 41.171875 150.582031 40.957031 150.382812 40.734375 150.179688 C 40.3125 149.511719 40.3125 149.511719 40.375 148.597656 C 40.75 147.410156 41.226562 146.34375 41.777344 145.222656 C 42 144.765625 42.21875 144.3125 42.449219 143.839844 C 42.691406 143.351562 42.933594 142.859375 43.175781 142.367188 C 43.421875 141.863281 43.667969 141.359375 43.914062 140.855469 C 44.417969 139.820312 44.921875 138.785156 45.429688 137.75 C 46.589844 135.371094 47.730469 132.988281 48.875 130.601562 C 49.265625 129.789062 49.65625 128.972656 50.046875 128.160156 C 50.324219 127.578125 50.601562 127 50.878906 126.417969 Z M 50.878906 126.417969 "/>
<path style=" stroke:none;fill-rule:nonzero;fill:rgb(55.686277%,55.686277%,55.686277%);fill-opacity:1;" d="M 104.5 138.941406 C 105.726562 140.128906 106.5625 141.238281 107.398438 142.730469 C 107.644531 143.171875 107.894531 143.613281 108.152344 144.066406 C 108.285156 144.300781 108.414062 144.535156 108.546875 144.773438 C 109.097656 145.757812 109.652344 146.734375 110.203125 147.714844 C 110.488281 148.21875 110.773438 148.722656 111.058594 149.222656 C 112.476562 151.738281 113.929688 154.234375 115.386719 156.726562 C 115.613281 157.117188 115.839844 157.503906 116.074219 157.90625 C 117.238281 159.917969 117.238281 159.917969 118.511719 161.859375 C 118.980469 162.816406 118.980469 162.816406 118.730469 163.632812 C 118.554688 163.878906 118.378906 164.128906 118.199219 164.382812 C 118.03125 164.621094 117.863281 164.859375 117.691406 165.105469 C 117.503906 165.347656 117.316406 165.589844 117.125 165.835938 C 116.917969 166.105469 116.710938 166.375 116.5 166.652344 C 116.066406 167.210938 115.636719 167.765625 115.203125 168.324219 C 114.996094 168.59375 114.792969 168.863281 114.578125 169.140625 C 114.390625 169.382812 114.203125 169.625 114.011719 169.875 C 112.992188 171.425781 112.601562 172.679688 112.8125 174.523438 C 112.851562 174.894531 112.890625 175.265625 112.929688 175.648438 C 112.976562 176.042969 113.023438 176.441406 113.070312 176.847656 C 113.117188 177.257812 113.160156 177.667969 113.207031 178.09375 C 113.351562 179.402344 113.5 180.710938 113.648438 182.019531 C 113.796875 183.332031 113.941406 184.640625 114.085938 185.953125 C 114.175781 186.769531 114.265625 187.582031 114.359375 188.398438 C 114.398438 188.769531 114.441406 189.136719 114.484375 189.519531 C 114.523438 189.84375 114.558594 190.167969 114.597656 190.5 C 114.671875 191.316406 114.675781 192.136719 114.675781 192.953125 C 112.09375 192.953125 109.511719 192.953125 106.847656 192.953125 C 106.804688 192.332031 106.757812 191.710938 106.707031 191.070312 C 106.527344 188.75 106.320312 186.433594 106.105469 184.117188 C 106.015625 183.117188 105.933594 182.117188 105.859375 181.117188 C 105.738281 175.382812 105.738281 175.382812 103.417969 170.402344 C 102.320312 169.476562 101.113281 168.882812 99.804688 168.296875 C 99.242188 167.910156 98.683594 167.515625 98.140625 167.097656 C 97.609375 166.722656 97.609375 166.722656 97.066406 166.339844 C 97.632812 163.136719 98.484375 160.035156 99.378906 156.90625 C 99.527344 156.386719 99.675781 155.867188 99.824219 155.34375 C 100.210938 153.988281 100.597656 152.628906 100.984375 151.273438 C 101.382812 149.882812 101.777344 148.492188 102.175781 147.101562 C 102.949219 144.378906 103.722656 141.660156 104.5 138.941406 Z M 104.5 138.941406 "/>
<path style=" stroke:none;fill-rule:nonzero;fill:rgb(55.686277%,55.686277%,55.686277%);fill-opacity:1;" d="M 160.859375 138.941406 C 161.917969 139.894531 162.554688 140.921875 163.253906 142.15625 C 163.492188 142.566406 163.726562 142.976562 163.96875 143.402344 C 164.21875 143.84375 164.46875 144.285156 164.726562 144.742188 C 165.253906 145.664062 165.78125 146.589844 166.3125 147.511719 C 166.445312 147.746094 166.578125 147.980469 166.714844 148.21875 C 168.015625 150.488281 169.339844 152.742188 170.671875 154.988281 C 170.871094 155.328125 171.070312 155.667969 171.277344 156.015625 C 171.46875 156.339844 171.660156 156.664062 171.859375 156.996094 C 172.042969 157.308594 172.226562 157.621094 172.414062 157.945312 C 172.824219 158.625 173.25 159.296875 173.6875 159.960938 C 173.910156 160.308594 174.132812 160.652344 174.363281 161.007812 C 174.570312 161.316406 174.773438 161.628906 174.988281 161.945312 C 175.34375 162.816406 175.34375 162.816406 175.082031 163.621094 C 174.554688 164.390625 174.03125 165.148438 173.46875 165.890625 C 173.261719 166.167969 173.054688 166.445312 172.839844 166.726562 C 172.625 167.011719 172.410156 167.296875 172.1875 167.589844 C 171.96875 167.875 171.753906 168.164062 171.527344 168.460938 C 169.929688 170.578125 169.929688 170.578125 169.472656 171.039062 C 169.554688 175.4375 170.234375 179.84375 170.78125 184.203125 C 170.890625 185.070312 170.996094 185.933594 171.101562 186.800781 C 171.164062 187.304688 171.226562 187.8125 171.292969 188.332031 C 171.433594 189.867188 171.429688 191.414062 171.429688 192.953125 C 168.972656 192.953125 166.519531 192.953125 163.992188 192.953125 C 163.417969 190.332031 163.082031 187.832031 162.9375 185.15625 C 162.855469 184.046875 162.769531 182.941406 162.679688 181.835938 C 162.625 181.082031 162.582031 180.324219 162.546875 179.570312 C 162.359375 174.601562 162.359375 174.601562 159.726562 170.589844 C 158.332031 169.464844 156.871094 168.484375 155.320312 167.589844 C 154.582031 167.113281 154.023438 166.589844 153.425781 165.949219 C 154.335938 162.542969 155.246094 159.136719 156.160156 155.734375 C 156.582031 154.152344 157.007812 152.570312 157.429688 150.988281 C 157.839844 149.464844 158.246094 147.9375 158.65625 146.414062 C 158.8125 145.832031 158.96875 145.246094 159.125 144.664062 C 159.339844 143.851562 159.558594 143.035156 159.777344 142.222656 C 159.964844 141.527344 159.964844 141.527344 160.15625 140.816406 C 160.46875 139.726562 160.46875 139.726562 160.859375 138.941406 Z M 160.859375 138.941406 "/>
<path style=" stroke:none;fill-rule:nonzero;fill:rgb(55.686277%,55.686277%,55.686277%);fill-opacity:1;" d="M 184.464844 7.875 C 185.945312 8.90625 187.050781 10.109375 187.867188 11.742188 C 187.925781 12.5 187.953125 13.257812 187.964844 14.015625 C 187.976562 14.421875 187.984375 14.828125 187.996094 15.246094 C 187.78125 17.226562 186.820312 18.421875 185.324219 19.667969 C 185.09375 19.863281 184.863281 20.058594 184.625 20.261719 C 183.125 21.335938 181.421875 21.363281 179.648438 21.136719 C 177.160156 20.308594 175.6875 19.015625 174.460938 16.683594 C 173.933594 14.828125 174.035156 13.363281 174.585938 11.523438 C 176.726562 7.722656 180.339844 6.476562 184.464844 7.875 Z M 184.464844 7.875 "/>
</g>
</svg>
