<?xml version="1.0" encoding="UTF-8"?>
<svg version="1.1" xmlns="http://www.w3.org/2000/svg" width="511" height="511">
<path d="M0 0 C0.74849716 -0.00956726 1.49699432 -0.01913452 2.26817322 -0.0289917 C4.67752309 -0.0534725 7.08663526 -0.06610539 9.49609375 -0.07421875 C10.31674316 -0.07783417 11.13739258 -0.08144958 11.98291016 -0.08517456 C25.6561318 -0.10936226 38.5854824 1.14244453 51.93359375 4.23828125 C53.5992006 4.57687052 55.26523962 4.9134992 56.93359375 5.23828125 C58.25645621 10.19901547 58.02252572 15.14939637 57.93359375 20.23828125 C55.74851327 21.33082149 54.19606682 21.5274044 51.77514648 21.79492188 C50.9176329 21.89172241 50.06011932 21.98852295 49.17662048 22.08825684 C48.2495076 22.18932739 47.32239471 22.29039795 46.3671875 22.39453125 C44.41861912 22.61457742 42.47005144 22.83462969 40.52148438 23.0546875 C37.4380354 23.39814159 34.35442718 23.74012653 31.27075195 24.08154297 C28.30248589 24.4114818 25.33483316 24.74656552 22.3671875 25.08203125 C21.43805038 25.18310181 20.50891327 25.28417236 19.55162048 25.38830566 C18.27007835 25.53350647 18.27007835 25.53350647 16.96264648 25.68164062 C16.20700912 25.76522827 15.45137177 25.84881592 14.6728363 25.93493652 C12.90946261 26.07071328 12.90946261 26.07071328 11.93359375 27.23828125 C12.74812012 27.59019531 13.56264648 27.94210938 14.40185547 28.3046875 C29.61091353 34.87833031 44.81532609 41.45759481 59.93359375 48.23828125 C59.93359375 52.19828125 59.93359375 56.15828125 59.93359375 60.23828125 C58.63623291 60.47538818 57.33887207 60.71249512 56.00219727 60.95678711 C51.20638109 61.83434148 46.4115232 62.71703626 41.61694336 63.60131836 C39.53842692 63.98391628 37.45965043 64.36510414 35.38061523 64.74487305 C32.39888748 65.28978255 29.41812007 65.83969306 26.4375 66.390625 C25.50208878 66.56045395 24.56667755 66.7302829 23.60292053 66.90525818 C22.74210373 67.06534866 21.88128693 67.22543915 20.99438477 67.39038086 C20.232715 67.53027939 19.47104523 67.67017792 18.68629456 67.8143158 C16.91701356 68.08118275 16.91701356 68.08118275 15.93359375 69.23828125 C16.54017822 69.56401123 17.1467627 69.88974121 17.77172852 70.2253418 C32.93370095 78.37723038 47.97787292 86.71407843 62.93359375 95.23828125 C62.93359375 99.19828125 62.93359375 103.15828125 62.93359375 107.23828125 C57.50862511 108.09961767 52.08260606 108.95388038 46.65551758 109.80175781 C44.81146595 110.09085596 42.96770988 110.3818463 41.12426758 110.67480469 C38.46642284 111.09684431 35.80757093 111.51194877 33.1484375 111.92578125 C32.33148911 112.05702393 31.51454071 112.1882666 30.6728363 112.32348633 C26.03045944 113.0381821 21.63069937 113.37005277 16.93359375 113.23828125 C19.16944691 115.64110179 21.49077026 117.35644243 24.265625 119.1015625 C25.57225098 119.92769043 25.57225098 119.92769043 26.90527344 120.77050781 C27.84274414 121.35799805 28.78021484 121.94548828 29.74609375 122.55078125 C31.72657468 123.80206406 33.70704304 125.05336675 35.6875 126.3046875 C37.76951942 127.6159042 39.85155083 128.92710187 41.93359375 130.23828125 C46.01974851 132.81718041 50.10235605 135.40160995 54.18359375 137.98828125 C55.12952393 138.58423096 56.0754541 139.18018066 57.05004883 139.79418945 C57.9242749 140.3480835 58.79850098 140.90197754 59.69921875 141.47265625 C60.85599121 142.20307129 60.85599121 142.20307129 62.03613281 142.94824219 C63.93359375 144.23828125 63.93359375 144.23828125 65.93359375 146.23828125 C65.93359375 149.53828125 65.93359375 152.83828125 65.93359375 156.23828125 C52.73359375 156.56828125 39.53359375 156.89828125 25.93359375 157.23828125 C28.90359375 160.20828125 31.87359375 163.17828125 34.93359375 166.23828125 C35.98933594 167.49253906 37.04507812 168.74679688 38.1328125 170.0390625 C41.27512061 173.71974126 44.78919868 176.76826316 48.453125 179.90625 C70.12185899 198.8184581 70.12185899 198.8184581 71.53198242 212.9543457 C71.64333355 217.68265006 71.56116725 222.33216138 71.18115234 227.046875 C70.8141316 231.77832983 70.87425515 236.49598791 70.93359375 241.23828125 C68.31904819 238.10901532 66.05706401 234.91619714 63.94238281 231.43041992 C51.78078003 211.51122229 33.77913446 197.73736062 10.9921875 191.88671875 C6.66032192 190.8697248 2.31439317 190.01679681 -2.06640625 189.23828125 C-2.98534668 189.06393555 -3.90428711 188.88958984 -4.85107422 188.70996094 C-53.78365704 181.53169594 -106.17134432 197.96462207 -153.32004929 208.89007187 C-173.16016239 213.48674015 -192.94868325 218.01358816 -213.06640625 221.23828125 C-214.05914551 221.4089209 -215.05188477 221.57956055 -216.07470703 221.75537109 C-230.62600084 224.20925167 -245.1567041 224.5636139 -259.87890625 224.67578125 C-261.23140976 224.69424103 -261.23140976 224.69424103 -262.61123657 224.71307373 C-289.10540294 225.0154779 -319.35508128 219.48028896 -339.06640625 200.23828125 C-339.06640625 199.90828125 -339.06640625 199.57828125 -339.06640625 199.23828125 C-338.28104492 199.19340576 -337.49568359 199.14853027 -336.68652344 199.10229492 C-333.06235338 198.88849764 -329.43948984 198.65723579 -325.81640625 198.42578125 C-324.58148438 198.35552734 -323.3465625 198.28527344 -322.07421875 198.21289062 C-311.08649806 197.49001426 -300.891675 195.74275358 -291.06640625 190.61328125 C-290.39778564 190.27280762 -289.72916504 189.93233398 -289.0402832 189.58154297 C-282.49589316 186.13811256 -276.83081604 181.84598526 -271.06640625 177.23828125 C-270.07640625 176.57828125 -269.08640625 175.91828125 -268.06640625 175.23828125 C-268.6584082 174.91255127 -269.25041016 174.58682129 -269.86035156 174.2512207 C-336.01453386 137.71346279 -336.01453386 137.71346279 -351.06640625 109.23828125 C-351.68515625 108.18640625 -352.30390625 107.13453125 -352.94140625 106.05078125 C-354.39891049 102.40702066 -354.72967406 99.14437461 -355.06640625 95.23828125 C-354.58099365 95.60397217 -354.09558105 95.96966309 -353.59545898 96.34643555 C-336.84442415 108.94139521 -320.18967465 120.65952043 -300.06640625 127.23828125 C-298.95265625 127.63015625 -297.83890625 128.02203125 -296.69140625 128.42578125 C-268.82155959 136.92844633 -240.66713813 129.97871634 -215.63671875 116.953125 C-199.70939246 108.46606468 -185.43134587 97.9283511 -171.203125 86.89111328 C-168.39259234 84.71706094 -165.56667757 82.56353408 -162.74047852 80.40991211 C-156.94472415 75.9932377 -151.17326102 71.54831414 -145.43579102 67.05615234 C-103.60073848 34.33625375 -55.32779788 0.60118436 0 0 Z " fill="#8E8E8E" transform="translate(374.06640625,40.76171875)"/>
<path d="M0 0 C6.6 0 13.2 0 20 0 C22.54953695 53.14851972 25.09761385 106.29710924 27.64364541 159.445797 C27.94406 165.71695764 28.24448708 171.98811768 28.54492188 178.25927734 C28.60473417 179.50778046 28.66454647 180.75628357 28.72617126 182.04262011 C29.69535172 202.27236632 30.66554382 222.5020639 31.63610816 242.73174377 C32.63157831 263.48100974 33.62596506 284.23032743 34.6193409 304.97969377 C35.23260348 317.78863897 35.84671647 330.59754282 36.46190882 343.40639548 C36.88338241 352.18353843 37.30380601 360.96073127 37.72339582 369.73796447 C37.96569932 374.80595993 38.20847349 379.87393172 38.45249176 384.94184494 C38.6757715 389.57926051 38.89773612 394.21673707 39.118644 398.85426621 C39.19889544 400.53406288 39.27963423 402.21383635 39.3609035 403.89358409 C39.47114155 406.1735459 39.57961825 408.45358497 39.68765259 410.73365211 C39.74840784 412.00115858 39.80916309 413.26866504 39.87175941 414.57458079 C39.98931066 417.71447832 40 420.85790281 40 424 C33.4 424 26.8 424 20 424 C18.47608336 401.73345601 17.28420669 379.46261935 16.24609494 357.16859114 C16.02860575 352.511003 15.80793393 347.85356533 15.58770752 343.19610596 C15.15925509 334.12450936 14.73366513 325.05278077 14.30915557 315.9809989 C13.96408526 308.60811316 13.61790797 301.23528013 13.27096939 293.86248207 C13.22128387 292.80660613 13.17159835 291.75073019 13.1204072 290.66285801 C13.01942715 288.51703175 12.91844421 286.37120562 12.81745841 284.22537962 C11.87541489 264.20556779 10.93661219 244.18560502 9.99899425 224.1655855 C9.1952649 207.00586558 8.38888821 189.84627175 7.58056641 172.68676758 C6.63896284 152.69783967 5.69886348 132.708842 4.76125252 112.71972638 C4.66130281 110.58894647 4.56135167 108.45816663 4.46139908 106.32738686 C4.41223507 105.27928436 4.36307106 104.23118187 4.31241723 103.1513187 C3.96658322 95.78077811 3.61969115 88.41028777 3.27239609 81.0398159 C2.84972698 72.06898798 2.42874771 63.09808262 2.00991736 54.12707462 C1.79639846 49.55453748 1.58213892 44.98203833 1.36584091 40.40963173 C1.16775266 36.22169749 0.97184431 32.03366706 0.77764584 27.84555069 C0.70718811 26.33415813 0.63594841 24.82280177 0.56382929 23.31148758 C0.46555432 21.24953269 0.37020009 19.18746149 0.27552605 17.12533855 C0.22193046 15.98247692 0.16833488 14.83961528 0.11311519 13.66212147 C-0.02748726 9.11009584 0 4.55419658 0 0 Z " fill="#8E8E8E" transform="translate(453,71)"/>
<path d="M0 0 C0.66 0 1.32 0 2 0 C5.02983163 9.55774877 8.04706889 19.11937233 11.04829502 28.68614483 C12.44228437 33.1282721 13.84057402 37.56894867 15.2487793 42.0065918 C16.60763665 46.28927785 17.95508153 50.57540127 19.29469109 54.86414528 C19.80775113 56.49967801 20.32490925 58.13393102 20.84622383 59.76685143 C21.57577584 62.05444838 22.29061721 64.34616408 23.00219727 66.6394043 C23.22085953 67.31338257 23.43952179 67.98736084 23.66481018 68.6817627 C24.81955952 72.46492851 25.34557399 75.22714496 24 79 C22.10792164 80.79687945 20.35420394 82.24909928 18.25 83.75 C16.5773518 84.99418659 14.90589263 86.24006662 13.245224 87.50019836 C11 89 11 89 7.91798401 90.43571472 C3.22525745 92.92232198 -0.77265444 95.21486218 -2.98382187 100.23252487 C-5.00114846 107.06079146 -5.7125405 114.14240319 -6.55078125 121.19140625 C-6.86349037 123.46610331 -7.1812942 125.74010527 -7.50395203 128.01341248 C-8.33556217 133.97009397 -9.09804795 139.93363112 -9.84606934 145.90130615 C-10.62309151 152.00045236 -11.4657226 158.09049039 -12.30273438 164.18164062 C-13.93254243 176.11335504 -15.48322621 188.05338987 -17 200 C-23.6 200 -30.2 200 -37 200 C-36.38429148 189.78684583 -35.03966306 179.80267819 -33.48672295 169.69685555 C-33.0495069 166.85100978 -32.61828985 164.00430834 -32.18849182 161.15733337 C-31.27672577 155.1249221 -30.35757098 149.09364935 -29.4375 143.0625 C-28.36700159 136.0433037 -27.29958988 129.02366271 -26.23942757 122.00289726 C-25.81538739 119.20498224 -25.3860195 116.40791888 -24.95640564 113.6108551 C-24.69651048 111.89433613 -24.43685889 110.17778025 -24.17749023 108.46118164 C-24.05750168 107.68966263 -23.93751312 106.91814362 -23.81388855 106.12324524 C-22.3412716 98.52970278 -22.3412716 98.52970278 -24.65234375 91.61328125 C-25.40644531 90.85402344 -26.16054688 90.09476562 -26.9375 89.3125 C-30.41170724 85.67887503 -33.74313834 82.00905339 -36.9375 78.125 C-37.66839844 77.24070312 -38.39929688 76.35640625 -39.15234375 75.4453125 C-42.17469371 71.44533137 -42.17469371 71.44533137 -43 69 C-42.08813477 66.72363281 -42.08813477 66.72363281 -40.44140625 64.203125 C-39.83538574 63.25671143 -39.22936523 62.31029785 -38.60498047 61.33520508 C-37.93096191 60.3170874 -37.25694336 59.29896973 -36.5625 58.25 C-35.15974388 56.0718801 -33.75741183 53.89348705 -32.35546875 51.71484375 C-31.62321346 50.58816479 -30.89062815 49.46170025 -30.15771484 48.33544922 C-26.83518901 43.19940624 -23.60699958 38.00578395 -20.375 32.8125 C-19.45533447 31.34441895 -19.45533447 31.34441895 -18.51708984 29.84667969 C-15.39237674 24.85803024 -12.29492718 19.85489872 -9.23828125 14.82421875 C-8.64031738 13.84412842 -8.04235352 12.86403809 -7.42626953 11.85424805 C-6.28958928 9.98834959 -5.15879427 8.11884981 -4.03466797 6.24536133 C-3.53209473 5.42189209 -3.02952148 4.59842285 -2.51171875 3.75 C-1.85369263 2.65945313 -1.85369263 2.65945313 -1.18237305 1.546875 C-0.59709839 0.78117187 -0.59709839 0.78117187 0 0 Z " fill="#8E8E8E" transform="translate(359,293)"/>
<path d="M0 0 C2.31513168 2.31513168 3.09230604 4.25009067 4.36328125 7.265625 C4.83185547 8.36922363 5.30042969 9.47282227 5.78320312 10.60986328 C6.54020508 12.41173096 6.54020508 12.41173096 7.3125 14.25 C8.11317106 16.14112241 8.91562361 18.0314822 9.7182312 19.92178345 C10.2785938 21.24168889 10.83841874 22.56182271 11.3977356 23.88217163 C13.42277461 28.65826952 15.47456257 33.42222129 17.54296875 38.1796875 C17.83319412 38.84734131 18.12341949 39.51499512 18.42243958 40.20288086 C19.55600489 42.80913411 20.6903514 45.41504328 21.8265686 48.0201416 C25.00189013 55.30277555 28.10868092 62.59949873 31 70 C28.39660435 72.77155864 25.79214986 75.54212006 23.1875 78.3125 C22.44951172 79.09818359 21.71152344 79.88386719 20.95117188 80.69335938 C20.23896484 81.45068359 19.52675781 82.20800781 18.79296875 82.98828125 C18.1383667 83.68477783 17.48376465 84.38127441 16.80932617 85.09887695 C15 87 15 87 13.40246582 88.33985901 C11.567329 90.51216568 11.66456165 91.64845126 11.7512207 94.46337891 C11.77146301 95.37328583 11.79170532 96.28319275 11.81256104 97.22067261 C11.84992371 98.21261627 11.88728638 99.20455994 11.92578125 100.2265625 C11.95226746 101.26676544 11.97875366 102.30696838 12.00604248 103.37869263 C12.06456424 105.62434557 12.12987831 107.86982951 12.20120239 110.1151123 C12.38815498 116.01085981 12.52706647 121.90778059 12.671875 127.8046875 C12.70245499 128.99533813 12.73303497 130.18598877 12.76454163 131.41271973 C13.0482168 142.8593607 13.09613321 154.30042559 13.0625 165.75 C13.06045563 166.63874817 13.05841125 167.52749634 13.05630493 168.44317627 C13.04469155 173.29552983 13.02389005 178.14766531 13 183 C6.73 183 0.46 183 -6 183 C-7.13253506 174.43259708 -7.00353719 165.98377524 -6.86481667 157.367939 C-6.79605361 151.9590878 -6.81677973 146.54969146 -6.8281908 141.14051247 C-6.83337141 136.42257482 -6.80285552 131.71038967 -6.69165039 126.99365234 C-5.40905788 102.17373535 -5.40905788 102.17373535 -16.30754089 81.00863647 C-20.31232025 77.31382777 -24.43593284 73.97827179 -29 71 C-26.90600027 64.38408711 -24.43589381 57.98696396 -21.76171875 51.5859375 C-21.35846878 50.61322906 -20.95521881 49.64052063 -20.53974915 48.63833618 C-19.25858929 45.54933408 -17.97326296 42.46208858 -16.6875 39.375 C-15.00251267 35.32089032 -13.31943095 31.26599193 -11.63671875 27.2109375 C-11.23299042 26.23960876 -10.82926208 25.26828003 -10.41329956 24.26751709 C-7.56040532 17.39149069 -4.7831278 10.48925732 -2.06958008 3.55712891 C-1 1 -1 1 0 0 Z " fill="#8E8E8E" transform="translate(203,310)"/>
<path d="M0 0 C2.7552671 3.31095122 5.06054802 6.61966357 7.1796875 10.3671875 C8.06914063 11.92735596 8.06914063 11.92735596 8.9765625 13.51904297 C9.60304688 14.62650879 10.22953125 15.73397461 10.875 16.875 C14.85914991 23.8798707 18.86602193 30.84925156 23.1328125 37.6875 C23.78266113 38.7305127 24.43250977 39.77352539 25.10205078 40.84814453 C26.34780012 42.83486955 27.60368902 44.81527992 28.87060547 46.78857422 C29.42893066 47.6807666 29.98725586 48.57295898 30.5625 49.4921875 C31.05878906 50.26933105 31.55507812 51.04647461 32.06640625 51.84716797 C33 54 33 54 32.79296875 56.0703125 C31.96812462 58.07756865 31.03634244 59.63698936 29.75 61.3828125 C29.08484375 62.29740234 29.08484375 62.29740234 28.40625 63.23046875 C27.9421875 63.85566406 27.478125 64.48085938 27 65.125 C21.98861733 71.95996914 20.90696052 74.66810326 22.17163086 83.12792969 C22.30803482 84.0744339 22.44443878 85.02093811 22.5849762 85.99612427 C23.03922786 89.13889756 23.50219037 92.28032855 23.96484375 95.421875 C24.28082528 97.60173014 24.5961292 99.7816836 24.91078186 101.96173096 C25.74234434 107.71415019 26.58071039 113.46555437 27.42120361 119.2166748 C28.76431805 128.40841083 30.10131807 137.60101788 31.43051338 146.79477692 C31.89656288 150.00703025 32.36801043 153.21846022 32.83982849 156.42987061 C33.12643338 158.40471214 33.41282667 160.37958439 33.69897461 162.35449219 C33.83145599 163.24615082 33.96393738 164.13780945 34.10043335 165.05648804 C34.72642731 169.41346521 35.14981556 173.58340681 35 178 C31.85418577 178.02888514 28.70840531 178.04675923 25.5625 178.0625 C24.66466797 178.07087891 23.76683594 178.07925781 22.84179688 178.08789062 C21.98779297 178.09111328 21.13378906 178.09433594 20.25390625 178.09765625 C19.46314697 178.10289307 18.6723877 178.10812988 17.85766602 178.11352539 C16 178 16 178 15 177 C14.49567243 174.02194636 14.04776144 171.05249348 13.63305664 168.06152344 C13.49957321 167.12331253 13.36608978 166.18510162 13.2285614 165.21846008 C12.93811039 163.17359448 12.64956183 161.12845798 12.36265755 159.08309174 C11.9083565 155.84655318 11.44855583 152.61084047 10.98716736 149.37530518 C9.67600609 140.17303184 8.37536911 130.969278 7.07739258 121.76513672 C6.28398041 116.14170197 5.48447162 110.5191602 4.68136406 104.89710236 C4.37634025 102.75244488 4.07375185 100.60743957 3.77363777 98.46208954 C3.35354288 95.4592419 2.92577571 92.4575783 2.49633789 89.45605469 C2.37418915 88.56858047 2.25204041 87.68110626 2.12619019 86.76673889 C1.21783445 79.40287183 1.21783445 79.40287183 -2.69580078 73.33081055 C-3.35563965 72.85426025 -4.01547852 72.37770996 -4.6953125 71.88671875 C-5.41074219 71.36142578 -6.12617187 70.83613281 -6.86328125 70.29492188 C-7.60964844 69.76447266 -8.35601562 69.23402344 -9.125 68.6875 C-9.87910156 68.13771484 -10.63320313 67.58792969 -11.41015625 67.02148438 C-13.26624399 65.67053444 -15.12935517 64.33068126 -17 63 C-15.52587847 57.22381088 -14.05081141 51.44786425 -12.57495117 45.67211914 C-12.0753564 43.71645275 -11.57599871 41.76072578 -11.0769043 39.80493164 C-9.39167008 33.20146102 -7.69861908 26.60003955 -6 20 C-5.7600531 19.0648053 -5.5201062 18.1296106 -5.27288818 17.16607666 C-4.58540224 14.49124525 -3.89308683 11.81771322 -3.19921875 9.14453125 C-2.99158401 8.33433029 -2.78394928 7.52412933 -2.57002258 6.68937683 C-1.11471448 1.11471448 -1.11471448 1.11471448 0 0 Z " fill="#8D8D8D" transform="translate(45,315)"/>
<path d="M0 0 C0.66 0 1.32 0 2 0 C4.79049125 7.61715349 7.56455642 15.24000117 10.31780434 22.87068558 C11.59674583 26.41368628 12.8812655 29.95445182 14.17871094 33.49072266 C15.43043543 36.90301756 16.66727117 40.32037156 17.89393234 43.74175262 C18.36470742 45.04662244 18.84083108 46.34957526 19.32234573 47.65052032 C19.99542968 49.4718278 20.64786066 51.30072773 21.29931641 53.12988281 C21.67682037 54.16912903 22.05432434 55.20837524 22.44326782 56.27911377 C23 59 23 59 22.50941467 61.06201172 C20.74459135 63.32792776 18.64826061 64.81336868 16.34254742 66.49888992 C10.51214945 70.98444472 7.32079338 74.98757541 6.16506481 82.35037613 C5.66051064 87.21419263 5.40453134 92.06877424 5.19921875 96.953125 C5.06615495 99.0662379 4.92770304 101.17901772 4.78413391 103.29144287 C4.4232226 108.81295322 4.13498095 114.3358839 3.86242676 119.86236572 C3.57046824 125.5164388 3.20895223 131.16603181 2.85351562 136.81640625 C2.16806667 147.87461619 1.56591598 158.93502828 1 170 C-5.6 170 -12.2 170 -19 170 C-19 164.06977147 -18.97733335 158.44959728 -18.54101562 152.58520508 C-18.46786385 151.580401 -18.46786385 151.580401 -18.39323425 150.55529785 C-18.28839975 149.1208389 -18.18196164 147.68649636 -18.07402039 146.25226784 C-17.9022779 143.96666938 -17.73549598 141.68075401 -17.56994629 139.3946991 C-17.098824 132.90154615 -16.6187346 126.4090641 -16.13623047 119.91674805 C-15.8398626 115.92439067 -15.5489009 111.93166582 -15.26091003 107.93869591 C-15.15137361 106.43537851 -15.03980443 104.93220753 -14.92597961 103.42920876 C-14.35389371 95.87417432 -13.88115541 88.32241574 -13.75170898 80.74536133 C-13.72817856 79.55638748 -13.70464813 78.36741364 -13.68040466 77.14241028 C-14.20591929 71.97530561 -16.84066357 69.25499594 -20.5625 65.875 C-21.80534584 64.67676914 -23.03649486 63.46625142 -24.25390625 62.2421875 C-24.80377197 61.7354248 -25.3536377 61.22866211 -25.92016602 60.70654297 C-27 59 -27 59 -26.84277344 56.66943359 C-25.88490752 53.63545156 -24.66311443 50.90467566 -23.26171875 48.046875 C-22.69404785 46.88115967 -22.12637695 45.71544434 -21.54150391 44.5144043 C-20.92356198 43.25957362 -20.30555938 42.00477283 -19.6875 40.75 C-19.05845355 39.46230227 -18.43004242 38.174294 -17.80224609 36.88598633 C-16.5123019 34.2395532 -15.21997337 31.59430404 -13.92626953 28.94970703 C-10.96019837 22.87783345 -8.04372764 16.78224131 -5.125 10.6875 C-4.12767304 8.60803989 -3.13028413 6.52860948 -2.1328125 4.44921875 C-1.42182438 2.9661701 -0.71086536 1.4831075 0 0 Z " fill="#8E8E8E" transform="translate(130,323)"/>
<path d="M0 0 C3.12822094 3.03087521 5.26243088 5.86183385 7.3984375 9.671875 C8.03628174 10.80036865 8.67412598 11.9288623 9.33129883 13.09155273 C9.6646524 13.68829803 9.99800598 14.28504333 10.34146118 14.89987183 C11.74298802 17.40873192 13.15852649 19.9095808 14.57350159 22.41087341 C15.30063588 23.69641498 16.02706115 24.98235784 16.75279236 26.26869202 C20.3802567 32.69298922 24.08733055 39.06933323 27.8125 45.4375 C28.39241699 46.43040039 28.97233398 47.42330078 29.56982422 48.44628906 C32.54081151 53.58846918 32.54081151 53.58846918 35.79956055 58.54711914 C37 61 37 61 36.359375 63.08032227 C35.91078125 63.71381592 35.4621875 64.34730957 35 65 C34.57203125 65.60835693 34.1440625 66.21671387 33.703125 66.84350586 C33.22359375 67.46104736 32.7440625 68.07858887 32.25 68.71484375 C31.7240625 69.40126953 31.198125 70.08769531 30.65625 70.79492188 C29.5539725 72.2208634 28.44981037 73.6453501 27.34375 75.06835938 C26.8178125 75.75607422 26.291875 76.44378906 25.75 77.15234375 C25.27046875 77.77101318 24.7909375 78.38968262 24.296875 79.02709961 C21.69312499 82.98811313 20.70182749 86.1953982 21.23193359 90.91040039 C21.33218842 91.85810806 21.43244324 92.80581573 21.53573608 93.78224182 C21.65542755 94.79382858 21.77511902 95.80541534 21.8984375 96.84765625 C22.01224762 97.89650497 22.12605774 98.9453537 22.24331665 100.02598572 C22.60879911 103.37291026 22.99135364 106.71761339 23.375 110.0625 C23.7479132 113.41127018 24.11734639 116.76040307 24.48526001 120.10972595 C24.71526641 122.19246383 24.9488473 124.27481073 25.18637085 126.35670471 C25.29292999 127.30126022 25.39948914 128.24581573 25.50927734 129.21899414 C25.60413422 130.04774551 25.69899109 130.87649689 25.79672241 131.73036194 C25.98325182 133.813003 26 135.90902247 26 138 C19.4 138 12.8 138 6 138 C5.88108398 136.41131104 5.76216797 134.82262207 5.63964844 133.18579102 C5.18115646 127.25934822 4.64929857 121.34134865 4.09570312 115.4230957 C3.86682977 112.86718156 3.6575545 110.30943015 3.46875 107.75024414 C3.16466952 93.10687884 3.16466952 93.10687884 -2.76269531 80.37670898 C-5.57540646 78.01680686 -8.65064946 76.4958483 -12 75 C-13.44069671 74.01337032 -14.86245021 72.9975711 -16.25 71.9375 C-17.61125 70.9784375 -17.61125 70.9784375 -19 70 C-17.54844707 61.81165803 -15.37662944 53.88704937 -13.0859375 45.8984375 C-12.70731215 44.56761163 -12.3290325 43.23668737 -11.95108032 41.90567017 C-10.96485699 38.43600634 -9.97400452 34.96768186 -8.9821167 31.49963379 C-7.96699915 27.94718161 -6.95635549 24.39345726 -5.9453125 20.83984375 C-3.96786947 13.89199043 -1.98552462 6.94554866 0 0 Z " fill="#8E8E8E" transform="translate(267,355)"/>
<path d="M0 0 C2.70057066 2.43031153 4.32877168 5.05677674 6.1171875 8.20703125 C6.71797119 9.25826172 7.31875488 10.30949219 7.93774414 11.39257812 C8.57703857 12.52115234 9.21633301 13.64972656 9.875 14.8125 C11.2229681 17.17449 12.57448241 19.53444561 13.92578125 21.89453125 C14.26651169 22.49065216 14.60724213 23.08677307 14.95829773 23.70095825 C18.27501347 29.49769461 21.65841344 35.25416258 25.0625 41 C25.57345215 41.86343018 26.0844043 42.72686035 26.61083984 43.61645508 C27.10148926 44.4442749 27.59213867 45.27209473 28.09765625 46.125 C28.56703613 46.92421875 29.03641602 47.7234375 29.52001953 48.546875 C30.56980129 50.28692896 31.65839973 52.0038284 32.77294922 53.703125 C33.34158691 54.58484375 33.91022461 55.4665625 34.49609375 56.375 C35.02259521 57.16648437 35.54909668 57.95796875 36.09155273 58.7734375 C37 61 37 61 36.33056641 63.0480957 C34.9901884 65.01439335 33.64975075 66.95661403 32.21484375 68.85546875 C31.68439453 69.55994141 31.15394531 70.26441406 30.60742188 70.99023438 C30.05634766 71.71533203 29.50527344 72.44042969 28.9375 73.1875 C28.38255859 73.92419922 27.82761719 74.66089844 27.25585938 75.41992188 C23.16870301 80.83129699 23.16870301 80.83129699 22 82 C22.21421602 93.2404206 23.95105362 104.49683141 25.34594727 115.63916016 C25.62141802 117.85010612 25.89102614 120.06171209 26.16015625 122.2734375 C26.32136963 123.56685059 26.48258301 124.86026367 26.64868164 126.19287109 C27.01048884 130.11366435 27 134.06254852 27 138 C20.73 138 14.46 138 8 138 C6.53692682 131.3028656 5.67690197 124.90745378 5.30859375 118.07421875 C5.09755235 115.24470368 4.87262399 112.4164994 4.64672852 109.58813477 C4.50775429 107.66146872 4.39491321 105.73273159 4.30883789 103.80297852 C3.82353478 91.11050882 3.82353478 91.11050882 -2.90185547 80.85400391 C-6.45814215 77.97912989 -10.19817278 75.48150357 -14.15342712 73.18977356 C-16.04164027 71.97317057 -17.47444971 70.64060508 -19 69 C-16.67289672 60.29814619 -14.34348021 51.59691595 -12.01108646 42.89647865 C-10.92820264 38.85674683 -9.84612481 34.81680267 -8.76586914 30.77636719 C-7.72384755 26.87905463 -6.67973475 22.98230793 -5.63415337 19.08594894 C-5.23509212 17.59736577 -4.83679209 16.10857832 -4.43925667 14.61958694 C-3.88345876 12.53833009 -3.32498859 10.457808 -2.76586914 8.37744141 C-2.28954796 6.59873154 -2.28954796 6.59873154 -1.80360413 4.78408813 C-1 2 -1 2 0 0 Z " fill="#8E8E8E" transform="translate(411,355)"/>
<path d="M0 0 C3.77702297 2.63513231 6.60374735 5.7074947 8.6875 9.875 C8.83601844 11.80859586 8.90880833 13.74842097 8.9375 15.6875 C8.96328125 16.72519531 8.9890625 17.76289062 9.015625 18.83203125 C8.47042736 23.88809031 6.00927443 26.94018798 2.1875 30.125 C1.5996875 30.62515625 1.011875 31.1253125 0.40625 31.640625 C-3.42655236 34.39327397 -7.78003105 34.45670725 -12.3125 33.875 C-18.67255259 31.75881614 -22.42814876 28.45526736 -25.5625 22.5 C-26.91589109 17.76313117 -26.65233396 14.01444328 -25.25 9.3125 C-19.77778593 -0.39626689 -10.54681149 -3.58193598 0 0 Z " fill="#8E8E8E" transform="translate(471.3125,20.125)"/>
</svg>
