<?xml version="1.0" encoding="UTF-8"?>
<svg xmlns="http://www.w3.org/2000/svg" xmlns:xlink="http://www.w3.org/1999/xlink" width="200px" height="px" viewBox="0 0 200 200" version="1.1">
<g id="surface1">
<path style=" stroke:none;fill-rule:nonzero;fill:rgb(55.686277%,55.686277%,55.686277%);fill-opacity:1;" d="M 115.460938 60.273438 C 118.597656 75.820312 117.785156 91.769531 114.675781 107.242188 C 114.609375 107.582031 114.542969 107.921875 114.472656 108.273438 C 110.773438 126.148438 102.496094 143.105469 94.324219 159.296875 C 92.691406 158.953125 91.542969 158.140625 90.214844 157.167969 C 89.972656 156.992188 89.734375 156.816406 89.484375 156.636719 C 87.335938 155.066406 85.289062 153.386719 83.269531 151.652344 C 82.742188 151.210938 82.207031 150.78125 81.671875 150.355469 C 78.804688 148.078125 76.207031 145.605469 73.632812 143.007812 C 72.945312 142.320312 72.257812 141.632812 71.566406 140.949219 C 68.925781 138.3125 66.496094 135.613281 64.1875 132.679688 C 63.789062 132.195312 63.386719 131.707031 62.980469 131.222656 C 58.535156 125.816406 54.757812 119.957031 51.273438 113.894531 C 51.097656 113.59375 50.921875 113.292969 50.742188 112.984375 C 44.582031 102.398438 36.398438 86.472656 36.398438 73.972656 C 37.617188 73.613281 38.832031 73.257812 40.046875 72.898438 C 41.136719 72.578125 42.226562 72.257812 43.3125 71.9375 C 46.039062 71.132812 48.765625 70.332031 51.496094 69.542969 C 53.042969 69.09375 54.589844 68.644531 56.136719 68.195312 C 56.59375 68.0625 56.59375 68.0625 57.0625 67.925781 C 60.519531 66.917969 63.941406 65.863281 67.320312 64.621094 C 82.464844 59.171875 99.546875 60.234375 115.460938 60.273438 Z M 115.460938 60.273438 "/>
<path style=" stroke:none;fill-rule:nonzero;fill:rgb(55.686277%,55.686277%,55.686277%);fill-opacity:1;" d="M 64.851562 12.945312 C 65.84375 13.816406 66.785156 14.714844 67.710938 15.65625 C 68.121094 16.058594 68.121094 16.058594 68.539062 16.472656 C 75.382812 23.632812 77.40625 33.527344 77.230469 43.109375 C 77.105469 46.308594 76.523438 49.398438 75.539062 52.445312 C 75.453125 52.75 75.371094 53.058594 75.285156 53.371094 C 74.796875 54.8125 74.410156 55.710938 73.070312 56.496094 C 71.953125 56.917969 70.847656 57.238281 69.691406 57.535156 C 69.109375 57.703125 69.109375 57.703125 68.519531 57.871094 C 66.824219 58.351562 65.132812 58.769531 63.40625 59.101562 C 63.914062 57.730469 64.523438 56.558594 65.3125 55.332031 C 69.542969 48.398438 69.945312 40.457031 68.1875 32.703125 C 66.683594 27.316406 63.855469 21.710938 58.941406 18.707031 C 55.152344 16.59375 51.871094 16.015625 47.644531 16.914062 C 41.832031 18.585938 38.464844 22.738281 35.597656 27.839844 C 32.269531 34.390625 32.257812 42.9375 34.320312 49.867188 C 35.898438 54.191406 38.039062 57.566406 40.957031 61.070312 C 41.691406 61.996094 42.167969 62.746094 42.660156 63.796875 C 42.425781 63.832031 42.1875 63.871094 41.945312 63.910156 C 34.695312 64.878906 34.695312 64.878906 28.304688 68.164062 C 27.398438 68.882812 27.398438 68.882812 26.613281 68.882812 C 26.511719 69.113281 26.40625 69.339844 26.300781 69.574219 C 25.8125 70.484375 25.253906 71.179688 24.585938 71.964844 C 16.40625 82.375 15.761719 97.695312 15.238281 110.394531 C 15.207031 111.140625 15.175781 111.882812 15.140625 112.628906 C 15.0625 114.421875 14.988281 116.21875 14.914062 118.015625 C 14.855469 119.398438 14.796875 120.78125 14.738281 122.164062 C 14.648438 124.234375 14.566406 126.304688 14.480469 128.375 C 19.519531 128.375 24.554688 128.375 29.746094 128.375 C 30.664062 140.359375 31.488281 152.347656 32.269531 164.339844 C 32.457031 167.164062 32.640625 169.988281 32.828125 172.8125 C 33.105469 177.046875 33.382812 181.285156 33.660156 185.519531 C 50.320312 185.710938 50.320312 185.710938 67.320312 185.910156 C 67.449219 183.070312 67.578125 180.226562 67.710938 177.300781 C 67.851562 175.128906 68 172.960938 68.164062 170.792969 C 68.207031 170.21875 68.246094 169.648438 68.289062 169.078125 C 68.378906 167.902344 68.464844 166.726562 68.554688 165.554688 C 68.667969 164.050781 68.78125 162.550781 68.890625 161.046875 C 68.976562 159.878906 69.0625 158.710938 69.152344 157.539062 C 69.195312 156.984375 69.234375 156.429688 69.277344 155.875 C 69.332031 155.105469 69.390625 154.339844 69.449219 153.570312 C 69.480469 153.132812 69.515625 152.699219 69.546875 152.25 C 69.65625 151.183594 69.828125 150.164062 70.058594 149.121094 C 70.679688 149.640625 71.292969 150.167969 71.902344 150.703125 C 72.5625 151.265625 73.246094 151.800781 73.9375 152.316406 C 74.328125 152.625 74.71875 152.933594 75.121094 153.253906 C 75.496094 153.535156 75.871094 153.820312 76.257812 154.109375 C 78.484375 157.457031 76.902344 163.90625 76.605469 167.859375 C 76.550781 168.5625 76.5 169.261719 76.449219 169.960938 C 76.339844 171.417969 76.230469 172.875 76.121094 174.332031 C 75.980469 176.203125 75.84375 178.070312 75.707031 179.9375 C 75.601562 181.378906 75.492188 182.824219 75.382812 184.265625 C 75.332031 184.953125 75.28125 185.644531 75.230469 186.332031 C 75.160156 187.292969 75.089844 188.25 75.015625 189.210938 C 74.984375 189.636719 74.984375 189.636719 74.953125 190.070312 C 74.863281 191.238281 74.734375 192.230469 74.363281 193.347656 C 58.476562 193.347656 42.589844 193.347656 26.222656 193.347656 C 24.871094 175.789062 24.871094 175.789062 24.335938 167.515625 C 24.273438 166.609375 24.214844 165.699219 24.15625 164.792969 C 24.003906 162.460938 23.851562 160.132812 23.699219 157.800781 C 23.542969 155.402344 23.382812 153 23.226562 150.597656 C 22.917969 145.929688 22.613281 141.261719 22.308594 136.59375 C 17.273438 136.464844 12.234375 136.335938 7.046875 136.203125 C 7.011719 129.984375 7.011719 129.984375 7.007812 127.257812 C 7.003906 125.425781 6.996094 123.589844 6.984375 121.757812 C 6.929688 111.988281 7.132812 102.28125 8.707031 92.613281 C 8.769531 92.226562 8.769531 92.226562 8.832031 91.828125 C 10.707031 80.164062 14.351562 68.878906 23.972656 61.421875 C 25.582031 60.265625 27.085938 59.347656 28.960938 58.707031 C 28.457031 57.128906 27.867188 55.613281 27.226562 54.085938 C 23.636719 44.6875 24.160156 33.792969 28.207031 24.628906 C 31.714844 17.324219 37.398438 11.867188 45.03125 9.101562 C 51.679688 7.222656 59.429688 8.777344 64.851562 12.945312 Z M 64.851562 12.945312 "/>
<path style=" stroke:none;fill-rule:nonzero;fill:rgb(55.686277%,55.686277%,55.686277%);fill-opacity:1;" d="M 116.242188 144.421875 C 118.769531 144.664062 121.082031 145.238281 123.511719 145.957031 C 123.910156 146.074219 124.3125 146.1875 124.722656 146.308594 C 126.03125 146.6875 127.339844 147.070312 128.644531 147.457031 C 130.492188 147.996094 132.34375 148.539062 134.191406 149.078125 C 134.65625 149.214844 135.125 149.351562 135.605469 149.492188 C 138.554688 150.355469 141.511719 151.175781 144.476562 151.972656 C 153.195312 154.328125 161.246094 157.234375 169.351562 161.222656 C 172.125 162.585938 174.9375 163.84375 177.765625 165.09375 C 182.980469 167.417969 188.164062 169.808594 193.347656 172.210938 C 193.347656 179.1875 193.347656 186.160156 193.347656 193.347656 C 186.972656 193.566406 186.972656 193.566406 184.210938 193.613281 C 182.339844 193.644531 180.472656 193.683594 178.605469 193.757812 C 166.621094 194.230469 166.621094 194.230469 162.714844 190.726562 C 162.011719 190.027344 161.347656 189.3125 160.699219 188.558594 C 159.699219 187.445312 158.546875 186.53125 157.386719 185.59375 C 156.972656 185.242188 156.5625 184.890625 156.148438 184.539062 C 154.742188 183.351562 153.316406 182.183594 151.886719 181.019531 C 147.914062 177.777344 143.957031 174.515625 140.050781 171.195312 C 139.285156 170.546875 138.511719 169.910156 137.730469 169.28125 C 136.648438 168.34375 135.808594 167.414062 134.929688 166.292969 C 133.707031 164.757812 132.445312 163.28125 131.117188 161.839844 C 129.839844 160.457031 128.625 159.050781 127.445312 157.582031 C 126.121094 155.9375 124.730469 154.378906 123.289062 152.835938 C 120.78125 150.15625 118.429688 147.371094 116.242188 144.421875 Z M 116.242188 144.421875 "/>
<path style=" stroke:none;fill-rule:nonzero;fill:rgb(55.686277%,55.686277%,55.686277%);fill-opacity:1;" d="M 118.980469 122.503906 C 125.996094 122.398438 133.007812 122.324219 140.019531 122.285156 C 140.277344 122.285156 140.535156 122.28125 140.804688 122.28125 C 154.085938 122.207031 167.226562 122.257812 180.382812 124.242188 C 180.65625 124.28125 180.929688 124.324219 181.214844 124.367188 C 184.15625 124.8125 187.085938 125.300781 190.011719 125.847656 C 191.121094 126.050781 192.234375 126.234375 193.347656 126.417969 C 193.347656 139.078125 193.347656 151.734375 193.347656 164.773438 C 187.957031 162.527344 187.957031 162.527344 185.46875 161.382812 C 185.195312 161.253906 184.917969 161.128906 184.632812 160.996094 C 184.050781 160.730469 183.46875 160.460938 182.886719 160.195312 C 181.367188 159.496094 179.847656 158.796875 178.324219 158.101562 C 178.027344 157.964844 177.730469 157.828125 177.425781 157.6875 C 175.179688 156.660156 172.925781 155.636719 170.671875 154.625 C 170.371094 154.488281 170.074219 154.355469 169.765625 154.214844 C 168.222656 153.519531 166.675781 152.839844 165.121094 152.175781 C 161.199219 150.488281 157.722656 148.605469 154.234375 146.152344 C 152.660156 145.074219 151.03125 144.070312 149.414062 143.054688 C 146.035156 140.917969 142.703125 138.722656 139.382812 136.496094 C 136.617188 134.644531 133.851562 132.789062 131.019531 131.042969 C 128.355469 129.398438 125.71875 127.722656 123.09375 126.027344 C 122.6875 125.769531 122.28125 125.511719 121.863281 125.246094 C 121.488281 125.003906 121.117188 124.761719 120.730469 124.511719 C 120.394531 124.292969 120.058594 124.078125 119.710938 123.851562 C 119.46875 123.667969 119.230469 123.480469 118.980469 123.289062 C 118.980469 123.03125 118.980469 122.769531 118.980469 122.503906 Z M 118.980469 122.503906 "/>
<path style=" stroke:none;fill-rule:nonzero;fill:rgb(55.686277%,55.686277%,55.686277%);fill-opacity:1;" d="M 193.347656 84.148438 C 193.347656 95.773438 193.347656 107.398438 193.347656 119.375 C 187.171875 118.933594 187.171875 118.933594 184.914062 118.664062 C 184.40625 118.605469 183.894531 118.542969 183.371094 118.480469 C 181.054688 118.199219 178.742188 117.910156 176.429688 117.621094 C 175.222656 117.46875 174.015625 117.320312 172.808594 117.179688 C 165.753906 116.351562 159.183594 115.289062 152.511719 112.726562 C 151.144531 112.207031 149.765625 111.722656 148.386719 111.242188 C 146.726562 110.660156 145.074219 110.0625 143.417969 109.464844 C 142.359375 109.085938 141.296875 108.703125 140.234375 108.324219 C 139.523438 108.070312 138.816406 107.816406 138.109375 107.5625 C 134.722656 106.347656 131.328125 105.140625 127.933594 103.9375 C 127.414062 103.753906 126.894531 103.570312 126.375 103.386719 C 125.214844 102.972656 124.054688 102.5625 122.894531 102.152344 C 122.894531 101.765625 122.894531 101.378906 122.894531 100.976562 C 123.445312 100.800781 123.445312 100.800781 124.003906 100.621094 C 130.605469 98.492188 137.203125 96.351562 143.785156 94.15625 C 144.671875 93.859375 145.558594 93.566406 146.449219 93.269531 C 149.046875 92.410156 151.636719 91.53125 154.203125 90.574219 C 160.808594 88.152344 167.273438 87.140625 174.21875 86.332031 C 176.230469 86.097656 178.238281 85.828125 180.25 85.554688 C 180.929688 85.460938 181.613281 85.367188 182.296875 85.277344 C 182.628906 85.230469 182.960938 85.1875 183.304688 85.140625 C 183.632812 85.09375 183.957031 85.050781 184.296875 85.003906 C 184.777344 84.9375 184.777344 84.9375 185.269531 84.871094 C 186.183594 84.75 187.097656 84.628906 188.011719 84.507812 C 188.277344 84.472656 188.546875 84.433594 188.824219 84.398438 C 190.367188 84.195312 191.777344 84.148438 193.347656 84.148438 Z M 193.347656 84.148438 "/>
<path style=" stroke:none;fill-rule:nonzero;fill:rgb(55.686277%,55.686277%,55.686277%);fill-opacity:1;" d="M 187.085938 8.21875 C 189.152344 8.21875 191.21875 8.21875 193.347656 8.21875 C 193.347656 18.9375 193.347656 29.660156 193.347656 40.703125 C 187.945312 42.953125 187.945312 42.953125 185.429688 43.917969 C 185 44.082031 185 44.082031 184.558594 44.25 C 183.621094 44.609375 182.6875 44.96875 181.75 45.328125 C 181.085938 45.582031 180.421875 45.839844 179.757812 46.09375 C 174.054688 48.28125 168.347656 50.457031 162.636719 52.625 C 162.152344 52.808594 162.152344 52.808594 161.660156 52.996094 C 161.019531 53.242188 160.375 53.484375 159.734375 53.726562 C 158.226562 54.300781 156.722656 54.882812 155.230469 55.496094 C 150.429688 57.457031 145.523438 58.816406 140.507812 60.128906 C 139.292969 60.449219 138.074219 60.773438 136.859375 61.097656 C 136.070312 61.308594 135.28125 61.515625 134.492188 61.722656 C 132.65625 62.207031 130.824219 62.699219 129 63.226562 C 128.675781 63.320312 128.347656 63.414062 128.011719 63.511719 C 127.40625 63.6875 126.804688 63.863281 126.199219 64.042969 C 124.199219 64.621094 124.199219 64.621094 122.894531 64.1875 C 126.117188 61.179688 129.339844 58.191406 132.707031 55.34375 C 135.480469 52.992188 138.175781 50.582031 140.824219 48.089844 C 142.277344 46.722656 143.742188 45.382812 145.253906 44.082031 C 146.144531 43.308594 147.019531 42.519531 147.894531 41.730469 C 148.226562 41.433594 148.558594 41.132812 148.902344 40.828125 C 149.546875 40.242188 150.191406 39.65625 150.828125 39.066406 C 152.875 37.1875 154.992188 35.449219 157.183594 33.75 C 158.800781 32.492188 160.378906 31.199219 161.9375 29.867188 C 164.023438 28.085938 166.144531 26.359375 168.296875 24.65625 C 170.644531 22.789062 172.976562 20.90625 175.296875 19.003906 C 176.472656 18.039062 177.652344 17.078125 178.832031 16.121094 C 179.375 15.683594 179.914062 15.242188 180.453125 14.800781 C 181.675781 13.808594 182.898438 12.820312 184.136719 11.847656 C 184.722656 11.382812 184.722656 11.382812 185.324219 10.910156 C 185.835938 10.507812 185.835938 10.507812 186.363281 10.101562 C 186.601562 9.867188 186.839844 9.632812 187.085938 9.394531 C 187.085938 9.007812 187.085938 8.617188 187.085938 8.21875 Z M 187.085938 8.21875 "/>
<path style=" stroke:none;fill-rule:nonzero;fill:rgb(55.686277%,55.686277%,55.686277%);fill-opacity:1;" d="M 193.347656 48.140625 C 193.347656 57.699219 193.347656 67.257812 193.347656 77.105469 C 184.710938 78.46875 184.710938 78.46875 180.726562 78.992188 C 180.277344 79.050781 179.832031 79.109375 179.371094 79.171875 C 178.4375 79.292969 177.507812 79.414062 176.578125 79.535156 C 175.164062 79.722656 173.75 79.910156 172.335938 80.101562 C 171.421875 80.222656 170.507812 80.339844 169.59375 80.460938 C 169.179688 80.515625 168.765625 80.570312 168.339844 80.628906 C 162.878906 81.328125 157.472656 80.90625 152 80.589844 C 151.226562 80.546875 150.453125 80.5 149.675781 80.457031 C 147.652344 80.34375 145.632812 80.226562 143.609375 80.109375 C 141.539062 79.992188 139.46875 79.875 137.398438 79.757812 C 133.347656 79.527344 129.296875 79.292969 125.246094 79.0625 C 125.117188 78.800781 124.984375 78.542969 124.851562 78.277344 C 125.082031 78.160156 125.308594 78.042969 125.542969 77.921875 C 129.769531 75.730469 133.988281 73.523438 138.160156 71.234375 C 141.164062 69.585938 144.179688 67.960938 147.210938 66.363281 C 147.566406 66.175781 147.925781 65.984375 148.292969 65.789062 C 153.164062 63.242188 158.335938 61.363281 163.453125 59.367188 C 163.796875 59.234375 164.140625 59.101562 164.492188 58.964844 C 170.742188 56.527344 177.003906 54.128906 183.273438 51.753906 C 183.929688 51.503906 184.582031 51.257812 185.234375 51.007812 C 185.542969 50.894531 185.847656 50.777344 186.164062 50.65625 C 188.085938 49.925781 189.996094 49.175781 191.894531 48.382812 C 192.5625 48.140625 192.5625 48.140625 193.347656 48.140625 Z M 193.347656 48.140625 "/>
<path style=" stroke:none;fill-rule:nonzero;fill:rgb(55.686277%,55.686277%,55.686277%);fill-opacity:1;" d="M 138.550781 8.21875 C 151.339844 8.21875 164.125 8.21875 177.300781 8.21875 C 177.300781 8.476562 177.300781 8.734375 177.300781 9.003906 C 176.507812 9.675781 175.707031 10.308594 174.878906 10.933594 C 172.9375 12.425781 171.035156 13.941406 169.179688 15.535156 C 167.40625 17.046875 165.609375 18.527344 163.78125 19.976562 C 162.007812 21.386719 160.261719 22.828125 158.511719 24.265625 C 155.820312 26.472656 153.125 28.667969 150.421875 30.859375 C 148.746094 32.222656 147.078125 33.589844 145.414062 34.96875 C 144.300781 35.886719 143.183594 36.800781 142.070312 37.71875 C 141.574219 38.121094 141.082031 38.53125 140.59375 38.941406 C 137.265625 41.71875 133.757812 43.96875 130.019531 46.15625 C 127.960938 47.363281 125.9375 48.625 123.921875 49.902344 C 123.617188 50.09375 123.316406 50.289062 123 50.484375 C 121.722656 51.296875 120.457031 52.113281 119.210938 52.972656 C 118.199219 53.621094 118.199219 53.621094 117.417969 53.621094 C 118.945312 48.113281 121.21875 43.109375 123.800781 38.039062 C 124.085938 37.472656 124.371094 36.910156 124.65625 36.34375 C 125.222656 35.21875 125.792969 34.097656 126.359375 32.972656 C 128.695312 28.359375 130.984375 23.726562 133.203125 19.054688 C 134.941406 15.417969 136.746094 11.828125 138.550781 8.21875 Z M 138.550781 8.21875 "/>
<path style=" stroke:none;fill-rule:nonzero;fill:rgb(55.686277%,55.686277%,55.686277%);fill-opacity:1;" d="M 103.71875 8.21875 C 112.628906 8.21875 121.542969 8.21875 130.722656 8.21875 C 130.410156 9.792969 130.136719 10.710938 129.441406 12.089844 C 129.253906 12.460938 129.066406 12.828125 128.875 13.210938 C 128.675781 13.609375 128.472656 14.003906 128.265625 14.414062 C 127.949219 15.039062 127.949219 15.039062 127.628906 15.675781 C 126.960938 17.007812 126.285156 18.335938 125.613281 19.667969 C 124.734375 21.40625 123.855469 23.144531 122.980469 24.882812 C 122.769531 25.304688 122.554688 25.726562 122.335938 26.160156 C 120.984375 28.84375 119.671875 31.542969 118.441406 34.285156 C 117.25 36.894531 115.652344 39.199219 114.011719 41.539062 C 113.316406 42.539062 112.644531 43.554688 111.972656 44.570312 C 110.671875 46.539062 109.359375 48.496094 108.023438 50.441406 C 107.8125 50.746094 107.605469 51.050781 107.386719 51.367188 C 106.847656 52.054688 106.847656 52.054688 106.066406 52.445312 C 105.757812 47.199219 105.453125 41.953125 105.148438 36.707031 C 105.007812 34.269531 104.863281 31.835938 104.722656 29.398438 C 104.582031 27.046875 104.445312 24.691406 104.308594 22.339844 C 104.257812 21.445312 104.207031 20.546875 104.152344 19.652344 C 104.078125 18.394531 104.007812 17.136719 103.933594 15.878906 C 103.910156 15.511719 103.890625 15.140625 103.867188 14.761719 C 103.847656 14.414062 103.828125 14.070312 103.808594 13.710938 C 103.789062 13.414062 103.773438 13.117188 103.753906 12.8125 C 103.703125 11.28125 103.71875 9.75 103.71875 8.21875 Z M 103.71875 8.21875 "/>
<path style=" stroke:none;fill-rule:nonzero;fill:rgb(55.686277%,55.686277%,55.686277%);fill-opacity:1;" d="M 106.457031 159.6875 C 111.664062 162.253906 116.824219 164.914062 121.96875 167.609375 C 123.207031 168.253906 124.445312 168.890625 125.691406 169.53125 C 129.824219 171.679688 133.332031 173.957031 136.746094 177.125 C 137.8125 178.082031 138.953125 178.945312 140.09375 179.820312 C 142.332031 181.550781 144.480469 183.375 146.609375 185.242188 C 148.410156 186.816406 150.242188 188.339844 152.097656 189.847656 C 153.34375 190.859375 154.570312 191.886719 155.773438 192.953125 C 155.773438 193.085938 155.773438 193.214844 155.773438 193.347656 C 152.269531 193.457031 148.765625 193.539062 145.257812 193.589844 C 143.632812 193.613281 142.003906 193.648438 140.375 193.699219 C 138.804688 193.753906 137.230469 193.78125 135.65625 193.792969 C 135.058594 193.800781 134.460938 193.816406 133.863281 193.84375 C 129.328125 194.027344 129.328125 194.027344 127.75 192.898438 C 126.425781 191.640625 125.453125 190.179688 124.460938 188.648438 C 123.902344 187.90625 123.339844 187.160156 122.773438 186.421875 C 122.488281 186.039062 122.203125 185.652344 121.910156 185.253906 C 120.761719 183.707031 119.589844 182.179688 118.417969 180.652344 C 118.203125 180.363281 117.984375 180.078125 117.761719 179.785156 C 116.777344 178.496094 115.792969 177.21875 114.765625 175.964844 C 112.414062 173.0625 110.722656 170.097656 109.160156 166.71875 C 108.8125 165.960938 108.453125 165.210938 108.089844 164.460938 C 106.457031 161.03125 106.457031 161.03125 106.457031 159.6875 Z M 106.457031 159.6875 "/>
<path style=" stroke:none;fill-rule:nonzero;fill:rgb(55.686277%,55.686277%,55.686277%);fill-opacity:1;" d="M 97.457031 167.515625 C 99.476562 168.933594 101.25 170.453125 102.953125 172.238281 C 103.714844 173.023438 103.714844 173.023438 104.65625 173.699219 C 105.933594 174.78125 106.828125 175.996094 107.804688 177.347656 C 108.214844 177.910156 108.628906 178.472656 109.042969 179.03125 C 109.261719 179.324219 109.476562 179.617188 109.699219 179.917969 C 110.835938 181.445312 112.011719 182.941406 113.183594 184.441406 C 116.480469 188.667969 116.480469 188.667969 117.953125 190.605469 C 118.371094 191.152344 118.371094 191.152344 118.796875 191.707031 C 119.375 192.5625 119.375 192.5625 119.375 193.347656 C 111.753906 193.347656 104.132812 193.347656 96.28125 193.347656 C 96.28125 185.234375 96.28125 185.234375 96.4375 182.296875 C 96.457031 181.96875 96.472656 181.636719 96.488281 181.296875 C 96.523438 180.617188 96.558594 179.933594 96.59375 179.253906 C 96.648438 178.214844 96.699219 177.179688 96.75 176.140625 C 96.785156 175.472656 96.820312 174.800781 96.855469 174.128906 C 96.871094 173.824219 96.886719 173.519531 96.902344 173.207031 C 97.003906 171.292969 97.199219 169.414062 97.457031 167.515625 Z M 97.457031 167.515625 "/>
</g>
</svg>
