<?xml version="1.0" encoding="UTF-8"?>
<svg version="1.1" xmlns="http://www.w3.org/2000/svg" width="511" height="511">
<path d="M0 0 C8.01763646 39.723965 5.93793672 80.46714495 -2 120 C-2.17337891 120.87043945 -2.34675781 121.74087891 -2.52539062 122.63769531 C-11.97209187 168.30929675 -33.11905846 211.6383518 -54 253 C-58.17618054 252.12545734 -61.10333902 250.04723692 -64.5 247.5625 C-65.11657471 247.11656494 -65.73314941 246.67062988 -66.3684082 246.21118164 C-71.86147015 242.19243579 -77.08265449 237.90152495 -82.24609375 233.46679688 C-83.59044519 232.34251188 -84.95672137 231.24439845 -86.33203125 230.15820312 C-93.65170773 224.33767321 -100.28794899 218.02065722 -106.87109375 211.38964844 C-108.62281575 209.62719762 -110.38499428 207.87571432 -112.1484375 206.125 C-118.8907594 199.39096055 -125.10154556 192.49386329 -131 185 C-132.02378268 183.75617492 -133.05071191 182.51492696 -134.08203125 181.27734375 C-145.43801223 167.45937798 -155.09309917 152.490576 -164 137 C-164.44811035 136.23333008 -164.8962207 135.46666016 -165.35791016 134.67675781 C-181.08854826 107.62325431 -202 66.93551111 -202 35 C-198.89298963 34.08564001 -195.78595578 33.17136016 -192.67886353 32.25727844 C-189.89675856 31.43866618 -187.11495869 30.61902672 -184.33334351 29.79875183 C-177.3673565 27.74557363 -170.39960386 25.69925839 -163.42355061 23.68050671 C-159.47141813 22.53671318 -155.5205425 21.38862676 -151.5703125 20.23828125 C-150.39841401 19.89716151 -150.39841401 19.89716151 -149.20284081 19.54915047 C-140.37061084 16.97076323 -131.63079918 14.28440662 -122.9921875 11.10546875 C-84.29737912 -2.81624708 -40.65986554 -0.10002017 0 0 Z " fill="#8E8E8E" transform="translate(295,154)"/>
<path d="M0 0 C2.53506045 2.22448643 4.93234379 4.52522939 7.30078125 6.92578125 C8.34878906 7.95832031 8.34878906 7.95832031 9.41796875 9.01171875 C26.90218652 27.31232023 32.07067113 52.58433157 31.62109375 77.06640625 C31.30236114 85.24631721 29.82289837 93.14282345 27.30078125 100.92578125 C27.08671631 101.70598633 26.87265137 102.48619141 26.65209961 103.29003906 C25.40990226 106.96823381 24.41970333 109.26941971 20.99755859 111.27685547 C18.14488997 112.3490989 15.31546855 113.17097152 12.36328125 113.92578125 C10.87924805 114.35310547 10.87924805 114.35310547 9.36523438 114.7890625 C5.03739073 116.01727368 0.71933055 117.07764173 -3.69921875 117.92578125 C-2.40011444 114.42438583 -0.84680462 111.43421739 1.17578125 108.30078125 C11.9823864 90.58849184 13.01211862 70.29277906 8.51953125 50.48046875 C4.67280394 36.71847017 -2.55219273 22.39892717 -15.1015625 14.72265625 C-24.78194292 9.31863749 -33.1718673 7.84114787 -43.96875 10.140625 C-58.81975439 14.41108549 -67.42588293 25.02026653 -74.74902344 38.05517578 C-83.25345062 54.79744738 -83.27703635 76.63471375 -78.01171875 94.33203125 C-73.97602575 105.38214303 -68.50455454 114.00492208 -61.0546875 122.96484375 C-59.17657352 125.32572335 -57.95907206 127.24449023 -56.69921875 129.92578125 C-57.30282227 130.02076904 -57.90642578 130.11575684 -58.52832031 130.21362305 C-77.05424898 132.68726288 -77.05424898 132.68726288 -93.3828125 141.08203125 C-95.69921875 142.92578125 -95.69921875 142.92578125 -97.69921875 142.92578125 C-97.96347656 143.50585938 -98.22773437 144.0859375 -98.5 144.68359375 C-99.74831077 147.01756893 -101.17449157 148.78685729 -102.88671875 150.80078125 C-123.7844409 177.38998283 -125.42860047 216.53940955 -126.76171875 248.98828125 C-126.84435348 250.88845111 -126.92752817 252.78859757 -127.01123047 254.6887207 C-127.21196341 259.27805132 -127.40576838 263.86763618 -127.59637451 268.45739746 C-127.74361137 271.99125686 -127.89537992 275.52491438 -128.046875 279.05859375 C-128.27298408 284.3473697 -128.48622369 289.63640397 -128.69921875 294.92578125 C-115.82921875 294.92578125 -102.95921875 294.92578125 -89.69921875 294.92578125 C-87.34800969 325.54214043 -85.25094745 356.16908405 -83.24829102 386.80993652 C-82.77604092 394.02795514 -82.30095513 401.24578766 -81.82637787 408.46365356 C-81.11522352 419.28422636 -80.40753611 430.10502071 -79.69921875 440.92578125 C-37.12921875 441.42078125 -37.12921875 441.42078125 6.30078125 441.92578125 C6.63078125 434.66578125 6.96078125 427.40578125 7.30078125 419.92578125 C7.66106966 414.37971006 8.03726079 408.83825283 8.45703125 403.296875 C8.56549431 401.83815372 8.67376593 400.3794182 8.78186035 398.92066956 C9.00502368 395.91871597 9.23040209 392.91694015 9.45751953 389.9152832 C9.74765002 386.07841334 10.03196327 382.24113667 10.3147049 378.40371609 C10.53549701 375.41554297 10.75926071 372.42759813 10.9839325 369.43971443 C11.09009163 368.0232528 11.19534238 366.60672276 11.29963684 365.1901226 C11.44478125 363.22474869 11.59436497 361.25970414 11.74414062 359.29467773 C11.82772827 358.1818895 11.91131592 357.06910126 11.99743652 355.92259216 C12.27307994 353.19944873 12.7097701 350.59612888 13.30078125 347.92578125 C14.88309524 349.26195751 16.4590764 350.60602018 18.01171875 351.9765625 C19.69560758 353.41045418 21.4403754 354.77360264 23.21484375 356.09375 C24.21257812 356.88394531 25.2103125 357.67414063 26.23828125 358.48828125 C27.19605469 359.21144531 28.15382812 359.93460937 29.140625 360.6796875 C34.83232115 369.23267033 30.78807247 385.70660526 30.0234375 395.80859375 C29.89100514 397.59884413 29.7588849 399.38911763 29.62705994 401.17941284 C29.35183909 404.90272111 29.07329511 408.62576079 28.79223633 412.34863281 C28.43209349 417.12188299 28.07978138 421.89567335 27.72982121 426.66967964 C27.45902991 430.35354047 27.18448305 434.03711377 26.90875053 437.72060776 C26.77729203 439.48201304 26.64693039 441.24350054 26.51768684 443.00506973 C26.33726179 445.45566671 26.15186431 447.90583706 25.96508789 450.35595703 C25.88632416 451.44525764 25.88632416 451.44525764 25.80596924 452.55656433 C25.57401447 455.53936433 25.25181099 458.07269202 24.30078125 460.92578125 C-16.28921875 460.92578125 -56.87921875 460.92578125 -98.69921875 460.92578125 C-102.15009486 416.06439184 -102.15009486 416.06439184 -103.5234375 394.9296875 C-103.67590209 392.60886918 -103.82856102 390.28806362 -103.98139954 387.9672699 C-104.37288954 382.01506723 -104.76183783 376.06270147 -105.15014648 370.11029053 C-105.55095186 363.97381133 -105.95431311 357.83750011 -106.35742188 351.70117188 C-107.14043985 339.77619904 -107.92051915 327.85103685 -108.69921875 315.92578125 C-121.56921875 315.59578125 -134.43921875 315.26578125 -147.69921875 314.92578125 C-147.77943637 299.03823622 -147.77943637 299.03823622 -147.796875 292.07226562 C-147.80866232 287.38658919 -147.82233143 282.70099345 -147.85009766 278.01538086 C-147.99380956 253.0524218 -147.47770856 228.25144037 -143.44921875 203.55078125 C-143.29114746 202.56023743 -143.29114746 202.56023743 -143.12988281 201.54968262 C-138.33808249 171.74845267 -129.03167018 142.91468111 -104.44921875 123.86328125 C-100.33444136 120.905785 -96.49311564 118.56006428 -91.69921875 116.92578125 C-92.99625489 112.89122182 -94.49415694 109.01756369 -96.13671875 105.11328125 C-105.30738249 81.10133625 -103.97142159 53.26631442 -93.62646484 29.85742188 C-84.6665516 11.19211551 -70.14384301 -2.75178377 -50.640625 -9.8203125 C-33.66234636 -14.61924116 -13.86023925 -10.65092191 0 0 Z " fill="#8E8E8E" transform="translate(165.69921875,33.07421875)"/>
<path d="M0 0 C6.45535656 0.61358218 12.36444152 2.08723071 18.57421875 3.921875 C19.59473328 4.2177652 20.6152478 4.5136554 21.66668701 4.81851196 C25.00889727 5.78915914 28.3483879 6.76875134 31.6875 7.75 C36.41098074 9.13444783 41.13502343 10.51696445 45.859375 11.8984375 C47.05118881 12.24762238 48.24300262 12.59680725 49.47093201 12.95657349 C57.00534631 15.15521313 64.55960898 17.25757877 72.140625 19.2890625 C94.41604806 25.30716856 114.98558779 32.73646483 135.69454956 42.9256134 C142.77775 46.40913059 149.96855937 49.62228336 157.1875 52.8125 C170.51691329 58.75230631 183.76087554 64.8611881 197 71 C197 88.82 197 106.64 197 125 C180.71136688 125.56152333 180.71136688 125.56152333 173.65820312 125.68359375 C168.88159996 125.76666134 164.10882199 125.86383646 159.33520508 126.05615234 C128.71933305 127.25738997 128.71933305 127.25738997 118.73828125 118.30859375 C116.93590265 116.51919288 115.23855966 114.69375254 113.58374023 112.76754761 C111.03344834 109.92127128 108.08735647 107.58781613 105.125 105.1875 C104.06832449 104.29401248 103.01359919 103.39821292 101.9609375 102.5 C98.36237344 99.46163457 94.72126055 96.47894992 91.0703125 93.50390625 C80.91734597 85.22394245 70.81152551 76.89079955 60.83203125 68.40234375 C58.87820188 66.74495746 56.89981244 65.11624278 54.90234375 63.51171875 C52.14160044 61.12254251 49.99390591 58.74411633 47.75 55.875 C44.61873258 51.95566191 41.40185569 48.18710446 38 44.5 C34.74492917 40.9644923 31.63363119 37.37221213 28.625 33.625 C25.23612844 29.42184127 21.68749744 25.43808717 18 21.5 C11.59285727 14.65358006 5.58814255 7.53789945 0 0 Z " fill="#8E8E8E" transform="translate(297,369)"/>
<path d="M0 0 C17.91599645 -0.27495395 35.83218018 -0.46063194 53.75 -0.5625 C54.41089536 -0.56634248 55.07179071 -0.57018497 55.7527132 -0.57414389 C89.69011925 -0.76527237 123.26049275 -0.6288317 156.875 4.4375 C157.57662766 4.54308605 158.27825531 4.6486721 159.00114441 4.75745773 C166.51439098 5.89928674 174.00672897 7.14382855 181.47750854 8.53807068 C184.31268592 9.05726037 187.15689363 9.52614894 190 10 C190 42.34 190 74.68 190 108 C176.22629943 102.2609581 176.22629943 102.2609581 169.875 99.328125 C169.16912247 99.00435379 168.46324493 98.68058258 167.73597717 98.34700012 C166.25010315 97.66525072 164.76463724 96.98261117 163.27957153 96.29910278 C159.39537854 94.51152226 155.50800851 92.7308712 151.62109375 90.94921875 C150.86348251 90.6017308 150.10587128 90.25424286 149.32530212 89.89622498 C143.58103817 87.26260485 137.82699992 84.65155403 132.0625 82.0625 C131.29977783 81.71791748 130.53705566 81.37333496 129.7512207 81.01831055 C125.81149695 79.24239054 121.85824586 77.50709373 117.8828125 75.8125 C107.86048433 71.50016373 98.98583817 66.68644137 90.07324219 60.42041016 C86.04378217 57.65976503 81.88475293 55.09895598 77.75 52.5 C69.11802383 47.04738751 60.60426891 41.43537925 52.125 35.75 C45.05701767 31.01191846 37.99335351 26.28029111 30.75 21.8125 C23.95203974 17.61567655 17.21381911 13.33026004 10.5 9 C9.46456055 8.3397583 8.42912109 7.6795166 7.36230469 6.99926758 C6.40743164 6.38075928 5.45255859 5.76225098 4.46875 5.125 C3.60701172 4.57070313 2.74527344 4.01640625 1.85742188 3.4453125 C1.24447266 2.96835937 0.63152344 2.49140625 0 2 C0 1.34 0 0.68 0 0 Z " fill="#8E8E8E" transform="translate(304,313)"/>
<path d="M0 0 C0 29.7 0 59.4 0 90 C-15.78066368 88.87280974 -15.78066368 88.87280974 -21.54248047 88.18725586 C-22.84539032 88.03296616 -24.14830017 87.87867645 -25.49069214 87.7197113 C-31.40147757 87.0001182 -37.31026249 86.26476108 -43.21777344 85.51879883 C-46.3032434 85.13057962 -49.38988746 84.75601747 -52.47851562 84.39379883 C-70.49404608 82.27495119 -87.28811598 79.56282329 -104.33081055 73.01815796 C-107.82335629 71.68593209 -111.34829829 70.45615711 -114.87680054 69.2230835 C-119.11486591 67.73769043 -123.33739283 66.2092679 -127.5625 64.6875 C-130.2763452 63.71353763 -132.99052824 62.7405205 -135.70471191 61.76750183 C-137.51366345 61.11890309 -139.3225027 60.46999109 -141.13122559 59.820755 C-149.78842226 56.71378177 -158.45538003 53.63460631 -167.125 50.5625 C-168.45386167 50.09140195 -169.78271924 49.62029235 -171.11157227 49.14916992 C-174.07424005 48.09904658 -177.03703571 47.04928637 -180 46 C-180 45.01 -180 44.02 -180 43 C-178.60152832 42.54898926 -178.60152832 42.54898926 -177.17480469 42.08886719 C-160.30573115 36.64564159 -143.44556382 31.17790874 -126.63220215 25.56460571 C-124.36427086 24.80892502 -122.09489373 24.05772766 -119.82519531 23.30737305 C-113.18127392 21.10539722 -106.5674625 18.86681822 -100.0078125 16.421875 C-83.1337225 10.22847805 -66.61883165 7.64717594 -48.87158203 5.58251953 C-43.72771851 4.977997 -38.5965318 4.28937443 -33.46484375 3.58984375 C-31.71981427 3.35314346 -29.97477852 3.11648935 -28.22973633 2.87988281 C-27.38085846 2.76471313 -26.53198059 2.64954346 -25.65737915 2.53088379 C-24.82169403 2.41756714 -23.98600891 2.30425049 -23.125 2.1875 C-21.8921376 2.02018372 -21.8921376 2.02018372 -20.6343689 1.8494873 C-18.30105315 1.53477998 -15.9670723 1.22558537 -13.6328125 0.91796875 C-12.94690536 0.82450668 -12.26099823 0.73104462 -11.55430603 0.63475037 C-7.61613801 0.12115641 -4.01298634 0 0 0 Z " fill="#8E8E8E" transform="translate(494,215)"/>
<path d="M0 0 C5.28 0 10.56 0 16 0 C16 27.39 16 54.78 16 83 C2.20295252 88.74876978 2.20295252 88.74876978 -4.2265625 91.20703125 C-5.3287336 91.63075264 -5.3287336 91.63075264 -6.45317078 92.06303406 C-8.84312567 92.98123923 -11.23403571 93.89692684 -13.625 94.8125 C-15.32449909 95.46474943 -17.02396118 96.11709529 -18.72338867 96.76953125 C-33.29223655 102.35924482 -47.87420119 107.91473544 -62.46142578 113.45629883 C-63.69862366 113.92684944 -63.69862366 113.92684944 -64.96081543 114.40690613 C-66.59972683 115.02979675 -68.23912951 115.65139634 -69.87902832 116.27168274 C-73.73341782 117.73404029 -77.57152139 119.22254982 -81.38427734 120.79052734 C-93.65611128 125.80128229 -106.18827866 129.27183841 -119 132.625 C-122.1081918 133.44918594 -125.2156074 134.27625398 -128.32299805 135.10345459 C-130.3394306 135.63901656 -132.35651158 136.17214372 -134.37426758 136.70269775 C-139.06449129 137.93791454 -143.74256182 139.19998222 -148.40234375 140.54589844 C-149.23523926 140.78513031 -150.06813477 141.02436218 -150.92626953 141.27084351 C-152.47239563 141.71798067 -154.01651012 142.17215776 -155.55810547 142.63467407 C-160.66913547 144.11028818 -160.66913547 144.11028818 -164 143 C-155.77056135 135.31379676 -147.53343994 127.6788472 -138.93359375 120.40625 C-131.84998067 114.39921684 -124.9596229 108.2381653 -118.19628906 101.87207031 C-114.48624613 98.38060961 -110.73871089 94.95517418 -106.87890625 91.62890625 C-104.60222855 89.65515448 -102.36343278 87.6420113 -100.125 85.625 C-99.27679688 84.861875 -98.42859375 84.09875 -97.5546875 83.3125 C-95.90662482 81.82067568 -94.26544101 80.32119962 -92.6328125 78.8125 C-87.4073473 74.01535162 -81.99414634 69.57577224 -76.39257812 65.23364258 C-72.26035873 62.02087558 -68.22992683 58.71179933 -64.25 55.3125 C-58.920003 50.76115854 -53.49722862 46.34748146 -48 42 C-42.00372969 37.22589943 -36.04370299 32.41119551 -30.1171875 27.55078125 C-27.11196539 25.08846976 -24.09708465 22.63815122 -21.08056641 20.18969727 C-19.69903756 19.06771168 -18.31849463 17.94451096 -16.93896484 16.82006836 C-13.82138826 14.28025069 -10.69718806 11.75280876 -7.53125 9.2734375 C-6.03078125 8.08621094 -6.03078125 8.08621094 -4.5 6.875 C-3.18515625 5.85019531 -3.18515625 5.85019531 -1.84375 4.8046875 C-1.2353125 4.20914062 -0.626875 3.61359375 0 3 C0 2.01 0 1.02 0 0 Z " fill="#8E8E8E" transform="translate(478,21)"/>
<path d="M0 0 C0 24.42 0 48.84 0 74 C-22.06390092 77.48377383 -22.06390092 77.48377383 -32.24609375 78.82421875 C-33.38933609 78.97534622 -34.53257843 79.12647369 -35.71046448 79.28218079 C-38.08860952 79.59522064 -40.46694171 79.90684211 -42.84545898 80.21704102 C-46.45722955 80.69008403 -50.06743023 81.17411136 -53.67773438 81.65820312 C-56.01293239 81.96421736 -58.34821602 82.26957907 -60.68359375 82.57421875 C-61.74323837 82.71792404 -62.802883 82.86162933 -63.89463806 83.00968933 C-77.84118648 84.79545682 -91.65906868 83.71806873 -105.640625 82.90625 C-107.61885939 82.79385353 -109.59711085 82.68175727 -111.57537842 82.56994629 C-116.74409064 82.27701373 -121.91256297 81.98004325 -127.08099365 81.68218994 C-132.37026141 81.37810365 -137.65974909 81.07789385 -142.94921875 80.77734375 C-153.29969625 80.18865878 -163.64992412 79.5957016 -174 79 C-174.33 78.34 -174.66 77.68 -175 77 C-174.41847168 76.69932617 -173.83694336 76.39865234 -173.23779297 76.08886719 C-162.43437086 70.49586095 -151.66296796 64.85705483 -141 59 C-133.32383098 54.79238893 -125.62195116 50.63851025 -117.875 46.5625 C-116.96363281 46.07845703 -116.05226563 45.59441406 -115.11328125 45.09570312 C-102.66658338 38.58247477 -89.44751294 33.77898883 -76.375 28.6875 C-75.49858856 28.34561646 -74.62217712 28.00373291 -73.71920776 27.65148926 C-57.75629269 21.42604047 -41.75497681 15.30327175 -25.73388672 9.22924805 C-24.06346648 8.59556694 -22.39305597 7.9618602 -20.72265625 7.328125 C-19.94005432 7.03162552 -19.15745239 6.73512604 -18.35113525 6.42964172 C-13.44152759 4.56452324 -8.55994902 2.64280164 -3.71264648 0.62011719 C-2 0 -2 0 0 0 Z " fill="#8E8E8E" transform="translate(494,123)"/>
<path d="M0 0 C32.67 0 65.34 0 99 0 C99 0.66 99 1.32 99 2 C96.97270072 3.72335636 94.93466777 5.3381169 92.8125 6.9375 C87.85759154 10.74473633 82.99669678 14.62328812 78.25 18.6875 C73.71807663 22.55929607 69.12699774 26.33868192 64.45703125 30.04296875 C59.9321586 33.64704061 55.47174634 37.33038895 51 41 C44.12563641 46.634895 37.23341794 52.24717631 30.32983398 57.84619141 C26.04621206 61.32478003 21.78183591 64.82552189 17.53051758 68.34350586 C14.68852655 70.6923572 11.83790659 73.03058664 8.98583984 75.3671875 C7.72455425 76.40425143 6.46665101 77.44545354 5.21337891 78.4921875 C-3.28715609 85.58862721 -12.24760566 91.34508144 -21.80078125 96.93359375 C-27.06239035 100.01353584 -32.22693205 103.2345735 -37.375 106.5 C-38.15319092 106.99234131 -38.93138184 107.48468262 -39.7331543 107.99194336 C-42.99528364 110.06290394 -46.23187066 112.15178704 -49.4140625 114.34375 C-52 116 -52 116 -54 116 C-50.09418947 101.93273119 -44.28177888 89.14577216 -37.6875 76.1875 C-36.95840966 74.74443085 -36.229892 73.30107221 -35.50195312 71.85742188 C-34.05373541 68.98706803 -32.60300394 66.11800806 -31.15014648 63.25 C-25.18169126 51.46067562 -19.33967757 39.62202807 -13.66601562 27.6875 C-9.22885375 18.39287675 -4.60934197 9.21868394 0 0 Z " fill="#8E8E8E" transform="translate(354,21)"/>
<path d="M0 0 C22.77 0 45.54 0 69 0 C68.19617034 4.01914832 67.50013482 6.36571032 65.71850586 9.88769531 C65.24388412 10.8334845 64.76926239 11.77927368 64.28025818 12.75372314 C63.76367142 13.76827576 63.24708466 14.78282837 62.71484375 15.828125 C61.91307457 17.42173859 61.91307457 17.42173859 61.09510803 19.04754639 C59.3815612 22.45125106 57.65998405 25.85081061 55.9375 29.25 C53.69350848 33.69114634 51.45331284 38.13419297 49.21484375 42.578125 C48.67186646 43.65385773 48.12888916 44.72959045 47.56945801 45.83792114 C44.11875285 52.69768774 40.76056608 59.59096934 37.61424255 66.59625244 C34.56914364 73.2630938 30.4890593 79.1559219 26.29541016 85.13525391 C24.52067808 87.68998508 22.80642688 90.28294861 21.09130859 92.87792969 C17.76866105 97.90440146 14.41206476 102.90878566 11 107.875 C10.46375 108.65617187 9.9275 109.43734375 9.375 110.2421875 C8 112 8 112 6 113 C5.21462808 99.5956984 4.43207552 86.19123544 3.65309143 72.78656101 C3.29126499 66.56180881 2.92847884 60.33711568 2.56347656 54.11254883 C2.21106606 48.10210516 1.86120639 42.09151787 1.51309204 36.0808239 C1.38003804 33.79114455 1.2460752 31.50151783 1.11117554 29.21194649 C0.92194886 25.99763471 0.73599581 22.78314863 0.55078125 19.56860352 C0.49467682 18.62848419 0.43857239 17.68836487 0.38076782 16.71975708 C0.3302829 15.83231308 0.27979797 14.94486908 0.2277832 14.03053284 C0.18353714 13.27189721 0.13929108 12.51326159 0.09370422 11.731637 C-0.0403659 7.82326544 0 3.91067041 0 0 Z " fill="#8E8E8E" transform="translate(265,21)"/>
<path d="M0 0 C13.30467353 6.56065065 26.48824498 13.35375154 39.62744141 20.23925781 C42.78988994 21.89030594 45.96249775 23.52018065 49.13671875 25.1484375 C59.69947014 30.64246206 68.65940961 36.46489994 77.38330078 44.55175781 C80.11551674 46.99928199 83.02776615 49.20693341 85.9375 51.4375 C91.66197358 55.86377204 97.14473283 60.52240447 102.58764648 65.2890625 C107.18659032 69.31321375 111.86822742 73.20722718 116.61328125 77.05859375 C119.79783402 79.64897464 122.93164281 82.27257138 126 85 C126 85.33 126 85.66 126 86 C117.04647365 86.27912849 108.09446299 86.49178574 99.13752174 86.62174606 C94.97731578 86.68415273 90.82010361 86.76864051 86.66162109 86.90527344 C82.64129089 87.036527 78.6238214 87.1075773 74.60151291 87.13852692 C73.07422212 87.16055213 71.54707302 87.20357106 70.02101517 87.26876068 C58.4373397 87.74350459 58.4373397 87.74350459 54.40151215 84.85655212 C51.01972262 81.64511287 48.53295449 77.90549197 46 74 C44.57392593 72.09555703 43.13801914 70.1983909 41.6875 68.3125 C40.95789063 67.32765625 40.22828125 66.3428125 39.4765625 65.328125 C36.54654538 61.37465847 33.55325887 57.47008954 30.5625 53.5625 C30.00691406 52.83272949 29.45132812 52.10295898 28.87890625 51.35107422 C26.36927364 48.06048743 23.84726564 44.78901912 21.2265625 41.5859375 C15.21445589 34.1789949 10.89411283 26.60163225 6.90820312 17.96337891 C6.01498016 16.03238453 5.09707601 14.11506425 4.171875 12.19921875 C0 3.43633178 0 3.43633178 0 0 Z " fill="#8E8E8E" transform="translate(272,408)"/>
<path d="M0 0 C5.16005894 3.62302011 9.68988465 7.50644749 14.04296875 12.0703125 C15.9890654 14.07604353 15.9890654 14.07604353 18.3984375 15.796875 C21.66342863 18.56182245 23.94439867 21.67035222 26.4375 25.125 C27.49324254 26.561036 28.55059967 27.99588608 29.609375 29.4296875 C30.16044922 30.17702148 30.71152344 30.92435547 31.27929688 31.69433594 C34.18875698 35.59288038 37.1895519 39.41935627 40.1875 43.25 C48.60432309 54.0421016 48.60432309 54.0421016 52.375 59 C53.43847656 60.3921875 53.43847656 60.3921875 54.5234375 61.8125 C56 64 56 64 56 66 C36.53 66 17.06 66 -3 66 C-3 45.27284563 -3 45.27284563 -2.59765625 37.7734375 C-2.55563583 36.93003815 -2.51361542 36.08663879 -2.47032166 35.21768188 C-2.38252754 33.47557712 -2.29259114 31.73357891 -2.20043945 29.99169922 C-2.06078069 27.34238475 -1.92934833 24.69274768 -1.79882812 22.04296875 C-1.71141441 20.32810062 -1.62354094 18.61325586 -1.53515625 16.8984375 C-1.49656998 16.12124359 -1.4579837 15.34404968 -1.41822815 14.54330444 C-1.15504202 9.65620627 -0.65708718 4.85027302 0 0 Z " fill="#8E8E8E" transform="translate(249,428)"/>
</svg>
