<?xml version="1.0" encoding="UTF-8"?>
<svg xmlns="http://www.w3.org/2000/svg" xmlns:xlink="http://www.w3.org/1999/xlink" width="200px" height="px" viewBox="0 0 200 200" version="1.1">
<g id="surface1">
<path style=" stroke:none;fill-rule:nonzero;fill:rgb(55.686277%,55.686277%,55.686277%);fill-opacity:1;" d="M 17.078125 5.351562 C 18.933594 5.53125 20.066406 6.390625 21.574219 7.4375 C 21.867188 7.632812 22.15625 7.828125 22.453125 8.027344 C 23.042969 8.421875 23.628906 8.820312 24.214844 9.21875 C 24.972656 9.734375 25.738281 10.234375 26.511719 10.726562 C 26.933594 10.996094 27.355469 11.265625 27.789062 11.546875 C 28.160156 11.785156 28.53125 12.023438 28.914062 12.269531 C 29.746094 12.914062 29.746094 12.914062 30.136719 14.089844 C 29.683594 15.117188 29.136719 16.0625 28.582031 17.035156 C 28.117188 18.15625 28.136719 18.464844 28.570312 19.570312 C 29.199219 20.171875 29.199219 20.171875 30.015625 20.671875 C 30.316406 20.871094 30.621094 21.070312 30.929688 21.277344 C 31.257812 21.488281 31.585938 21.699219 31.921875 21.917969 C 32.609375 22.371094 33.292969 22.828125 33.976562 23.285156 C 34.320312 23.515625 34.664062 23.746094 35.015625 23.980469 C 36.441406 24.953125 37.816406 25.984375 39.1875 27.03125 C 44.726562 32.003906 44.726562 32.003906 50.878906 34.742188 C 52.207031 34.234375 53.207031 33.246094 54.28125 32.339844 C 58.71875 28.703125 63.5 25.765625 68.519531 22.992188 C 68.851562 22.808594 69.183594 22.625 69.523438 22.433594 C 72.644531 20.746094 75.773438 19.441406 79.0625 18.003906 C 82.546875 21.492188 86.035156 24.976562 89.628906 28.570312 C 88.492188 29.425781 87.523438 30.070312 86.289062 30.722656 C 85.941406 30.90625 85.597656 31.089844 85.242188 31.28125 C 84.871094 31.476562 84.503906 31.671875 84.125 31.875 C 77.210938 35.605469 70.835938 39.871094 64.578125 44.617188 C 66.246094 46.429688 68.132812 47.757812 70.15625 49.144531 C 70.863281 49.632812 71.570312 50.121094 72.277344 50.613281 C 72.628906 50.855469 72.980469 51.097656 73.34375 51.347656 C 74.816406 52.367188 76.277344 53.394531 77.738281 54.425781 C 78.144531 54.710938 78.144531 54.710938 78.554688 55.003906 C 80.546875 56.410156 82.519531 57.839844 84.492188 59.269531 C 86.917969 61.035156 89.371094 62.746094 91.855469 64.433594 C 94.3125 66.101562 96.726562 67.808594 99.113281 69.578125 C 101.449219 71.304688 103.832031 72.964844 106.21875 74.625 C 108.410156 76.152344 110.582031 77.707031 112.746094 79.28125 C 115.148438 81.027344 117.578125 82.726562 120.035156 84.394531 C 122.492188 86.0625 124.910156 87.769531 127.292969 89.539062 C 129.628906 91.265625 132.011719 92.925781 134.398438 94.585938 C 136.589844 96.113281 138.761719 97.667969 140.925781 99.242188 C 143.328125 100.988281 145.757812 102.6875 148.214844 104.355469 C 150.671875 106.023438 153.085938 107.730469 155.472656 109.5 C 158.472656 111.714844 161.539062 113.832031 164.601562 115.964844 C 168.757812 118.867188 172.882812 121.804688 176.988281 124.78125 C 177.265625 124.984375 177.546875 125.183594 177.835938 125.394531 C 178.203125 125.664062 178.203125 125.664062 178.582031 125.9375 C 179.191406 126.371094 179.808594 126.789062 180.429688 127.203125 C 180.699219 127.902344 180.699219 127.902344 180.871094 128.769531 C 180.9375 129.097656 181.003906 129.425781 181.074219 129.761719 C 181.144531 130.125 181.214844 130.484375 181.285156 130.859375 C 181.363281 131.238281 181.441406 131.621094 181.519531 132.015625 C 181.777344 133.289062 182.027344 134.5625 182.277344 135.839844 C 182.457031 136.738281 182.636719 137.632812 182.816406 138.53125 C 183.296875 140.929688 183.773438 143.328125 184.246094 145.726562 C 184.734375 148.1875 185.226562 150.644531 185.714844 153.105469 C 186.574219 157.410156 187.429688 161.71875 188.28125 166.027344 C 188.808594 168.6875 189.335938 171.351562 189.867188 174.011719 C 190.492188 177.144531 191.113281 180.28125 191.730469 183.414062 C 191.863281 184.082031 191.863281 184.082031 191.996094 184.757812 C 192.234375 185.964844 192.472656 187.167969 192.707031 188.371094 C 192.808594 188.878906 192.808594 188.878906 192.910156 189.394531 C 193.144531 190.601562 193.347656 191.722656 193.347656 192.953125 C 189.492188 192.445312 185.691406 191.78125 181.878906 191.011719 C 181.304688 190.894531 180.726562 190.78125 180.152344 190.667969 C 178.601562 190.355469 177.054688 190.046875 175.507812 189.734375 C 173.882812 189.40625 172.257812 189.082031 170.628906 188.757812 C 167.90625 188.210938 165.179688 187.664062 162.457031 187.117188 C 158.960938 186.414062 155.464844 185.714844 151.96875 185.015625 C 148.953125 184.410156 145.941406 183.808594 142.929688 183.203125 C 142.28125 183.074219 141.636719 182.945312 140.992188 182.816406 C 139.15625 182.449219 137.320312 182.078125 135.480469 181.710938 C 134.925781 181.597656 134.371094 181.488281 133.8125 181.375 C 133.054688 181.222656 132.296875 181.070312 131.539062 180.917969 C 131.113281 180.832031 130.691406 180.746094 130.253906 180.660156 C 129.710938 180.546875 129.710938 180.546875 129.160156 180.429688 C 128.714844 180.339844 128.714844 180.339844 128.265625 180.246094 C 127.273438 179.941406 126.980469 179.371094 126.40625 178.523438 C 126.1875 178.203125 125.96875 177.886719 125.746094 177.558594 C 125.515625 177.214844 125.285156 176.871094 125.050781 176.515625 C 124.558594 175.796875 124.066406 175.078125 123.570312 174.355469 C 123.328125 173.996094 123.082031 173.632812 122.828125 173.257812 C 121.808594 171.765625 120.765625 170.285156 119.714844 168.8125 C 119.332031 168.265625 118.945312 167.722656 118.5625 167.179688 C 118.277344 166.777344 118.277344 166.777344 117.988281 166.367188 C 117.410156 165.550781 116.835938 164.730469 116.257812 163.914062 C 114.257812 161.070312 112.242188 158.242188 110.199219 155.429688 C 108.4375 153.003906 106.722656 150.550781 105.039062 148.066406 C 103.371094 145.609375 101.664062 143.195312 99.894531 140.808594 C 98.167969 138.472656 96.507812 136.089844 94.847656 133.703125 C 93.316406 131.511719 91.765625 129.339844 90.191406 127.175781 C 88.445312 124.773438 86.746094 122.34375 85.078125 119.886719 C 83.410156 117.429688 81.703125 115.011719 79.933594 112.628906 C 78.207031 110.292969 76.546875 107.910156 74.886719 105.523438 C 73.355469 103.332031 71.804688 101.160156 70.230469 98.996094 C 68.484375 96.59375 66.785156 94.164062 65.117188 91.707031 C 63.449219 89.25 61.742188 86.835938 59.972656 84.449219 C 57.761719 81.457031 55.648438 78.394531 53.519531 75.339844 C 52.445312 73.804688 51.371094 72.273438 50.292969 70.742188 C 50.109375 70.484375 49.925781 70.222656 49.738281 69.953125 C 48.605469 68.347656 47.4375 66.78125 46.230469 65.234375 C 45.792969 64.578125 45.792969 64.578125 45.792969 63.796875 C 44.230469 65.273438 42.964844 66.832031 41.730469 68.589844 C 41.433594 69.015625 41.433594 69.015625 41.128906 69.449219 C 36.972656 75.46875 33.230469 81.820312 30.136719 88.453125 C 27.644531 86.402344 25.386719 84.140625 23.117188 81.847656 C 22.734375 81.464844 22.347656 81.078125 21.964844 80.695312 C 21.035156 79.757812 20.105469 78.824219 19.179688 77.886719 C 21.90625 71.339844 25.0625 65.214844 28.988281 59.296875 C 29.367188 58.722656 29.367188 58.722656 29.757812 58.136719 C 31.566406 55.453125 33.53125 52.960938 35.617188 50.488281 C 34.460938 48.371094 33.152344 46.4375 31.726562 44.496094 C 31.273438 43.871094 30.816406 43.246094 30.363281 42.621094 C 30.128906 42.300781 29.898438 41.984375 29.660156 41.65625 C 26.222656 36.953125 22.84375 32.214844 19.570312 27.398438 C 19.214844 27.570312 18.863281 27.746094 18.496094 27.925781 C 18.035156 28.144531 17.574219 28.367188 17.097656 28.597656 C 16.640625 28.820312 16.179688 29.039062 15.710938 29.269531 C 14.480469 29.746094 14.480469 29.746094 13.308594 29.355469 C 12.703125 28.570312 12.703125 28.570312 12.0625 27.542969 C 11.710938 26.984375 11.710938 26.984375 11.351562 26.410156 C 11.109375 26.019531 10.867188 25.625 10.617188 25.21875 C 10.375 24.835938 10.136719 24.453125 9.890625 24.058594 C 9.417969 23.308594 8.949219 22.554688 8.484375 21.796875 C 8.070312 21.132812 7.652344 20.46875 7.226562 19.8125 C 7.046875 19.535156 6.871094 19.261719 6.6875 18.980469 C 6.535156 18.746094 6.382812 18.507812 6.222656 18.265625 C 5.414062 16.765625 5.734375 15.441406 6.117188 13.855469 C 7.070312 10.746094 8.636719 8.542969 11.484375 6.910156 C 13.332031 6.046875 15.0625 5.601562 17.078125 5.351562 Z M 56.75 50.878906 C 54.941406 52.6875 53.136719 54.496094 51.273438 56.359375 C 53.222656 59.125 55.480469 61.539062 57.785156 64.007812 C 59.273438 65.609375 60.6875 67.273438 62.101562 68.941406 C 64.273438 71.492188 66.480469 73.996094 68.773438 76.445312 C 69.957031 77.71875 71.078125 79.023438 72.164062 80.382812 C 73.820312 82.449219 75.617188 84.359375 77.433594 86.28125 C 79.0625 88.011719 80.574219 89.800781 82.054688 91.65625 C 83.589844 93.5 85.246094 95.230469 86.886719 96.976562 C 88.003906 98.167969 89.085938 99.386719 90.152344 100.621094 C 90.925781 101.511719 91.71875 102.382812 92.515625 103.253906 C 93.71875 104.582031 94.867188 105.941406 95.988281 107.339844 C 97.8125 109.59375 99.777344 111.695312 101.757812 113.808594 C 102.875 115 103.957031 116.214844 105.023438 117.453125 C 105.796875 118.339844 106.59375 119.210938 107.386719 120.082031 C 108.589844 121.414062 109.738281 122.769531 110.859375 124.167969 C 112.683594 126.421875 114.648438 128.523438 116.632812 130.636719 C 117.746094 131.828125 118.832031 133.042969 119.898438 134.28125 C 120.964844 135.507812 122.070312 136.703125 123.167969 137.902344 C 124.070312 138.941406 124.070312 138.941406 124.914062 140.082031 C 125.332031 140.644531 125.332031 140.644531 125.757812 141.21875 C 126 141.558594 126.238281 141.902344 126.488281 142.253906 C 127.996094 143.609375 129.601562 144.191406 131.488281 144.902344 C 132.398438 145.246094 133.308594 145.601562 134.214844 145.957031 C 136.0625 146.679688 137.914062 147.394531 139.765625 148.109375 C 140.921875 148.554688 142.082031 149.003906 143.238281 149.453125 C 143.988281 149.742188 144.738281 150.03125 145.488281 150.320312 C 145.828125 150.449219 146.167969 150.582031 146.519531 150.71875 C 148.941406 151.648438 151.375 152.546875 153.816406 153.425781 C 152.914062 150.644531 151.90625 147.917969 150.855469 145.1875 C 150.601562 144.527344 150.601562 144.527344 150.34375 143.851562 C 149.988281 142.925781 149.628906 141.996094 149.273438 141.070312 C 148.726562 139.652344 148.183594 138.234375 147.640625 136.820312 C 147.296875 135.914062 146.949219 135.011719 146.601562 134.109375 C 146.4375 133.683594 146.277344 133.261719 146.109375 132.828125 C 144.511719 128.628906 144.511719 128.628906 141.609375 125.269531 C 141.222656 124.929688 140.835938 124.589844 140.4375 124.238281 C 140.074219 123.925781 139.710938 123.613281 139.335938 123.289062 C 138.835938 122.847656 138.339844 122.40625 137.84375 121.964844 C 136.886719 121.132812 135.921875 120.308594 134.957031 119.488281 C 132.28125 117.207031 129.648438 114.890625 127.066406 112.503906 C 125.304688 110.878906 123.492188 109.3125 121.664062 107.761719 C 119.113281 105.589844 116.609375 103.382812 114.160156 101.089844 C 112.878906 99.898438 111.566406 98.769531 110.199219 97.675781 C 107.964844 95.882812 105.890625 93.933594 103.800781 91.976562 C 101.972656 90.261719 100.078125 88.628906 98.171875 87.007812 C 95.492188 84.722656 92.859375 82.40625 90.277344 80.019531 C 88.507812 78.390625 86.691406 76.820312 84.859375 75.261719 C 82.183594 72.980469 79.554688 70.664062 76.96875 68.277344 C 75.199219 66.648438 73.386719 65.078125 71.554688 63.519531 C 69.277344 61.582031 67.019531 59.632812 64.824219 57.609375 C 64.628906 57.429688 64.4375 57.25 64.238281 57.066406 C 63.957031 56.808594 63.957031 56.808594 63.671875 56.546875 C 62.765625 55.710938 61.855469 54.878906 60.933594 54.0625 C 60.71875 53.867188 60.5 53.675781 60.277344 53.476562 C 59.144531 52.558594 57.9375 51.730469 56.75 50.878906 Z M 56.75 50.878906 "/>
<path style=" stroke:none;fill-rule:nonzero;fill:rgb(55.686277%,55.686277%,55.686277%);fill-opacity:1;" d="M 174.558594 39.140625 C 174.6875 39.140625 174.816406 39.140625 174.949219 39.140625 C 175.238281 40.734375 175.421875 42.300781 175.519531 43.917969 C 175.550781 44.398438 175.578125 44.878906 175.609375 45.371094 C 175.640625 45.898438 175.671875 46.425781 175.703125 46.949219 C 175.738281 47.507812 175.773438 48.066406 175.804688 48.625 C 175.878906 49.824219 175.953125 51.023438 176.023438 52.222656 C 176.136719 54.117188 176.253906 56.011719 176.371094 57.90625 C 176.65625 62.609375 176.941406 67.3125 177.226562 72.015625 C 177.449219 75.671875 177.671875 79.332031 177.894531 82.992188 C 178.011719 84.878906 178.125 86.761719 178.238281 88.644531 C 178.308594 89.816406 178.382812 90.984375 178.453125 92.15625 C 178.484375 92.699219 178.519531 93.242188 178.550781 93.785156 C 178.59375 94.527344 178.640625 95.265625 178.6875 96.007812 C 178.710938 96.421875 178.738281 96.835938 178.761719 97.261719 C 178.808594 98.238281 178.808594 98.238281 179.257812 99.023438 C 181.074219 97.042969 182.851562 95.042969 184.539062 92.953125 C 185.984375 91.171875 187.488281 89.460938 189.035156 87.765625 C 189.710938 87.015625 190.359375 86.253906 190.996094 85.46875 C 191.257812 85.164062 191.515625 84.855469 191.78125 84.539062 C 191.910156 84.539062 192.039062 84.539062 192.171875 84.539062 C 192.246094 88.511719 192.308594 92.480469 192.367188 96.453125 C 192.371094 96.765625 192.378906 97.074219 192.382812 97.394531 C 192.582031 110.878906 192.597656 124.359375 192.589844 137.84375 C 192.585938 138.347656 192.585938 138.851562 192.585938 139.367188 C 192.582031 145.621094 192.574219 151.871094 192.5625 158.121094 C 191.769531 156.632812 191.46875 155.179688 191.1875 153.527344 C 191.136719 153.226562 191.082031 152.921875 191.027344 152.609375 C 190.851562 151.609375 190.679688 150.609375 190.503906 149.609375 C 190.382812 148.914062 190.261719 148.214844 190.140625 147.519531 C 189.886719 146.0625 189.632812 144.605469 189.378906 143.144531 C 189.058594 141.277344 188.730469 139.40625 188.402344 137.539062 C 188.152344 136.101562 187.902344 134.664062 187.652344 133.226562 C 187.53125 132.539062 187.414062 131.851562 187.292969 131.160156 C 187.125 130.199219 186.957031 129.234375 186.792969 128.273438 C 186.71875 127.84375 186.71875 127.84375 186.640625 127.410156 C 186.421875 126.136719 186.300781 124.976562 186.300781 123.679688 C 186.035156 123.59375 185.769531 123.507812 185.496094 123.417969 C 184.007812 122.746094 182.839844 121.816406 181.554688 120.816406 C 179.207031 119.019531 176.816406 117.308594 174.363281 115.65625 C 171.769531 113.902344 169.246094 112.082031 166.753906 110.183594 C 164.769531 108.679688 162.730469 107.265625 160.664062 105.871094 C 158.070312 104.117188 155.546875 102.296875 153.054688 100.398438 C 150.769531 98.667969 148.40625 97.058594 146.027344 95.453125 C 143.597656 93.804688 141.238281 92.074219 138.902344 90.289062 C 137.609375 89.285156 137.609375 89.285156 136.203125 88.453125 C 136.203125 80.574219 136.203125 72.695312 136.203125 64.578125 C 137.078125 65.742188 137.71875 66.71875 138.367188 67.992188 C 138.648438 68.535156 138.648438 68.535156 138.933594 69.085938 C 139.128906 69.472656 139.328125 69.859375 139.53125 70.253906 C 141.324219 73.730469 143.164062 77.171875 145.085938 80.578125 C 145.257812 80.882812 145.425781 81.1875 145.601562 81.503906 C 145.828125 81.902344 145.828125 81.902344 146.058594 82.308594 C 146.378906 82.972656 146.378906 82.972656 146.378906 83.757812 C 146.636719 83.757812 146.894531 83.757812 147.164062 83.757812 C 147.238281 83.15625 147.238281 83.15625 147.320312 82.546875 C 147.53125 81.15625 147.820312 79.839844 148.171875 78.480469 C 148.296875 77.992188 148.421875 77.507812 148.554688 77.007812 C 148.6875 76.484375 148.824219 75.964844 148.960938 75.441406 C 149.101562 74.902344 149.242188 74.363281 149.382812 73.820312 C 149.746094 72.40625 150.117188 70.992188 150.484375 69.582031 C 150.859375 68.136719 151.234375 66.6875 151.609375 65.242188 C 152.34375 62.414062 153.078125 59.582031 153.816406 56.75 C 154.597656 57.144531 154.597656 57.144531 154.929688 57.957031 C 155.039062 58.316406 155.148438 58.675781 155.261719 59.046875 C 155.386719 59.453125 155.511719 59.859375 155.640625 60.277344 C 155.777344 60.722656 155.910156 61.167969 156.046875 61.628906 C 156.1875 62.089844 156.332031 62.546875 156.476562 63.019531 C 156.851562 64.25 157.226562 65.484375 157.601562 66.714844 C 157.972656 67.9375 158.34375 69.160156 158.71875 70.382812 C 159.15625 71.808594 159.589844 73.234375 160.027344 74.660156 C 160.882812 77.464844 161.742188 80.265625 162.617188 83.0625 C 162.710938 83.371094 162.808594 83.679688 162.90625 83.996094 C 163.25 85.355469 163.25 85.355469 163.992188 86.496094 C 167.480469 70.867188 170.964844 55.242188 174.558594 39.140625 Z M 174.558594 39.140625 "/>
<path style=" stroke:none;fill-rule:nonzero;fill:rgb(55.686277%,55.686277%,55.686277%);fill-opacity:1;" d="M 69.277344 127.203125 C 70.882812 127.257812 72.488281 127.316406 74.09375 127.371094 C 74.769531 127.394531 74.769531 127.394531 75.457031 127.417969 C 76.355469 127.453125 77.253906 127.492188 78.15625 127.539062 C 79.433594 127.609375 79.433594 127.609375 80.636719 127.546875 C 82.316406 127.542969 83.339844 127.605469 84.609375 128.757812 C 85.449219 129.839844 86.171875 130.949219 86.886719 132.117188 C 87.15625 132.527344 87.421875 132.941406 87.699219 133.363281 C 88.238281 134.1875 88.769531 135.015625 89.292969 135.847656 C 90.234375 137.320312 91.222656 138.757812 92.222656 140.191406 C 92.5625 140.683594 92.898438 141.179688 93.238281 141.675781 C 94.503906 143.511719 95.785156 145.335938 97.066406 147.164062 C 98.863281 149.726562 100.648438 152.292969 102.417969 154.878906 C 104.015625 157.207031 105.625 159.523438 107.242188 161.839844 C 109.007812 164.378906 110.773438 166.917969 112.523438 169.472656 C 114.542969 172.414062 116.582031 175.347656 118.621094 178.277344 C 118.871094 178.632812 119.121094 178.992188 119.375 179.359375 C 119.636719 179.71875 119.894531 180.078125 120.164062 180.449219 C 120.9375 181.605469 120.9375 181.605469 121.632812 182.953125 C 122.8125 185.074219 123.75 186.578125 126.132812 187.34375 C 128.226562 187.863281 130.347656 188.132812 132.484375 188.40625 C 133.265625 188.523438 134.042969 188.640625 134.820312 188.761719 C 136.425781 189.007812 138.035156 189.246094 139.644531 189.472656 C 143.144531 189.972656 146.625 190.5625 150.109375 191.160156 C 151.164062 191.339844 152.21875 191.511719 153.273438 191.679688 C 153.914062 191.785156 154.550781 191.890625 155.191406 191.996094 C 155.632812 192.066406 155.632812 192.066406 156.082031 192.136719 C 156.765625 192.253906 157.445312 192.40625 158.121094 192.5625 C 158.25 192.820312 158.378906 193.082031 158.511719 193.347656 C 147.277344 193.390625 136.042969 193.277344 124.808594 193.183594 C 123.753906 193.171875 122.703125 193.164062 121.648438 193.15625 C 106.539062 193.03125 91.429688 192.882812 76.320312 192.5625 C 77.5625 191.546875 78.816406 190.613281 80.164062 189.738281 C 80.523438 189.507812 80.882812 189.273438 81.253906 189.03125 C 81.636719 188.785156 82.019531 188.539062 82.410156 188.28125 C 82.8125 188.023438 83.210938 187.765625 83.621094 187.5 C 84.441406 186.964844 85.265625 186.433594 86.085938 185.898438 C 87.183594 185.1875 88.28125 184.476562 89.378906 183.761719 C 89.707031 183.546875 90.035156 183.335938 90.371094 183.117188 C 91.011719 182.699219 91.65625 182.28125 92.296875 181.863281 C 93.886719 180.832031 95.476562 179.800781 97.074219 178.78125 C 97.386719 178.578125 97.695312 178.378906 98.019531 178.171875 C 98.609375 177.792969 99.203125 177.417969 99.792969 177.039062 C 100.457031 176.613281 101.109375 176.175781 101.761719 175.734375 C 101.761719 175.605469 101.761719 175.476562 101.761719 175.34375 C 85.746094 172.113281 69.730469 168.882812 53.230469 165.558594 C 53.230469 165.300781 53.230469 165.042969 53.230469 164.773438 C 53.683594 164.691406 54.136719 164.609375 54.605469 164.523438 C 58.878906 163.75 63.152344 162.972656 67.425781 162.191406 C 69.625 161.792969 71.820312 161.390625 74.019531 160.992188 C 76.136719 160.609375 78.257812 160.222656 80.375 159.835938 C 81.183594 159.6875 81.996094 159.542969 82.804688 159.394531 C 83.9375 159.191406 85.066406 158.984375 86.199219 158.777344 C 86.535156 158.714844 86.875 158.65625 87.222656 158.59375 C 88.863281 158.3125 88.863281 158.3125 90.410156 157.730469 C 76.203125 154.371094 61.996094 151.015625 47.359375 147.554688 C 48.71875 146.875 49.152344 146.671875 50.554688 146.617188 C 51.035156 146.597656 51.035156 146.597656 51.527344 146.574219 C 52.050781 146.554688 52.050781 146.554688 52.585938 146.539062 C 52.957031 146.523438 53.328125 146.507812 53.710938 146.492188 C 54.933594 146.441406 56.15625 146.398438 57.382812 146.351562 C 58.230469 146.320312 59.078125 146.285156 59.929688 146.25 C 62.160156 146.160156 64.394531 146.074219 66.628906 145.992188 C 69.3125 145.890625 71.992188 145.78125 74.671875 145.675781 C 78.742188 145.515625 82.816406 145.359375 86.886719 145.207031 C 79.914062 142.878906 72.9375 140.554688 65.753906 138.160156 C 65.753906 138.03125 65.753906 137.902344 65.753906 137.769531 C 70.273438 137.253906 74.792969 136.734375 79.453125 136.203125 C 78.265625 135.015625 77.1875 133.953125 75.902344 132.910156 C 75.472656 132.5625 75.472656 132.5625 75.035156 132.203125 C 74.742188 131.964844 74.445312 131.726562 74.144531 131.480469 C 73.554688 131.003906 72.96875 130.527344 72.382812 130.050781 C 72.121094 129.839844 71.863281 129.632812 71.597656 129.417969 C 70.78125 128.714844 70.027344 127.972656 69.277344 127.203125 Z M 69.277344 127.203125 "/>
</g>
</svg>
