<?xml version="1.0" encoding="UTF-8"?>
<svg version="1.1" xmlns="http://www.w3.org/2000/svg" width="511" height="511">
<path d="M0 0 C4.74202112 0.46263621 7.63061677 2.65984893 11.48828125 5.328125 C12.22949219 5.82634766 12.97070312 6.32457031 13.734375 6.83789062 C15.23555052 7.84774877 16.73332017 8.86268932 18.22753906 9.8828125 C20.16938136 11.19690789 22.12837929 12.47418139 24.10546875 13.734375 C25.18054688 14.4253125 26.255625 15.11625 27.36328125 15.828125 C28.31203125 16.4365625 29.26078125 17.045 30.23828125 17.671875 C32.36328125 19.328125 32.36328125 19.328125 33.36328125 22.328125 C32.20840713 24.94846438 30.8066157 27.36554324 29.39453125 29.85546875 C28.20196203 32.7149245 28.25130256 33.50157553 29.36328125 36.328125 C30.97120434 37.86745606 30.97120434 37.86745606 33.0546875 39.140625 C33.82635254 39.65246338 34.59801758 40.16430176 35.39306641 40.69165039 C36.2288623 41.23168701 37.0646582 41.77172363 37.92578125 42.328125 C39.67647351 43.49049139 41.42514177 44.65591141 43.171875 45.82421875 C44.04956543 46.41058105 44.92725586 46.99694336 45.83154297 47.60107422 C49.47199464 50.08444501 52.98601292 52.71737462 56.48828125 55.390625 C70.63550868 68.09794094 70.63550868 68.09794094 86.35864258 75.09912109 C89.74961339 73.79493332 92.30618036 71.27357659 95.05078125 68.953125 C106.39265292 59.66319562 118.60499316 52.15565406 131.42578125 45.078125 C132.27470947 44.60697266 133.1236377 44.13582031 133.99829102 43.65039062 C141.96894788 39.33680559 149.96641469 36.00175412 158.36328125 32.328125 C167.27328125 41.238125 176.18328125 50.148125 185.36328125 59.328125 C182.45819143 61.50694237 179.98523847 63.16167021 176.828125 64.82421875 C175.94616455 65.2939209 175.0642041 65.76362305 174.15551758 66.24755859 C173.21345459 66.74852051 172.2713916 67.24948242 171.30078125 67.765625 C153.63984187 77.30383887 137.34585677 88.19986834 121.36328125 100.328125 C125.6170825 104.95370156 130.44194427 108.3496724 135.61328125 111.890625 C137.41817324 113.14032972 139.22285745 114.39033457 141.02734375 115.640625 C141.92743164 116.26195312 142.82751953 116.88328125 143.75488281 117.5234375 C147.51442115 120.12457072 151.25392238 122.75351565 154.98828125 125.390625 C156.01961182 126.11789795 156.01961182 126.11789795 157.07177734 126.85986328 C162.15725243 130.45429657 167.20015283 134.10525932 172.23828125 137.765625 C178.43871546 142.26897067 184.71041484 146.64920642 191.05078125 150.953125 C197.32855913 155.21474236 203.5042368 159.57737647 209.59716797 164.09863281 C215.56621012 168.51391472 221.65468997 172.75166464 227.74755859 176.99365234 C233.3505651 180.90116629 238.90277024 184.8710124 244.42578125 188.890625 C250.56270636 193.35408963 256.7722038 197.6913562 263.05078125 201.953125 C269.32856913 206.21472601 275.50423767 210.57737711 281.59716797 215.09863281 C287.56621012 219.51391472 293.65468997 223.75166464 299.74755859 227.99365234 C305.3505651 231.90116629 310.90277024 235.8710124 316.42578125 239.890625 C322.56270636 244.35408963 328.7722038 248.6913562 335.05078125 252.953125 C341.3277396 257.21416289 347.50194777 261.5770359 353.5949707 266.09643555 C361.25691969 271.76209762 369.0993055 277.17128653 376.91601562 282.62011719 C387.53490196 290.03130322 398.08294886 297.53729994 408.56494141 305.14086914 C409.27956543 305.6589917 409.99418945 306.17711426 410.73046875 306.7109375 C411.67575439 307.39760498 411.67575439 307.39760498 412.64013672 308.09814453 C414.19254443 309.20625307 415.77629407 310.27013355 417.36328125 311.328125 C418.04528046 313.12008858 418.04528046 313.12008858 418.48522949 315.3298645 C418.65854734 316.16872004 418.8318652 317.00757557 419.0104351 317.87185097 C419.1881048 318.79602003 419.3657745 319.72018909 419.54882812 320.67236328 C419.74636248 321.64681082 419.94389683 322.62125835 420.14741707 323.6252346 C420.80419623 326.88070412 421.44308028 330.13942583 422.08203125 333.3984375 C422.54054948 335.68978883 423.0001537 337.98092309 423.46078491 340.27185059 C424.68953262 346.39915836 425.90289887 352.52941804 427.11312103 358.66040802 C428.35615955 364.94505655 429.61267373 371.22700909 430.86767578 377.50927734 C433.06354047 388.51227382 435.24727792 399.5176286 437.42372704 410.52448082 C438.7688931 417.32704721 440.11743009 424.1289236 441.47167969 430.9296875 C443.06604569 438.93641756 444.65535743 446.94412299 446.23828125 454.953125 C446.57484741 456.65350922 446.57484741 456.65350922 446.91821289 458.38824463 C447.52564828 461.46391376 448.12901058 464.54034471 448.73046875 467.6171875 C448.98659439 468.91227234 448.98659439 468.91227234 449.24789429 470.23352051 C449.84548038 473.31268704 450.36328125 476.18329526 450.36328125 479.328125 C440.51304455 478.02793709 430.80651664 476.32983867 421.06787109 474.36303711 C419.59454783 474.06847452 418.12115706 473.77424944 416.64770508 473.48033142 C412.69314458 472.69049163 408.73954617 471.89593352 404.78612852 471.10039592 C400.63258218 470.26539256 396.47818068 469.43466475 392.32388306 468.60340881 C385.36205497 467.20975929 378.40080003 465.81327821 371.43994141 464.41479492 C362.5070367 462.62012494 353.57324492 460.82991238 344.63915062 459.04117489 C336.9406186 457.49980904 329.24243082 455.95672661 321.54433107 454.41320348 C319.89529215 454.08258639 318.2462414 453.75202825 316.59717894 453.42152858 C311.90450086 452.48103572 307.21200649 451.53963754 302.51982117 450.59668922 C301.09927962 450.31135761 299.67867381 450.02634576 298.25799942 449.74167633 C296.3200447 449.35328771 294.38235123 448.96359619 292.44467163 448.57383728 C291.36039068 448.35612639 290.27610973 448.13841551 289.15897179 447.91410732 C287.77510497 447.62404607 287.77510497 447.62404607 286.36328125 447.328125 C285.23305511 447.09405111 285.23305511 447.09405111 284.07999611 446.85524845 C281.54830425 446.07788339 280.79564542 444.62058524 279.33203125 442.453125 C278.77499512 441.64141846 278.21795898 440.82971191 277.64404297 439.9934082 C277.0563916 439.11386475 276.46874023 438.23432129 275.86328125 437.328125 C274.60589239 435.4879917 273.34807292 433.64815257 272.08984375 431.80859375 C271.46239258 430.88353027 270.83494141 429.9584668 270.18847656 429.00537109 C267.58375247 425.184691 264.91484496 421.4111545 262.23828125 417.640625 C261.25492245 416.25020215 260.2718488 414.85957757 259.2890625 413.46875 C258.56517334 412.44491211 258.56517334 412.44491211 257.82666016 411.40039062 C256.35071285 409.3103271 254.87803803 407.21799411 253.40625 405.125 C248.29650511 397.86334219 243.14568537 390.63606331 237.92578125 383.453125 C233.42235754 377.25274926 229.04219794 370.98098863 224.73828125 364.640625 C220.47666389 358.36284712 216.11402978 352.18716945 211.59277344 346.09423828 C207.17749153 340.12519613 202.93974161 334.03671628 198.69775391 327.94384766 C194.79023996 322.34084115 190.82039385 316.78863601 186.80078125 311.265625 C182.33731662 305.12869989 178.00005005 298.91920245 173.73828125 292.640625 C169.47668024 286.36283712 165.11402914 280.18716858 160.59277344 274.09423828 C156.17749153 268.12519613 151.93974161 262.03671628 147.69775391 255.94384766 C143.79023996 250.34084115 139.82039385 244.78863601 135.80078125 239.265625 C131.33731662 233.12869989 127.00005005 226.91920245 122.73828125 220.640625 C118.47724336 214.36366665 114.11437035 208.18945848 109.5949707 202.09643555 C103.93993311 194.44885457 98.54063329 186.62140756 93.10205078 178.81933594 C90.3655882 174.89868666 87.61692536 170.98672014 84.86328125 167.078125 C84.39543213 166.41184082 83.92758301 165.74555664 83.44555664 165.05908203 C80.55519326 160.95926848 77.57066108 156.95447211 74.48242188 153.00097656 C73.36328125 151.328125 73.36328125 151.328125 73.36328125 149.328125 C69.37325105 153.10208858 66.14193303 157.08820746 62.98828125 161.578125 C62.22596191 162.66275024 62.22596191 162.66275024 61.44824219 163.76928711 C50.82505938 179.1530995 41.26822935 195.38173465 33.36328125 212.328125 C26.99737821 207.08353914 21.22757513 201.30715178 15.42578125 195.453125 C14.44619888 194.46851581 13.46638288 193.484139 12.48632812 192.5 C10.10967873 190.11164297 7.73540769 187.72097288 5.36328125 185.328125 C12.33189189 168.5988445 20.39427143 152.94740302 30.42578125 137.828125 C31.39825806 136.36052734 31.39825806 136.36052734 32.39038086 134.86328125 C37.01805351 128.01555683 42.03401644 121.64223733 47.36328125 115.328125 C44.40766256 109.92012245 41.07090999 104.97988058 37.42578125 100.015625 C36.26299302 98.41798899 35.10023342 96.82033215 33.9375 95.22265625 C33.34501465 94.41135254 32.7525293 93.60004883 32.14208984 92.76416016 C23.36352121 80.74212367 14.73271212 68.63907141 6.36328125 56.328125 C5.45964844 56.77285156 4.55601563 57.21757813 3.625 57.67578125 C2.44550781 58.24167969 1.26601563 58.80757812 0.05078125 59.390625 C-1.12097656 59.95910156 -2.29273438 60.52757812 -3.5 61.11328125 C-6.63671875 62.328125 -6.63671875 62.328125 -9.63671875 61.328125 C-11.18310547 59.32202148 -11.18310547 59.32202148 -12.81640625 56.69921875 C-13.71552734 55.26932617 -13.71552734 55.26932617 -14.6328125 53.81054688 C-15.25285156 52.80572266 -15.87289063 51.80089844 -16.51171875 50.765625 C-17.12402344 49.78787109 -17.73632812 48.81011719 -18.3671875 47.80273438 C-19.57067727 45.87895469 -20.76911951 43.95200689 -21.9621582 42.02172852 C-23.01963081 40.32073781 -24.08952086 38.62734787 -25.17651367 36.94506836 C-25.62873291 36.24389893 -26.08095215 35.54272949 -26.546875 34.8203125 C-26.94011963 34.21944824 -27.33336426 33.61858398 -27.73852539 32.99951172 C-29.80123243 29.16116097 -28.98747739 25.77908933 -28.0078125 21.7265625 C-25.56739644 13.78153084 -21.57167666 8.15750087 -14.29296875 3.984375 C-9.56927798 1.77998597 -5.15289791 0.64124952 0 0 Z M101.36328125 116.328125 C96.74328125 120.948125 92.12328125 125.568125 87.36328125 130.328125 C92.35033676 137.39312031 98.11302419 143.56061271 104.00341797 149.86376953 C107.80405373 153.95644696 111.41673282 158.21223828 115.03125 162.46875 C120.58244468 168.99440031 126.22474004 175.39071128 132.07739258 181.64770508 C135.10165145 184.90144165 137.96328623 188.23053419 140.73828125 191.703125 C144.97242678 196.98425924 149.56066689 201.86529767 154.20825195 206.77856445 C158.36499503 211.19584093 162.2300292 215.7669729 166.015625 220.5078125 C169.93585475 225.21730648 174.16447171 229.63783009 178.35546875 234.10546875 C181.20874903 237.14949513 183.97516134 240.25779377 186.69921875 243.41796875 C188.67868251 245.69017011 190.70911295 247.91272372 192.73828125 250.140625 C195.81074898 253.53896052 198.74770747 257.00403023 201.61328125 260.578125 C206.26986937 266.33758926 211.29162302 271.70761199 216.35546875 277.10546875 C219.20874903 280.14949513 221.97516134 283.25779377 224.69921875 286.41796875 C226.67868251 288.69017011 228.70911295 290.91272372 230.73828125 293.140625 C233.81074898 296.53896052 236.74770747 300.00403023 239.61328125 303.578125 C244.26986937 309.33758926 249.29162302 314.70761199 254.35546875 320.10546875 C257.20874903 323.14949513 259.97516134 326.25779377 262.69921875 329.41796875 C265.42944898 332.55196542 268.24874435 335.60568417 271.0546875 338.671875 C273.36328125 341.328125 273.36328125 341.328125 275.515625 344.234375 C276.58490234 345.67296875 276.58490234 345.67296875 277.67578125 347.140625 C278.29066406 348.01332031 278.90554688 348.88601563 279.5390625 349.78515625 C283.39068545 353.25321509 287.49400323 354.73887428 292.31253052 356.55252075 C294.64310801 357.43395689 296.96303159 358.34066202 299.28295898 359.24975586 C304.00432987 361.09677667 308.73242278 362.92583169 313.46313477 364.7487793 C316.42347595 365.8897365 319.38270141 367.0335508 322.34179688 368.17773438 C324.25644503 368.91683608 326.17115645 369.6557739 328.0859375 370.39453125 C328.953965 370.73005508 329.82199249 371.06557892 330.71632385 371.41127014 C336.90466427 373.79372583 343.12472316 376.0806204 349.36328125 378.328125 C347.06013866 371.2238373 344.48264918 364.25445825 341.80078125 357.28515625 C341.1519397 355.5943116 341.1519397 355.5943116 340.48999023 353.86930847 C339.57996007 351.4998008 338.668891 349.13069189 337.75683594 346.76196289 C336.36413688 343.14284846 334.97682239 339.52170057 333.58984375 335.90039062 C332.70214881 333.59102054 331.81413877 331.28177154 330.92578125 328.97265625 C330.51320068 327.89442093 330.10062012 326.81618561 329.67553711 325.70527649 C325.59028092 314.97764115 325.59028092 314.97764115 318.17578125 306.390625 C317.18835938 305.52308594 316.2009375 304.65554688 315.18359375 303.76171875 C314.25289062 302.95863281 313.3221875 302.15554688 312.36328125 301.328125 C311.0924278 300.20314772 309.8215922 299.07815028 308.55078125 297.953125 C306.10757917 295.82469129 303.64757603 293.71687427 301.1796875 291.6171875 C294.33907691 285.7914817 287.61941566 279.87031564 281.01953125 273.7734375 C276.51241397 269.62423835 271.88808394 265.62111696 267.21875 261.65625 C260.69479872 256.10745776 254.30106926 250.46661337 248.04589844 244.61621094 C244.77033152 241.57190742 241.41796611 238.68845732 237.92578125 235.890625 C232.2125461 231.30500205 226.91126188 226.33066958 221.5703125 221.32421875 C216.89934805 216.94695786 212.06580584 212.7766961 207.19140625 208.62890625 C200.34809646 202.79794287 193.62344908 196.87404166 187.01953125 190.7734375 C182.50029278 186.61307973 177.86149516 182.60126965 173.18359375 178.62109375 C166.34208418 172.7936344 159.62076017 166.87155769 153.01953125 160.7734375 C148.50029278 156.61307973 143.86149516 152.60126965 139.18359375 148.62109375 C133.37106838 143.67010231 127.60005064 138.69419569 121.98828125 133.515625 C121.49465088 133.06010254 121.00102051 132.60458008 120.49243164 132.13525391 C119.7768811 131.47468994 119.7768811 131.47468994 119.046875 130.80078125 C116.73031373 128.66630777 114.40532412 126.54554985 112.05078125 124.453125 C111.49777344 123.96070313 110.94476563 123.46828125 110.375 122.9609375 C107.47901624 120.61041087 104.39837591 118.49604976 101.36328125 116.328125 Z " fill="#8E8E8E" transform="translate(43.63671875,13.671875)"/>
<path d="M0 0 C0.33 0 0.66 0 1 0 C1.73651526 4.07921875 2.20513318 8.07619279 2.4552002 12.21282959 C2.53085709 13.43823959 2.60651398 14.6636496 2.6844635 15.92619324 C2.76430335 17.27077941 2.84408978 18.61536875 2.92382812 19.95996094 C3.01073938 21.38617142 3.09794075 22.81236425 3.18540955 24.23854065 C3.37268382 27.3011423 3.5580393 30.36385186 3.7419281 33.42665863 C4.03267839 38.26702487 4.32848842 43.10707375 4.62512207 47.94708252 C5.3607881 59.96306396 6.09027782 71.97941939 6.81756592 83.99591064 C7.38352256 93.34616548 7.95136677 102.69629656 8.52528524 112.04606652 C8.82060118 116.86064734 9.11183898 121.67545247 9.4000473 126.49046373 C9.57981154 129.47892492 9.76318102 132.46715672 9.94757271 135.45533562 C10.03254544 136.84443174 10.11600711 138.23362121 10.19787407 139.62290382 C10.30951216 141.51387817 10.42698967 143.40450512 10.5447998 145.29510498 C10.60894829 146.35474834 10.67309677 147.41439171 10.73918915 148.50614548 C10.85186909 150.99686714 10.85186909 150.99686714 12 153 C16.64075322 147.94234697 21.18250335 142.83785742 25.5 137.5 C29.18775305 132.94188566 33.03345619 128.5690961 36.984375 124.23828125 C38.71097447 122.32095277 40.370414 120.37452075 42 118.375 C42.66 117.59125 43.32 116.8075 44 116 C44.33 116 44.66 116 45 116 C45.18456324 126.14556317 45.34836359 136.29139771 45.5 146.4375 C45.51187725 147.23156376 45.5237545 148.02562752 45.53599167 148.84375381 C46.04431756 183.29119851 46.08557673 217.73682395 46.0625 252.1875 C46.06164398 253.47453197 46.06078796 254.76156395 46.05990601 256.08759689 C46.04849619 272.05841184 46.02839178 288.02920652 46 304 C43.96978414 300.19917207 43.20482473 296.48131651 42.48779297 292.265625 C42.35095093 291.49118042 42.21410889 290.71673584 42.07312012 289.91882324 C41.62329533 287.36358833 41.18257115 284.80687758 40.7421875 282.25 C40.43161568 280.47160049 40.12058417 278.6932812 39.80911255 276.91503906 C39.15804295 273.19012349 38.51124002 269.46450073 37.86767578 265.73828125 C37.04261693 260.96213888 36.2090254 256.18753622 35.37249565 251.41339111 C34.72983392 247.74217081 34.09067095 244.0703485 33.45267105 240.39831543 C33.14650518 238.63750597 32.83949016 236.87684395 32.5316124 235.11633301 C32.10214589 232.65625495 31.67714484 230.19544726 31.25341797 227.734375 C31.06176559 226.6432843 31.06176559 226.6432843 30.86624146 225.53015137 C30.31044355 222.27564042 30 219.31713276 30 216 C29.32195312 215.77957031 28.64390625 215.55914062 27.9453125 215.33203125 C24.14149719 213.61173812 21.15391325 211.2453786 17.875 208.6875 C11.87537526 204.09132895 5.76588074 199.72542679 -0.5 195.5 C-7.13107768 191.01999222 -13.57880135 186.37149757 -19.94140625 181.51953125 C-25.0165303 177.6753518 -30.22542399 174.06436035 -35.5 170.5 C-42.13061503 166.01927941 -48.57876504 161.37152525 -54.94140625 156.51953125 C-60.78507259 152.0932154 -66.82218885 147.98359982 -72.89624023 143.88183594 C-79.10658222 139.66647 -85.13600169 135.24752792 -91.1015625 130.69335938 C-94.40648216 128.12341123 -94.40648216 128.12341123 -98 126 C-98 105.87 -98 85.74 -98 65 C-95.76839732 67.97547024 -94.13208178 70.46664072 -92.46875 73.71875 C-91.75477051 75.10380737 -91.75477051 75.10380737 -91.02636719 76.5168457 C-90.52266602 77.50128662 -90.01896484 78.48572754 -89.5 79.5 C-84.92129014 88.38238603 -80.21148853 97.17431387 -75.30273438 105.87890625 C-74.86767578 106.6575 -74.43261719 107.43609375 -73.984375 108.23828125 C-73.40768066 109.259823 -73.40768066 109.259823 -72.81933594 110.30200195 C-72 112 -72 112 -72 114 C-71.34 114 -70.68 114 -70 114 C-69.80145164 112.46816322 -69.80145164 112.46816322 -69.59889221 110.90538025 C-69.05444549 107.3550394 -68.31988081 103.98757257 -67.41772461 100.51391602 C-67.09746811 99.27315811 -66.77721161 98.03240021 -66.44725037 96.75404358 C-66.09903004 95.42064308 -65.75072591 94.08726447 -65.40234375 92.75390625 C-65.04471762 91.37394144 -64.68742816 89.99388933 -64.33045959 88.61375427 C-63.39510609 85.0011274 -62.45521537 81.38969636 -61.51434326 77.77850342 C-60.5530187 74.08547509 -59.59603353 70.39132285 -58.63867188 66.69726562 C-56.76333627 59.46374298 -54.88320124 52.23147936 -53 45 C-51 46 -51 46 -50.15447998 48.08041382 C-49.87501526 48.99795441 -49.59555054 49.915495 -49.30761719 50.86083984 C-48.98678162 51.90057953 -48.66594604 52.94031921 -48.33538818 54.01156616 C-47.99267883 55.1498587 -47.64996948 56.28815125 -47.296875 57.4609375 C-46.93660217 58.63524323 -46.57632935 59.80954895 -46.20513916 61.0194397 C-45.24187458 64.16368315 -44.28522568 67.3098398 -43.33184814 70.45709229 C-42.38373826 73.58228444 -41.42791621 76.70511226 -40.47265625 79.828125 C-39.35833068 83.47207963 -38.2442431 87.11610312 -37.13195801 90.76068115 C-34.94576232 97.92201133 -32.75167326 105.0806221 -30.515625 112.2265625 C-30.27148865 113.01429047 -30.02735229 113.80201843 -29.77581787 114.61361694 C-28.89357175 118.08245735 -28.89357175 118.08245735 -27 121 C-18.09 81.07 -9.18 41.14 0 0 Z " fill="#8E8E8E" transform="translate(446,100)"/>
<path d="M0 0 C4.10435228 0.14087336 8.20843079 0.28862472 12.3125 0.4375 C14.03436523 0.49647461 14.03436523 0.49647461 15.79101562 0.55664062 C18.09009406 0.64130924 20.38857582 0.74411413 22.68603516 0.86499023 C25.95233311 1.04117866 25.95233311 1.04117866 29.02880859 0.88696289 C33.31444295 0.86882538 35.93060872 1.02798964 39.17700195 3.97875977 C41.32521961 6.74366067 43.17230762 9.5762691 45 12.5625 C45.68368652 13.61155518 46.36737305 14.66061035 47.07177734 15.74145508 C48.44410895 17.84835356 49.80297404 19.96409185 51.14746094 22.08886719 C53.54531559 25.8569245 56.07087311 29.52457141 58.625 33.1875 C59.49282526 34.45138524 60.36000444 35.71571433 61.2265625 36.98046875 C64.45593124 41.67355064 67.72867406 46.33611447 71 51 C75.59253764 57.54751933 80.15531089 64.11349427 84.67578125 70.7109375 C88.75612945 76.6599669 92.87678128 82.58062756 97 88.5 C101.51852479 94.98742331 106.02973041 101.4792186 110.5 108 C115.65769772 115.522879 120.86659161 123.0098448 126.08007812 130.49414062 C126.71623047 131.40744141 127.35238281 132.32074219 128.0078125 133.26171875 C128.67006836 134.18049805 129.33232422 135.09927734 130.01464844 136.04589844 C132 139 132 139 133.77441406 142.44628906 C136.78243947 147.86316184 139.17919413 151.70265704 145.27001953 153.66577148 C150.61622815 154.99365573 156.04310106 155.67623547 161.5 156.375 C163.48882448 156.67280308 165.47678375 156.97643764 167.46386719 157.28564453 C171.56949407 157.91776426 175.67777805 158.52107274 179.79101562 159.1015625 C188.73001918 160.37525653 197.62752784 161.88953934 206.52661133 163.41387939 C209.22086115 163.87006625 211.91748484 164.30869406 214.61523438 164.74365234 C216.2487421 165.01373027 217.88220811 165.28406073 219.515625 165.5546875 C220.63889191 165.73070496 220.63889191 165.73070496 221.78485107 165.91027832 C223.53591357 166.20641887 225.2710892 166.59406093 227 167 C227.33 167.66 227.66 168.32 228 169 C199.29329516 169.10881905 170.58784799 168.82077265 141.88246536 168.57931662 C139.19264428 168.55678388 136.50282045 168.53458988 133.81299663 168.51238817 C95.20513158 168.1934065 56.60111404 167.81334326 18 167 C21.17245072 164.40448658 24.37674352 162.0131546 27.81640625 159.78515625 C28.73534668 159.18799805 29.65428711 158.59083984 30.60107422 157.97558594 C31.57834473 157.34426758 32.55561523 156.71294922 33.5625 156.0625 C34.58102051 155.4015332 35.59954102 154.74056641 36.64892578 154.05957031 C38.74883062 152.69702917 40.84941959 151.33554181 42.95068359 149.97509766 C45.75709018 148.15733711 48.56091389 146.33569826 51.36328125 144.51171875 C52.20076904 143.96668701 53.03825684 143.42165527 53.90112305 142.86010742 C55.53932579 141.79389336 57.17750965 140.72765027 58.81567383 139.66137695 C62.87632244 137.02103015 66.94370322 134.39202585 71.0234375 131.78125 C71.81959473 131.27045898 72.61575195 130.75966797 73.43603516 130.23339844 C74.9468075 129.26489741 76.45942631 128.29926899 77.97412109 127.33691406 C79.66653741 126.25084073 81.33614952 125.12934929 83 124 C83 123.67 83 123.34 83 123 C42.08 114.75 1.16 106.5 -41 98 C-41 97.34 -41 96.68 -41 96 C-39.83933014 95.78924332 -38.67866028 95.57848663 -37.4828186 95.36134338 C-26.56347592 93.3781754 -15.64472201 91.39179459 -4.72654152 89.40223789 C0.88708947 88.37940599 6.50092427 87.35772123 12.11523438 86.33862305 C17.52975216 85.35574775 22.94372184 84.36990503 28.35731888 83.38197136 C30.4264551 83.00491754 32.49578907 82.62894729 34.56531906 82.25406075 C37.45601814 81.73023479 40.34600051 81.20261751 43.23583984 80.67407227 C44.09826797 80.51870499 44.96069611 80.36333771 45.84925842 80.20326233 C50.04544652 79.49293053 50.04544652 79.49293053 54 78 C17.7 69.42 -18.6 60.84 -56 52 C-52.52723945 50.26361973 -51.41401918 49.74665878 -47.83648682 49.6076355 C-46.60397942 49.55302658 -46.60397942 49.55302658 -45.34657288 49.49731445 C-44.00761208 49.45199585 -44.00761208 49.45199585 -42.64160156 49.40576172 C-41.69492111 49.36645538 -40.74824066 49.32714905 -39.77287292 49.28665161 C-36.6457367 49.15897529 -33.51826566 49.04428243 -30.390625 48.9296875 C-28.22154614 48.84366366 -26.05249924 48.75683049 -23.88348389 48.66921997 C-18.17589211 48.44086024 -12.46793206 48.22350713 -6.75982666 48.00842285 C0.08958426 47.74804876 6.93846171 47.47404377 13.78742981 47.20231628 C24.1912481 46.79108496 34.595594 46.39720305 45 46 C27.18 40.06 9.36 34.12 -9 28 C-9 27.67 -9 27.34 -9 27 C2.55 25.68 14.1 24.36 26 23 C22.96660768 19.96660768 20.21576629 17.24752682 16.93359375 14.58984375 C15.8343457 13.69362305 15.8343457 13.69362305 14.71289062 12.77929688 C13.96201172 12.17150391 13.21113281 11.56371094 12.4375 10.9375 C10.93454849 9.71948038 9.43319502 8.49948575 7.93359375 7.27734375 C7.27415771 6.74359131 6.61472168 6.20983887 5.93530273 5.65991211 C3.84789196 3.8695367 1.92135739 1.96628265 0 0 Z " fill="#8E8E8E" transform="translate(177,325)"/>
</svg>
